<svg xmlns="http://www.w3.org/2000/svg" width="53.768" height="58.247" viewBox="0 0 53.768 58.247">
  <g id="food-app" transform="translate(-160.782 -142.851)">
    <path id="Path_6033" data-name="Path 6033" d="M160.9,394.477a.454.454,0,0,1,.451-.4h0c8.825.017,17.6-.008,26.37-.032,25.7-.073,26.994-.365,26.819.51-6.4,32.742-56.447,23.584-53.642-.077Zm.862.509c-1.938,22.061,45.064,30.747,51.775-.066q-12.951-.019-25.811.034C179.085,394.977,170.447,395,161.757,394.986Z" transform="translate(0 -219.723)" fill="#000b1e"/>
    <path id="Path_6034" data-name="Path 6034" d="M165.86,426.837a.455.455,0,0,1-.007-.911c54.366-.851,51.785-1.063,51.794-.356a.456.456,0,0,1-.448.463l-51.332.8h-.007Z" transform="translate(-4.046 -247.032)" fill="#000b1e"/>
    <path id="Path_6035" data-name="Path 6035" d="M298.352,558.941c-15.83,0-15.9-.14-16.813-.993-1.729-1.617-.293-4.482,1.462-6.051a.455.455,0,0,1,.606.678,7.093,7.093,0,0,0-1.705,2.355,2.127,2.127,0,0,0,.259,2.352c.91.853,2.3.564,15.647.742,1.4.021,3.518.051,4.608-1.365a2.417,2.417,0,0,0-1.3-3.861.455.455,0,0,1,.229-.881,3.325,3.325,0,0,1,1.789,5.3c-1.208,1.574-3.29,1.728-4.784,1.728Z" transform="translate(-104.989 -357.844)" fill="#000b1e"/>
    <path id="Path_6036" data-name="Path 6036" d="M199.556,327.119a.461.461,0,0,1-.058,0,.455.455,0,0,1-.395-.508,11.135,11.135,0,0,1,10.758-10,12.62,12.62,0,0,1,13.161,9.358.756.756,0,0,1,.12.467.455.455,0,0,1-.894.154,11.735,11.735,0,0,0-12.328-9.069c-4.074.264-9.115,2.833-9.914,9.206a.453.453,0,0,1-.45.4Z" transform="translate(-33.532 -152.028)" fill="#000b1e"/>
    <path id="Path_6037" data-name="Path 6037" d="M420.227,333.487a10.653,10.653,0,0,0-4.837-6.5,8.953,8.953,0,0,0-8.4-.287,7.659,7.659,0,0,0-4.092,7.119.456.456,0,0,1-.421.488.462.462,0,0,1-.488-.42,8.6,8.6,0,0,1,4.579-7.994,9.882,9.882,0,0,1,9.276.3c4.2,2.407,5.957,7.776,5.125,8.123-.466.2-.9-.474-.741-.833Z" transform="translate(-211.058 -159.292)" fill="#000b1e"/>
    <path id="Path_6038" data-name="Path 6038" d="M349.971,288.9a.455.455,0,0,1-.428-.608,10.676,10.676,0,0,1,5.477-6.03,10.628,10.628,0,0,1,14.135,5.15.455.455,0,0,1-.826.382,9.714,9.714,0,0,0-12.921-4.708A9.756,9.756,0,0,0,350.4,288.6a.457.457,0,0,1-.428.3Z" transform="translate(-165.158 -121.121)" fill="#000b1e"/>
    <path id="Path_6039" data-name="Path 6039" d="M262.558,270.678a.454.454,0,0,1-.341-.546,9.529,9.529,0,0,1,7.025-7.193,9.647,9.647,0,0,1,9.733,2.967.455.455,0,1,1-.677.608,8.749,8.749,0,0,0-8.83-2.694,8.632,8.632,0,0,0-6.364,6.516.455.455,0,0,1-.546.342Z" transform="translate(-88.754 -104.807)" fill="#000b1e"/>
    <path id="Path_6040" data-name="Path 6040" d="M443.982,160.946a.449.449,0,0,1-.178-.037.455.455,0,0,1-.241-.6,83.944,83.944,0,0,1,9.9-17.278.455.455,0,0,1,.731.544,83.057,83.057,0,0,0-9.789,17.091.455.455,0,0,1-.419.278Z" transform="translate(-247.426 0)" fill="#000b1e"/>
    <path id="Path_6041" data-name="Path 6041" d="M424.522,163.033a.447.447,0,0,1-.138-.021.454.454,0,0,1-.3-.571c1.813-5.7,3.9-11.384,6.212-16.9a.454.454,0,1,1,.838.351c-2.3,5.494-4.379,11.155-6.184,16.827a.454.454,0,0,1-.433.316Z" transform="translate(-230.397 -2.109)" fill="#000b1e"/>
    <path id="Path_6042" data-name="Path 6042" d="M250.983,353.945a.455.455,0,0,1-.238-.066l-.252-.153a.455.455,0,1,1,.471-.778l.256.155a.454.454,0,0,1-.237.843Z" transform="translate(-78.314 -183.796)" fill="#000b1e"/>
    <path id="Path_6043" data-name="Path 6043" d="M279.195,340.275a.451.451,0,0,1-.171-.034l-.331-.133a.455.455,0,0,1,.338-.845l.335.135a.455.455,0,0,1-.17.877Z" transform="translate(-102.931 -171.85)" fill="#000b1e"/>
    <path id="Path_6044" data-name="Path 6044" d="M311.238,346.542a.436.436,0,0,1-.09-.009l-.334-.067a.454.454,0,0,1-.358-.535.461.461,0,0,1,.535-.357l.334.067a.455.455,0,0,1-.087.9Z" transform="translate(-130.97 -177.392)" fill="#000b1e"/>
    <path id="Path_6045" data-name="Path 6045" d="M299.359,296.361h-.2a.455.455,0,0,1,0-.91h.2a.455.455,0,0,1,0,.91Z" transform="translate(-120.694 -133.538)" fill="#000b1e"/>
    <path id="Path_6046" data-name="Path 6046" d="M319.068,281.438a.449.449,0,0,1-.207-.05l-.129-.065a.455.455,0,0,1,.407-.815l.137.069a.456.456,0,0,1-.207.861Z" transform="translate(-137.999 -120.42)" fill="#000b1e"/>
    <path id="Path_6047" data-name="Path 6047" d="M387.251,321.226a.455.455,0,0,1-.455-.455.485.485,0,0,1,.455-.489.428.428,0,0,1,.455.422v.066A.455.455,0,0,1,387.251,321.226Z" transform="translate(-197.781 -155.267)" fill="#000b1e"/>
    <path id="Path_6048" data-name="Path 6048" d="M416.674,301.92a.475.475,0,0,1-.184-.038l-.137-.06a.455.455,0,0,1,.367-.832l.136.06a.455.455,0,0,1-.182.87Z" transform="translate(-223.409 -138.351)" fill="#000b1e"/>
    <path id="Path_6049" data-name="Path 6049" d="M432.285,364.361c-.408-.085-.782-.156-.685-.61s.468-.367.871-.281a.455.455,0,1,1-.186.891Z" transform="translate(-236.976 -193.001)" fill="#000b1e"/>
    <path id="Path_6050" data-name="Path 6050" d="M453.649,346.551h-.2a.455.455,0,0,1,0-.911h.2a.455.455,0,0,1,0,.911Z" transform="translate(-255.711 -177.459)" fill="#000b1e"/>
    <path id="Path_6051" data-name="Path 6051" d="M485.571,346.67a.421.421,0,0,1-.184-.044l-.134-.067a.455.455,0,0,1,.407-.815l.068.035a.488.488,0,0,1,.235.627A.446.446,0,0,1,485.571,346.67Z" transform="translate(-283.72 -177.507)" fill="#000b1e"/>
    <path id="Path_6052" data-name="Path 6052" d="M294.251,566.062l-1.034-1.034a.228.228,0,0,1,.322-.322l1.034,1.034a.228.228,0,1,1-.322.322Z" transform="translate(-115.832 -369.098)" fill="#000b1e"/>
    <path id="Path_6053" data-name="Path 6053" d="M300.766,560.8l-2.324-2.324a.228.228,0,0,1,.322-.322l2.324,2.324a.228.228,0,0,1-.322.322Z" transform="translate(-120.404 -363.362)" fill="#000b1e"/>
    <path id="Path_6054" data-name="Path 6054" d="M321.351,561.9l-2.663-2.662a.228.228,0,0,1,.322-.322l2.663,2.662a.228.228,0,0,1-.323.322Z" transform="translate(-138.121 -364.027)" fill="#000b1e"/>
    <path id="Path_6055" data-name="Path 6055" d="M343.607,564.838,341,562.23a.227.227,0,0,1,.321-.322l2.608,2.608a.227.227,0,0,1-.321.322Z" transform="translate(-157.645 -366.65)" fill="#000b1e"/>
    <path id="Path_6056" data-name="Path 6056" d="M369.66,566.891l-2.038-2.038a.228.228,0,0,1,.322-.322l2.038,2.038a.228.228,0,0,1-.322.322Z" transform="translate(-180.943 -368.945)" fill="#000b1e"/>
    <path id="Path_6057" data-name="Path 6057" d="M390.879,567.689l-2.273-2.273a.228.228,0,0,1,.322-.322l2.273,2.273a.228.228,0,0,1-.322.322Z" transform="translate(-199.305 -369.438)" fill="#000b1e"/>
    <path id="Path_6058" data-name="Path 6058" d="M415.2,565.585l-2.6-2.6a.228.228,0,0,1,.322-.322l2.6,2.6a.227.227,0,0,1-.321.322Z" transform="translate(-220.307 -367.312)" fill="#000b1e"/>
    <path id="Path_6059" data-name="Path 6059" d="M433.645,562.285l-2.3-2.3a.228.228,0,0,1,.322-.322l2.3,2.3a.228.228,0,0,1-.323.322Z" transform="translate(-236.71 -364.69)" fill="#000b1e"/>
    <path id="Path_6060" data-name="Path 6060" d="M446.152,584.347a.228.228,0,0,1,.322-.322l.856.855a.227.227,0,0,1,0,.322C447.095,585.438,446.394,584.59,446.152,584.347Z" transform="translate(-249.662 -386.005)" fill="#000b1e"/>
    <path id="Path_6061" data-name="Path 6061" d="M436.238,589.993l-.961-.96a.227.227,0,0,1,.322-.321l.961.96a.227.227,0,1,1-.322.321Z" transform="translate(-240.146 -390.105)" fill="#000b1e"/>
    <path id="Path_6062" data-name="Path 6062" d="M419.824,589.878l-1.037-1.037a.228.228,0,0,1,.322-.322l1.037,1.037a.228.228,0,0,1-.322.322Z" transform="translate(-225.716 -389.936)" fill="#000b1e"/>
    <path id="Path_6063" data-name="Path 6063" d="M407.282,595.332l-.858-.858a.228.228,0,0,1,.322-.322l.858.858a.228.228,0,0,1-.322.322Z" transform="translate(-214.897 -394.866)" fill="#000b1e"/>
    <path id="Path_6064" data-name="Path 6064" d="M409.042,586.827l1.823-1.822a.228.228,0,0,1,.322.322l-1.823,1.822A.228.228,0,0,1,409.042,586.827Z" transform="translate(-217.188 -386.862)" fill="#000b1e"/>
    <path id="Path_6065" data-name="Path 6065" d="M422.722,584.894l2.071-2.071a.228.228,0,0,1,.322.322l-2.071,2.071A.228.228,0,0,1,422.722,584.894Z" transform="translate(-229.159 -384.953)" fill="#000b1e"/>
    <path id="Path_6066" data-name="Path 6066" d="M439.792,584.741l2.122-2.123a.228.228,0,0,1,.322.322l-2.122,2.123A.228.228,0,0,1,439.792,584.741Z" transform="translate(-244.097 -384.776)" fill="#000b1e"/>
    <path id="Path_6067" data-name="Path 6067" d="M438.106,564.631l1.11-1.11a.228.228,0,0,1,.322.322l-1.11,1.11A.228.228,0,0,1,438.106,564.631Z" transform="translate(-242.622 -368.063)" fill="#000b1e"/>
    <path id="Path_6068" data-name="Path 6068" d="M421.6,567.616l1.487-1.487a.228.228,0,0,1,.322.322l-1.487,1.487A.228.228,0,0,1,421.6,567.616Z" transform="translate(-228.18 -370.344)" fill="#000b1e"/>
    <path id="Path_6069" data-name="Path 6069" d="M397.046,567.019l2-2a.228.228,0,0,1,.322.322l-2,2A.228.228,0,0,1,397.046,567.019Z" transform="translate(-206.691 -369.373)" fill="#000b1e"/>
    <path id="Path_6070" data-name="Path 6070" d="M373.8,569.582l1.259-1.259a.228.228,0,0,1,.322.322l-1.259,1.259A.228.228,0,0,1,373.8,569.582Z" transform="translate(-186.35 -372.264)" fill="#000b1e"/>
    <path id="Path_6071" data-name="Path 6071" d="M354.682,569.6l1.6-1.6a.228.228,0,0,1,.322.322l-1.6,1.6A.228.228,0,0,1,354.682,569.6Z" transform="translate(-169.618 -371.979)" fill="#000b1e"/>
    <path id="Path_6072" data-name="Path 6072" d="M332.745,566.758l1.637-1.637a.227.227,0,0,1,.321.322l-1.637,1.637A.227.227,0,0,1,332.745,566.758Z" transform="translate(-150.422 -369.463)" fill="#000b1e"/>
    <path id="Path_6073" data-name="Path 6073" d="M310.271,562.4a.226.226,0,0,1,0-.321l2.037-2.038a.227.227,0,0,1,.321.322l-2.037,2.038A.228.228,0,0,1,310.271,562.4Z" transform="translate(-130.757 -365.018)" fill="#000b1e"/>
    <path id="Path_6074" data-name="Path 6074" d="M295.635,565.5l1.388-1.389a.228.228,0,0,1,.322.322l-1.388,1.389A.228.228,0,0,1,295.635,565.5Z" transform="translate(-117.948 -368.576)" fill="#000b1e"/>
    <path id="Path_6075" data-name="Path 6075" d="M287.686,572.836l-.669-.67a.228.228,0,0,1,.322-.322l.669.67a.228.228,0,0,1-.322.322Z" transform="translate(-110.406 -375.346)" fill="#000b1e"/>
    <path id="Path_6076" data-name="Path 6076" d="M468.021,491.105l-4.3-4.3a.227.227,0,0,1,.321-.322l4.3,4.3a.228.228,0,0,1-.322.322Z" transform="translate(-265.037 -300.646)" fill="#000b1e"/>
    <path id="Path_6077" data-name="Path 6077" d="M487.085,481.726c-.146,0-4.368-4.274-4.472-4.378a.227.227,0,0,1,.321-.322l4.31,4.311a.226.226,0,0,1,0,.321A.218.218,0,0,1,487.085,481.726Z" transform="translate(-281.572 -292.373)" fill="#000b1e"/>
    <path id="Path_6078" data-name="Path 6078" d="M511.192,470.263l-3.4-3.4a.227.227,0,0,1,.322-.321l3.4,3.4a.227.227,0,1,1-.322.321Z" transform="translate(-303.607 -283.2)" fill="#000b1e"/>
    <path id="Path_6079" data-name="Path 6079" d="M533.552,453.792l-3.041-3.041a.228.228,0,0,1,.322-.322l3.041,3.041a.228.228,0,0,1-.322.322Z" transform="translate(-323.484 -269.096)" fill="#000b1e"/>
    <path id="Path_6080" data-name="Path 6080" d="M554.294,443.308a.227.227,0,0,1-.161-.066l-1.583-1.583a.228.228,0,0,1,.322-.322l1.583,1.583a.227.227,0,0,1-.161.388Z" transform="translate(-342.77 -261.139)" fill="#000b1e"/>
    <path id="Path_6081" data-name="Path 6081" d="M561.254,419.924l-1.7-1.7a.227.227,0,0,1,.321-.322l1.7,1.7a.227.227,0,0,1-.321.322Z" transform="translate(-348.896 -240.629)" fill="#000b1e"/>
    <path id="Path_6082" data-name="Path 6082" d="M571.437,411.21l-1.384-1.385a.228.228,0,0,1,.322-.322l1.384,1.385a.228.228,0,0,1-.322.322Z" transform="translate(-358.087 -233.283)" fill="#000b1e"/>
    <path id="Path_6083" data-name="Path 6083" d="M447.356,502.97l-4.621-4.621a.228.228,0,0,1,.322-.322l4.621,4.621a.228.228,0,0,1-.322.322Z" transform="translate(-246.675 -310.751)" fill="#000b1e"/>
    <path id="Path_6084" data-name="Path 6084" d="M426.619,512.926a.227.227,0,0,1-.161-.066l-4.02-4.02a.228.228,0,1,1,.322-.322l4.02,4.02a.227.227,0,0,1-.161.388Z" transform="translate(-228.913 -319.931)" fill="#000b1e"/>
    <path id="Path_6085" data-name="Path 6085" d="M407.614,521.638l-3.715-3.715a.227.227,0,0,1,.321-.322l3.715,3.715a.227.227,0,1,1-.321.322Z" transform="translate(-212.69 -327.88)" fill="#000b1e"/>
    <path id="Path_6086" data-name="Path 6086" d="M388,529.666l-3.343-3.343a.228.228,0,1,1,.322-.322l3.343,3.343a.228.228,0,0,1-.322.322Z" transform="translate(-195.853 -335.231)" fill="#000b1e"/>
    <path id="Path_6087" data-name="Path 6087" d="M369.43,533.13l-3.321-3.321a.228.228,0,0,1,.322-.322l3.321,3.321a.228.228,0,0,1-.322.322Z" transform="translate(-179.618 -338.279)" fill="#000b1e"/>
    <path id="Path_6088" data-name="Path 6088" d="M342.411,538.908a28.273,28.273,0,0,1-2.2-2.108.228.228,0,0,1,.322-.322l2.042,2.042A.228.228,0,0,1,342.411,538.908Z" transform="translate(-156.953 -344.397)" fill="#000b1e"/>
    <path id="Path_6089" data-name="Path 6089" d="M317.578,542.842l-2.545-2.546a.227.227,0,0,1,.321-.322l2.545,2.546A.227.227,0,0,1,317.578,542.842Z" transform="translate(-134.923 -347.456)" fill="#000b1e"/>
    <path id="Path_6090" data-name="Path 6090" d="M301.584,546.077l-1.235-1.236a.228.228,0,0,1,.322-.322l1.236,1.236a.228.228,0,1,1-.323.322Z" transform="translate(-122.073 -351.434)" fill="#000b1e"/>
    <path id="Path_6091" data-name="Path 6091" d="M304.186,541.695l1.454-1.453a.228.228,0,0,1,.322.322l-1.454,1.453A.228.228,0,0,1,304.186,541.695Z" transform="translate(-125.431 -347.691)" fill="#000b1e"/>
    <path id="Path_6092" data-name="Path 6092" d="M321.683,537.434l2.511-2.511a.228.228,0,0,1,.322.322l-2.511,2.511A.228.228,0,0,1,321.683,537.434Z" transform="translate(-140.742 -343.036)" fill="#000b1e"/>
    <path id="Path_6093" data-name="Path 6093" d="M337.072,529.855l4.246-4.245a.228.228,0,1,1,.322.322l-4.246,4.245A.228.228,0,0,1,337.072,529.855Z" transform="translate(-154.208 -334.889)" fill="#000b1e"/>
    <path id="Path_6094" data-name="Path 6094" d="M364.713,523.234l5.038-5.037a.228.228,0,0,1,.322.322l-5.038,5.037A.228.228,0,0,1,364.713,523.234Z" transform="translate(-178.397 -328.399)" fill="#000b1e"/>
    <path id="Path_6095" data-name="Path 6095" d="M393.735,525.715l4.836-4.836a.228.228,0,0,1,.322.322l-4.835,4.836A.228.228,0,0,1,393.735,525.715Z" transform="translate(-203.793 -330.749)" fill="#000b1e"/>
    <path id="Path_6096" data-name="Path 6096" d="M367.511,534.316l1.41-1.409a.228.228,0,0,1,.322.322l-1.41,1.409A.228.228,0,0,1,367.511,534.316Z" transform="translate(-180.845 -341.273)" fill="#000b1e"/>
    <path id="Path_6097" data-name="Path 6097" d="M396.2,521.506a.227.227,0,0,1,0-.322l3.284-3.284a.227.227,0,1,1,.321.322l-3.284,3.284A.227.227,0,0,1,396.2,521.506Z" transform="translate(-205.953 -328.142)" fill="#000b1e"/>
    <path id="Path_6098" data-name="Path 6098" d="M418.232,504.672l7.537-7.537a.228.228,0,0,1,.322.322l-7.537,7.537A.228.228,0,0,1,418.232,504.672Z" transform="translate(-225.23 -309.968)" fill="#000b1e"/>
    <path id="Path_6099" data-name="Path 6099" d="M462.321,504.786a.227.227,0,0,1,0-.322l5.069-5.069a.228.228,0,0,1,.322.322l-5.069,5.069A.228.228,0,0,1,462.321,504.786Z" transform="translate(-263.814 -311.946)" fill="#000b1e"/>
    <path id="Path_6100" data-name="Path 6100" d="M442.543,496.65a.227.227,0,0,1-.161-.388l2.448-2.448a.228.228,0,1,1,.322.322l-2.449,2.448a.222.222,0,0,1-.16.066Z" transform="translate(-246.366 -307.064)" fill="#000b1e"/>
    <path id="Path_6101" data-name="Path 6101" d="M488.545,464.942l4.222-4.222a.228.228,0,0,1,.322.322l-4.222,4.222A.228.228,0,0,1,488.545,464.942Z" transform="translate(-286.76 -278.104)" fill="#000b1e"/>
    <path id="Path_6102" data-name="Path 6102" d="M518.265,470.564l3.22-3.22a.228.228,0,0,1,.322.322l-3.22,3.22A.228.228,0,0,1,518.265,470.564Z" transform="translate(-312.768 -283.901)" fill="#000b1e"/>
    <path id="Path_6103" data-name="Path 6103" d="M532.611,444.67l2.669-2.67a.227.227,0,0,1,.322.321l-2.669,2.67A.227.227,0,0,1,532.611,444.67Z" transform="translate(-325.322 -261.721)" fill="#000b1e"/>
    <path id="Path_6104" data-name="Path 6104" d="M553.621,441.915a.227.227,0,0,1,0-.322l1.86-1.86a.228.228,0,0,1,.322.322l-1.86,1.86A.228.228,0,0,1,553.621,441.915Z" transform="translate(-343.71 -259.736)" fill="#000b1e"/>
    <path id="Path_6105" data-name="Path 6105" d="M225.992,464.268l-3.27-3.27a.227.227,0,0,1,.321-.321l3.27,3.27a.227.227,0,1,1-.321.321Z" transform="translate(-54.142 -278.064)" fill="#000b1e"/>
    <path id="Path_6106" data-name="Path 6106" d="M247.171,460.891l-3.278-3.278a.228.228,0,0,1,.322-.322l3.277,3.278a.228.228,0,0,1-.322.322Z" transform="translate(-72.668 -275.101)" fill="#000b1e"/>
    <path id="Path_6107" data-name="Path 6107" d="M233.745,449.655l4.416-4.416a.228.228,0,0,1,.322.322l-4.416,4.416A.228.228,0,0,1,233.745,449.655Z" transform="translate(-63.788 -264.557)" fill="#000b1e"/>
    <path id="Path_6108" data-name="Path 6108" d="M259.983,463.353l2.036-2.036a.228.228,0,0,1,.322.322l-2.036,2.036A.228.228,0,0,1,259.983,463.353Z" transform="translate(-86.749 -278.625)" fill="#000b1e"/>
    <path id="Path_6109" data-name="Path 6109" d="M268.335,460.469,266.77,458.9a.228.228,0,1,1,.322-.322l1.565,1.565a.228.228,0,0,1-.322.322Z" transform="translate(-92.69 -276.233)" fill="#000b1e"/>
    <path id="Path_6110" data-name="Path 6110" d="M361.314,380.032a.227.227,0,0,1-.161-.066l-1.733-1.733a.228.228,0,0,1,.322-.322l1.733,1.733a.227.227,0,0,1-.161.388Z" transform="translate(-173.768 -205.639)" fill="#000b1e"/>
    <path id="Path_6111" data-name="Path 6111" d="M369.238,377.856a.227.227,0,0,1-.161-.066l-1.287-1.287a.228.228,0,1,1,.322-.322l1.287,1.287a.227.227,0,0,1-.161.388Z" transform="translate(-181.092 -204.125)" fill="#000b1e"/>
    <path id="Path_6112" data-name="Path 6112" d="M349.9,383.508,348.7,382.3a.228.228,0,0,1,.322-.322l1.209,1.209a.228.228,0,0,1-.322.322Z" transform="translate(-164.382 -209.197)" fill="#000b1e"/>
    <path id="Path_6113" data-name="Path 6113" d="M334.3,384.857l-1.273-1.273a.228.228,0,0,1,.322-.322l1.273,1.273a.228.228,0,0,1-.322.322Z" transform="translate(-150.673 -210.322)" fill="#000b1e"/>
    <path id="Path_6114" data-name="Path 6114" d="M323.471,387.551l-.978-.978a.228.228,0,0,1,.322-.322l.978.978a.228.228,0,1,1-.322.322Z" transform="translate(-141.45 -212.935)" fill="#000b1e"/>
    <path id="Path_6115" data-name="Path 6115" d="M306.827,389.167l-.847-.847A.227.227,0,1,1,306.3,388l.847.847a.227.227,0,1,1-.321.321Z" transform="translate(-127.002 -214.467)" fill="#000b1e"/>
    <path id="Path_6116" data-name="Path 6116" d="M294.537,391.454l-1.01-1.011a.227.227,0,0,1,.321-.322l1.01,1.011a.227.227,0,0,1-.321.322Z" transform="translate(-116.103 -216.322)" fill="#000b1e"/>
    <path id="Path_6117" data-name="Path 6117" d="M295.892,386.885l1.1-1.1a.227.227,0,0,1,.322.321l-1.1,1.1A.227.227,0,0,1,295.892,386.885Z" transform="translate(-118.172 -212.524)" fill="#000b1e"/>
    <path id="Path_6118" data-name="Path 6118" d="M308.542,384.158l1.433-1.433a.228.228,0,0,1,.322.322l-1.433,1.433A.228.228,0,0,1,308.542,384.158Z" transform="translate(-129.242 -209.851)" fill="#000b1e"/>
    <path id="Path_6119" data-name="Path 6119" d="M325.495,382.626l1.619-1.62a.228.228,0,0,1,.322.322l-1.619,1.62A.228.228,0,0,1,325.495,382.626Z" transform="translate(-144.077 -208.345)" fill="#000b1e"/>
    <path id="Path_6120" data-name="Path 6120" d="M339.872,380.657l1.935-1.935a.228.228,0,1,1,.322.322l-1.935,1.935A.228.228,0,0,1,339.872,380.657Z" transform="translate(-156.658 -206.35)" fill="#000b1e"/>
    <path id="Path_6121" data-name="Path 6121" d="M357.426,381.2a.228.228,0,0,1-.161-.388l1.728-1.728a.227.227,0,0,1,.321.322l-1.728,1.728A.225.225,0,0,1,357.426,381.2Z" transform="translate(-171.881 -206.667)" fill="#000b1e"/>
    <path id="Path_6122" data-name="Path 6122" d="M372.873,380.394a.227.227,0,0,1-.161-.388l1.168-1.168a.228.228,0,0,1,.322.322l-1.168,1.168a.228.228,0,0,1-.161.066Z" transform="translate(-185.398 -206.448)" fill="#000b1e"/>
    <path id="Path_6123" data-name="Path 6123" d="M386.231,381.546a.227.227,0,0,1,0-.322l1.392-1.392a.228.228,0,0,1,.322.322l-1.392,1.392A.227.227,0,0,1,386.231,381.546Z" transform="translate(-197.229 -207.318)" fill="#000b1e"/>
    <path id="Path_6124" data-name="Path 6124" d="M394.391,385.826a.227.227,0,0,1,0-.322l.995-.995a.228.228,0,0,1,.322.322l-.995.995A.227.227,0,0,1,394.391,385.826Z" transform="translate(-204.369 -211.411)" fill="#000b1e"/>
    <path id="Path_6125" data-name="Path 6125" d="M390.47,381.821l-.807-.806a.228.228,0,1,1,.322-.322l.807.806a.228.228,0,1,1-.322.322Z" transform="translate(-200.233 -208.074)" fill="#000b1e"/>
    <path id="Path_6126" data-name="Path 6126" d="M445.671,383.383a.227.227,0,0,1,0-.322l1.623-1.622a.228.228,0,0,1,.322.322l-1.623,1.622A.229.229,0,0,1,445.671,383.383Z" transform="translate(-249.244 -208.726)" fill="#000b1e"/>
    <path id="Path_6127" data-name="Path 6127" d="M458.331,380.436a.227.227,0,0,1,0-.322l1.857-1.856a.227.227,0,0,1,.322.321l-1.857,1.857A.228.228,0,0,1,458.331,380.436Z" transform="translate(-260.322 -205.941)" fill="#000b1e"/>
    <path id="Path_6128" data-name="Path 6128" d="M477.011,381.8a.227.227,0,0,1,0-.322l1.661-1.662a.228.228,0,0,1,.322.322l-1.661,1.662A.228.228,0,0,1,477.011,381.8Z" transform="translate(-276.669 -207.3)" fill="#000b1e"/>
    <path id="Path_6129" data-name="Path 6129" d="M485.785,377.276l2.324-2.324a.228.228,0,0,1,.322.322l-2.324,2.324A.228.228,0,0,1,485.785,377.276Z" transform="translate(-284.345 -203.048)" fill="#000b1e"/>
    <path id="Path_6130" data-name="Path 6130" d="M504.033,381.79l1.77-1.77a.228.228,0,0,1,.322.322l-1.77,1.77A.228.228,0,0,1,504.033,381.79Z" transform="translate(-300.314 -207.482)" fill="#000b1e"/>
    <path id="Path_6131" data-name="Path 6131" d="M515.841,377.027a.227.227,0,0,1,0-.322l2.312-2.311a.228.228,0,0,1,.322.322l-2.312,2.311A.226.226,0,0,1,515.841,377.027Z" transform="translate(-310.649 -202.559)" fill="#000b1e"/>
    <path id="Path_6132" data-name="Path 6132" d="M531.3,384.14a.227.227,0,0,1,0-.322l1.143-1.143a.228.228,0,0,1,.322.322l-1.143,1.143A.228.228,0,0,1,531.3,384.14Z" transform="translate(-324.178 -209.806)" fill="#000b1e"/>
    <path id="Path_6133" data-name="Path 6133" d="M527.489,377.839l-1.35-1.35a.228.228,0,0,1,.322-.322l1.35,1.35a.228.228,0,1,1-.322.322Z" transform="translate(-319.659 -204.111)" fill="#000b1e"/>
    <path id="Path_6134" data-name="Path 6134" d="M514.665,380.9l-1.394-1.394a.227.227,0,0,1,.321-.322l1.394,1.394a.227.227,0,0,1-.321.322Z" transform="translate(-308.4 -206.756)" fill="#000b1e"/>
    <path id="Path_6135" data-name="Path 6135" d="M504.916,384.455l-1.316-1.316a.228.228,0,0,1,.322-.322l1.316,1.316a.228.228,0,0,1-.322.322Z" transform="translate(-299.935 -209.93)" fill="#000b1e"/>
    <path id="Path_6136" data-name="Path 6136" d="M486.151,380.937l-1.441-1.44a.228.228,0,0,1,.322-.322l1.441,1.441a.226.226,0,0,1,0,.321.228.228,0,0,1-.322,0Z" transform="translate(-283.404 -206.743)" fill="#000b1e"/>
    <path id="Path_6137" data-name="Path 6137" d="M473.732,385.473l-1.236-1.235a.228.228,0,0,1,.322-.322l1.236,1.235a.228.228,0,0,1-.322.322Z" transform="translate(-272.719 -210.894)" fill="#000b1e"/>
    <path id="Path_6138" data-name="Path 6138" d="M457.022,382.276l-1.259-1.259a.228.228,0,0,1,.322-.322l1.259,1.259a.228.228,0,0,1-.322.322Z" transform="translate(-258.075 -208.075)" fill="#000b1e"/>
    <path id="Path_6139" data-name="Path 6139" d="M445.865,385.5l-.834-.834a.227.227,0,0,1,.321-.322l.834.835a.227.227,0,1,1-.321.321Z" transform="translate(-248.684 -211.268)" fill="#000b1e"/>
    <path id="Path_6140" data-name="Path 6140" d="M434.935,389.366l-.648-.648a.228.228,0,0,1,.322-.322l.648.648a.228.228,0,0,1-.322.322Z" transform="translate(-239.28 -214.812)" fill="#000b1e"/>
  </g>
</svg>
