<svg xmlns="http://www.w3.org/2000/svg" width="63.806" height="62.769" viewBox="0 0 63.806 62.769">
  <g id="quality-engineering" transform="translate(-1.097 -1.615)">
    <path id="Path_5" data-name="Path 5" d="M17.3,25.681l7.667,9.9L12.608,48.279a9.9,9.9,0,0,0-2.148,2.834,5.41,5.41,0,0,0,2.886,6.963,5.632,5.632,0,0,0,2.057.37,7.771,7.771,0,0,0,3.333-.8,18.938,18.938,0,0,0,4.254-3.119c3.367-3.011,6.623-6.024,9.7-8.966l7.1,9.163c2.535,3.271,5.408,6.979,9.56,8.788,4.065,1.77,9.845.915,11.966-3.179h0a9.2,9.2,0,0,0-.649-8.634c-1.8-3.155-3.578-4.439-17.454-16.562,2.554-2.618,5.063-5.262,7.475-7.879a20.256,20.256,0,0,0,2.38,2.6,5.436,5.436,0,0,0,2.777,1.351c2.25.314,4.2-1.086,5.977-2.506h0c4.132-3.326,3.731-5.565,1.057-8.371C52,8.885,50.663,7.3,47.882,5.475a12.207,12.207,0,0,0-7.848-2.2c-2.921.326-3.627,2.051-3.186,4.577A22.679,22.679,0,0,0,41.774,18.3c-3.769,3.873-5.637,5.79-8.182,8.415L24.1,18.409c2.879-5.121,1.062-10.117-2.394-13.131a16.566,16.566,0,0,0-9.814-3.661.5.5,0,0,0-.389.849c1.953,2,3.865,4.234,5.818,6.256-.561,2.6-1.288,5.267-1.851,7.881-2.266.6-4.574,1.143-6.96,1.774-2.136-1.915-4.472-3.632-6.58-5.539a.5.5,0,0,0-.835.382A15.058,15.058,0,0,0,5.115,23.468C8.085,26.48,13.028,27.956,17.3,25.681ZM19.15,24.47c.259-.207.559-.464.722-.613V24.9H18.587C18.844,24.712,18.951,24.628,19.15,24.47Zm2.707-2.762v1.284H20.744C21.233,22.473,21.49,22.164,21.857,21.708Zm1.076-1.436v.982h-.611c-.012-.031-.014-.067-.037-.09C22.821,20.459,22.785,20.486,22.933,20.272Zm-3.252,6.856L18.339,25.4h1.532V27.07c0,.023.018.038.024.059h-.214Zm2.181,2.817h.161v.208Zm13.5,13.025c.531-.516,1.061-1.029,1.591-1.551,0,.005-.006.008-.006.014a.25.25,0,0,0,.25.25h.43V42.97Zm-.456,3.821-1.254-1.62h1.254Zm-1.29-2.12c.424-.407.849-.83,1.274-1.241l.016.007v1.234ZM37.2,41.183h0c.144-.142.289-.279.433-.422v.421Zm-1.7,6.37h.856v1.1Zm24.3,4.642c1.17,2.035,1.95,5.12.629,7.677-1.866,3.6-7.028,4.312-10.679,2.724-3.918-1.707-6.707-5.308-9.169-8.484l-.2-.264h.106a.25.25,0,0,0,0-.5h-.222V51.642a.25.25,0,0,0-.5,0v1.41l-.636-.821h.369a.25.25,0,1,0,0-.5h-.756L37.6,50.274h.875v.863a.25.25,0,0,0,.5,0V50.22a.22.22,0,0,0,0-.392V49a.25.25,0,0,0-.5,0v.771H37.216l-.627-.81c.005,0,.008.005.013.005a.25.25,0,0,0,.25-.25V47.553h.6a.25.25,0,0,0,0-.5h-.6v-.685a.25.25,0,0,0-.5,0v.685h-.946V45.171H36.7a.25.25,0,0,0,0-.5H35.406v-1.2h2.255a.223.223,0,0,0,.434,0h.295a.25.25,0,0,0,0-.5h-.262V41.683h1.644a.25.25,0,0,0,0-.5H38.128V40.5a.246.246,0,0,0-.066-.161c.032-.031.063-.064.1-.1.99-.982,1.975-1.983,2.96-2.981h.17v1.8h-.861v-.431a.25.25,0,0,0-.5,0v.431h-.26a.25.25,0,0,0,0,.5h.26v1.537a.25.25,0,0,0,.5,0V39.556h.929a.243.243,0,0,0,.182.086.25.25,0,0,0,.25-.25V37.26H42.3a.25.25,0,0,0,0-.5h-.516v-.006a.237.237,0,0,0-.049-.119c.257-.262.518-.518.775-.78C56.214,47.826,58.072,49.173,59.794,52.195ZM54.013,29.342l.5-.5,1.021,1.021a.239.239,0,0,0,.339.006.247.247,0,0,0,.069.166.25.25,0,0,0,.354,0l.576-.576.622.622c.009.009.022.006.032.013A3.734,3.734,0,0,1,54.013,29.342ZM60.2,27.969a.236.236,0,0,0-.042-.1l-.847-.847,1.226-1.226.854.854c.025.025.06.025.091.038Zm-.4.252a.236.236,0,0,0,.1.042l-.359.359a.25.25,0,0,0,0,.354.241.241,0,0,0,.147.061,8.249,8.249,0,0,1-1.8.944.236.236,0,0,0-.04-.257l-.622-.622.557-.557.7.7a.25.25,0,1,0,.354-.354l-.7-.7.818-.818Zm-2.018-.382L56.65,26.7l.818-.818L58.6,27.021Zm-1.488-.78,1.134,1.134-.557.557-1.134-1.134ZM56.52,29.1l-.564.564a.246.246,0,0,0-.066-.16l-1.021-1.021.517-.517Zm7.356-4.76-.455-.455.374-.374c.013-.013.01-.032.019-.046a2.445,2.445,0,0,1,.068.361A2.384,2.384,0,0,1,63.876,24.342ZM40.144,4.273a11.217,11.217,0,0,1,7.189,2.038c2.708,1.776,4.13,3.46,14.817,14.713A7.216,7.216,0,0,1,63.7,23.119a.236.236,0,0,0-.256.041l-.374.374-.88-.88.085-.085a.25.25,0,1,0-.354-.354l-.083.085-.214-.214a.25.25,0,0,0-.354.354l.214.214-.6.6-.677-.677a.25.25,0,0,0-.354.353l.722.722a.243.243,0,0,0,.063.2.249.249,0,0,0,.177.073c.009,0,.015-.009.024-.01l.924.924-.029.029a.25.25,0,0,0,.354.354l.029-.029.238.237a.25.25,0,1,0,.354-.353l-.238-.238.6-.6.478.478a.194.194,0,0,0,.243.046,7.056,7.056,0,0,1-2.6,3.162c-.337.269-.681.532-1.028.784l2.815-2.815a.25.25,0,0,0-.354-.354l-.845.845c-.012-.031-.012-.066-.037-.091l-.854-.854.186-.186a.25.25,0,0,0-.354-.354l-.186.186-.988-.988a.25.25,0,1,0-.354.354l.988.988-1.226,1.225-1.134-1.134.2-.2a.25.25,0,0,0-.354-.354l-.2.2-.519-.519a.25.25,0,0,0-.354.354l.519.519L55.387,27.26l-1.618-1.618a.25.25,0,0,0-.354.354l1.618,1.618-.517.517L53.48,27.094a.25.25,0,1,0-.354.354l1.036,1.037-.541.541a15.981,15.981,0,0,1-1.861-2.044c-1.456-1.823-7.6-7.411-8.944-8.972l0,0A21.694,21.694,0,0,1,37.833,7.681C37.506,5.818,37.732,4.542,40.144,4.273Zm22.57,19.614-.6.6-.879-.879.6-.6ZM42.427,19.066c1.418,1.508,5.647,5.452,7.576,7.459-2.537,2.754-5.186,5.542-7.878,8.294q-2.41,2.473-4.854,4.894T32.4,44.456h0c-3.181,3.055-6.571,6.192-10.075,9.326A17.522,17.522,0,0,1,18.3,56.745a5.851,5.851,0,0,1-4.593.4,4.411,4.411,0,0,1-2.333-5.631,8.978,8.978,0,0,1,1.947-2.537C37.076,24.571,37.253,24.384,42.427,19.066ZM25.665,34.858l-3.214-4.152a.248.248,0,0,0,.072-.174v-.586h.083a.25.25,0,0,0,0-.5h-.083v-.577a.25.25,0,0,0-.5,0v.577h-.548l-1.407-1.817h.879v.76a.25.25,0,0,0,.5,0v-.76H22.3a.25.25,0,1,0,0-.5h-.856v-.577a.25.25,0,0,0-.5,0v.577h-.6c.006-.021.024-.036.024-.059V25.4h1.987a.25.25,0,0,0,0-.5H20.371V23.738a.235.235,0,0,0-.152-.209l.131-.13a5.084,5.084,0,0,0,1.507.093v.26a.25.25,0,0,0,.5,0v-.26h.5a.25.25,0,0,0,0-.5h-.5V21.755h.576v.253a.25.25,0,0,0,.5,0v-.253h.5a.25.25,0,0,0,0-.5h-.5V20.1a.244.244,0,0,0-.22-.237c.093-.14.373-.567.375-.57l9.305,8.146ZM8.042,19.3a.506.506,0,0,0,.465.113c2.449-.656,5.041-1.261,7.519-1.923a.5.5,0,0,0,.36-.38c.59-2.792,1.378-5.642,1.972-8.441a.5.5,0,0,0-.131-.452c-1.694-1.74-3.352-3.648-5.072-5.476a14.909,14.909,0,0,1,7.9,3.292c2.923,2.548,5.052,7.1,1.987,12.234A20.845,20.845,0,0,1,18.4,23.79,9.3,9.3,0,0,1,5.825,22.764a13.738,13.738,0,0,1-3.662-8.39C4.128,16.065,6.17,17.6,8.042,19.3Z" fill="#000c1e"/>
    <path id="Path_6" data-name="Path 6" d="M55.042,57.99a3.81,3.81,0,0,0,.281-4.024,3.458,3.458,0,0,0-4.6-1.393,3.68,3.68,0,0,0-2.258,4.512A3.731,3.731,0,0,0,55.042,57.99Zm-3.916-4.5a2.464,2.464,0,0,1,3.323.962,2.832,2.832,0,0,1-.215,2.95,2.659,2.659,0,1,1-3.108-3.912Z" fill="#000c1e"/>
    <path id="Path_7" data-name="Path 7" d="M34.021,29.04l.316.3-1.189,1.27-.131-.088a.25.25,0,1,0-.28.414l.065.044-1.528,1.632-.65-.513a.25.25,0,0,0-.31.392l.617.487-1.55,1.656-.62-.517a.25.25,0,1,0-.32.383l.6.5-1.88,2.007-.818-.534a.25.25,0,1,0-.273.418l.744.486-1.483,1.584-.891-.623a.25.25,0,1,0-.286.41l.832.582-1.451,1.549a.25.25,0,0,0,.366.341l1.5-1.6.614.429a.25.25,0,0,0,.286-.411l-.555-.388,1.494-1.6.415.271a.25.25,0,1,0,.273-.418l-.342-.223,1.839-1.964.309.258a.25.25,0,0,0,.32-.385l-.286-.239,1.559-1.665.353.279a.251.251,0,0,0,.311-.393l-.32-.253,1.554-1.66.637.431a.25.25,0,1,0,.28-.414l-.571-.386L34.7,29.681l.242.229a.25.25,0,0,0,.344-.364l-.244-.231.53-.566a.25.25,0,0,0-.366-.342l-.528.563-.314-.3a.25.25,0,0,0-.354.01A.256.256,0,0,0,34.021,29.04Z" fill="#000c1e"/>
  </g>
</svg>
