<svg xmlns="http://www.w3.org/2000/svg" width="63.997" height="58.459" viewBox="0 0 63.997 58.459">
  <g id="social-media-integration" transform="translate(-1.001 -3.771)">
    <path id="Path_4867" data-name="Path 4867" d="M9.733,44.833a14.729,14.729,0,0,0,1.757.451c2.352,10.079,2.326,13.483,4.771,15.67a5.383,5.383,0,0,0,7.538-.567h0c1.976-2.505,1.3-5.607.581-14.946a14.819,14.819,0,0,1,3.975.684c7.7,2.538,11.937,12.585,20.885,12.585a8.2,8.2,0,0,0,5.908-2.229c2.453-2.453,2.736-6.15,2.815-9.726l.175-7.059c2.87-.66,6.858-4.681,6.86-8.68a6.643,6.643,0,0,0-6.482-6.6c.258-11.482.774-14.92-1.546-17.852C55.176,4.289,51.794,3.285,48.359,4c-4.42.919-7.868,3.764-11.441,6.5C23.565,20.6,12.182,16.03,4.663,23.666a12.837,12.837,0,0,0,5.07,21.167ZM2.429,29.6l.492.492-.759.758A12.464,12.464,0,0,1,2.429,29.6Zm-.291,1.879a.249.249,0,0,0,.177-.073l.96-.96,1.2,1.2L3.185,32.943l-.93-.93a.237.237,0,0,0-.2-.062c.011-.163.025-.325.043-.488C2.109,31.466,2.121,31.482,2.138,31.482ZM2,32.469l.827.827-.755.755A11.77,11.77,0,0,1,2,32.469Zm.175,2.186,1.006-1.006,1.68,1.68L3.753,36.441l-.84-.84a.25.25,0,0,0-.354.354l.84.84-.458.458a11.208,11.208,0,0,1-.633-1.829C2.248,35.171,2.221,34.912,2.179,34.655Zm.986,3.081.588-.588,1.621,1.621-.976.976A11.963,11.963,0,0,1,3.165,37.736Zm1.549,2.4,1.014-1.013,1.561,1.561L6.253,41.72A12.319,12.319,0,0,1,4.714,40.136Zm6.156,1.089-.512-.512.881-.881a.235.235,0,0,0,.054.13l1.08,1.08L10.214,43.2l-1.079-1.08A.235.235,0,0,0,9,42.067l1-1,.512.512a.249.249,0,1,0,.352-.353Zm1.44,1.31.75.75-1.082,1.082c-.268-.049-.516-.106-.763-.163l-.649-.649L12.725,41.4l1.112,1.112-.424.424-.75-.75a.25.25,0,1,0-.353.353Zm2.243,3.088c.136.055.054.045.168,0h.045l.161.161-.969.97L12.68,45.48C13,45.521,13.938,45.6,14.553,45.623Zm4.5.627-.687-.687c.8-.041,1.3-.063,1.3-.063l.068.068Zm-2.6.353-.954-.954c.074,0,.148,0,.222,0,.463,0,1.532-.03,1.729-.038Zm2.282-2.06.754-.754.684.684C20.122,44.475,19.008,44.528,18.731,44.543Zm-2.972.1,1.1-1.1,1.006,1.006c.018.018.043.015.065.027C17.2,44.616,16.481,44.641,15.759,44.644Zm-2.442,3.107a.25.25,0,0,0,.354,0l.286-.286.649.649a.247.247,0,0,0-.18.072l-.689.689-.537-.537c-.151-.7-.309-1.4-.466-2.1l.87.87-.286.286A.25.25,0,0,0,13.317,47.751Zm.5,3.5.443.443-.287.287C13.927,51.741,13.873,51.5,13.822,51.254ZM8.091,42.981l.636-.636a.235.235,0,0,0,.054.13l1.079,1.08-.178.178A11.439,11.439,0,0,1,8.091,42.981Zm2.123.927.033.033-.051-.015ZM7.642,42.722a11.889,11.889,0,0,1-.987-.7L7.728,40.95a.181.181,0,0,0,.18-.18l.9-.9.843.843ZM23.015,59.767a4.384,4.384,0,0,1-6.087.441c-1.676-1.5-2.048-3.99-2.824-7.642l.516-.516.444.444a.25.25,0,0,0,.354-.354l-.444-.444.643-.643a.25.25,0,0,0-.354-.354l-.643.643-.988-.988-.117-.551.224-.224.648.648a.25.25,0,0,0,.354-.354l-.648-.648.689-.689a.238.238,0,0,0,.031-.279c.089.031.152.061.254-.041a.25.25,0,0,0,0-.354l-.754-.754.969-.97.815.815L16.053,47a.25.25,0,1,0,.354.354l.109-.109a.244.244,0,0,0,.158-.066.251.251,0,0,0,.066-.158l1.189-1.189.771.771-.044.044A.25.25,0,0,0,19.01,47l.167-.167c.025-.012.055-.01.076-.031s.019-.051.031-.076l.806-.806.34.34a.25.25,0,0,0,.354-.354l-.34-.34.109-.109c.276-.013.55-.029.827-.038H21.4l.3.3-.441.441a.25.25,0,1,0,.354.354l.441-.441.444.444a.25.25,0,1,0,.354-.354l-.444-.444.309-.309c.221,0,.443-.005.663,0C24.078,54.632,24.715,57.612,23.015,59.767Zm26.527-2.059c.008-.006.019,0,.026-.011l1.079-1.079.423.423a.25.25,0,0,0,.354-.354L51,56.264l.99-.99.464.464-.495.495a.25.25,0,1,0,.354.354l.495-.495.151.151a.25.25,0,0,0,.354-.354l-.151-.151,1.019-1.019.536.536a.233.233,0,0,0,.118.049,6.036,6.036,0,0,1-.393.47A7.106,7.106,0,0,1,49.542,57.708Zm4.641-4.979a.25.25,0,0,0-.354,0l-.467.467-.989-.989.756-.756,1.807,1.807-.756.756-.464-.464.467-.467A.25.25,0,0,0,54.183,52.729Zm.288-.871a.25.25,0,0,0,.354,0l.319-.319.433.433a.25.25,0,0,0,.354-.354l-.433-.433,1.171-1.17a.237.237,0,0,0,.059-.21.21.21,0,0,0,.062-.026,13.068,13.068,0,0,1-.882,3.743l-.313-.313a.238.238,0,0,0-.256-.256L53.484,51.1l.61-.61.7.7-.319.319A.249.249,0,0,0,54.471,51.858Zm3.7-13.4c.014-.61.031-1.22.045-1.829l.27-.27.892.892ZM59.73,37.6l.166.166a7.02,7.02,0,0,1-.883.552Zm-1.5-1.7.051-2.065.086-.086.889.889a.248.248,0,0,0,.167.069Zm.107-2.89c-.01-.01-.024-.007-.034-.014q.017-.645.032-1.29l.264-.264.6.6a.241.241,0,0,0,.12.05l-.95.95ZM56.968,46.531l-.005.2c-.005.233-.015.466-.022.7l-.011-.011c-.012-.03-.012-.064-.037-.088s-.058-.024-.088-.037l-.637-.637.464-.464Zm-.052,1.583q-.031.663-.089,1.317c-.005-.005,0-.013-.008-.019l-.826-.826.7-.7Zm-3.089,6.253-1.019,1.019-.464-.464L53.363,53.9Zm1.276.616c-.012-.027-.011-.058-.033-.08l-.536-.536.756-.756.4.4A7.187,7.187,0,0,1,55.1,54.983ZM64,31.011v0c0,2.528-1.735,4.854-3.7,6.451l-.214-.214.962-.962a.25.25,0,0,0-.354-.354l-.962.962-.892-.892,1.338-1.338a.25.25,0,0,0-.354-.354l-.141.141a.25.25,0,0,0-.069-.167l-.889-.889,1.415-1.415a.25.25,0,0,0-.354-.354l-.182.182a.241.241,0,0,0-.05-.12l-.6-.6.331-.331a.25.25,0,0,0-.354-.354l-.33.333-.169-.169c-.018-.018-.044-.016-.066-.027.007-.3.015-.59.022-.886a.236.236,0,0,0,.19-.079l.539.539a.25.25,0,1,0,.354-.354l-.539-.539.265-.265a.25.25,0,1,0-.354-.354l-.265.265-.166-.167q.042-1.656.082-3.312A5.677,5.677,0,0,1,64,31.011ZM56.185,7.181c2.229,2.817,1.592,4.881.962,32.11L57,45.247a.24.24,0,0,0-.193.067l-.175.175-.466-.465a.25.25,0,0,0-.354.354l.466.465-.513.513a.243.243,0,0,0-.186.07.25.25,0,0,0,0,.354l.757.757-.7.7-.349-.349a.25.25,0,0,0-.354.354l1.41,1.41c-.01.007-.024.005-.033.014l-1.171,1.17-.7-.7.875-.874a.25.25,0,1,0-.354-.354l-.875.874-.2-.2a.25.25,0,1,0-.354.354l.2.2-.61.61-.7-.7a.25.25,0,0,0-.354.354l.7.7-.756.756-.582-.582a.25.25,0,1,0-.354.354l.582.582-.349.349a.25.25,0,0,0,.354.354l.349-.349.99.99-1.019,1.019L50.617,53.2a.25.25,0,0,0-.354.354l1.37,1.371-.99.99-.611-.612a.25.25,0,1,0-.354.354l.611.612-.941.941a447.175,447.175,0,0,1,1.1-52.428A7.059,7.059,0,0,1,56.185,7.181ZM5.377,24.366c7.147-7.258,18.663-2.874,32.145-13.075,3.489-2.672,6.858-5.447,11.04-6.316.28-.058.576-.1.882-.137a448.044,448.044,0,0,0-1.077,52.835c-7.914-.689-12.03-9.972-19.7-12.5a16.249,16.249,0,0,0-4.813-.764c-.068,0-.137,0-.2,0l.6-.6a.25.25,0,1,0-.354-.354l-.616.616-1.05-1.049a.25.25,0,1,0-.354.354L22.9,44.395l-.124,0c-.148,0-1.724.037-1.785.04l.734-.734a.25.25,0,0,0-.354-.354l-.813.813-.723-.723.308-.308a.25.25,0,0,0-.354-.354l-.308.308L19,42.6a.25.25,0,0,0-.354.354l.481.481-.875.875a.241.241,0,0,0-.044-.107L17.207,43.2l.432-.432a.25.25,0,0,0-.354-.354l-.432.432-.84-.84a.25.25,0,1,0-.354.354l.84.84-1.436,1.436a15.057,15.057,0,0,1-2.457-.186l.806-.806.484.484a.25.25,0,0,0,.354-.354l-.484-.484.424-.424.485.485a.25.25,0,0,0,.354-.354l-.485-.485,1.014-1.014a.25.25,0,1,0-.354-.354L14.19,42.155l-1.112-1.112.967-.967a.25.25,0,1,0-.354-.354l-.967.967-1.08-1.08a.235.235,0,0,0-.13-.054l.343-.343a.25.25,0,0,0-.354-.354l-1.5,1.5-.843-.843.872-.872a.25.25,0,0,0-.354-.354l-.872.872L7.516,37.873a.25.25,0,0,0-.354.354l1.289,1.289-.81.814L6.08,38.769l2.114-2.113A.25.25,0,0,0,7.84,36.3L5.726,38.415,4.1,36.794l1.112-1.112.7.7a.25.25,0,0,0,.354-.354l-.7-.7,1.074-1.074a.25.25,0,0,0-.354-.354L5.218,34.976,3.538,33.3,4.83,32l.27.271a.25.25,0,0,0,.354-.354L3.628,30.1l.788-.788a.25.25,0,1,0-.354-.354l-.788.788L2.6,29.068A11.862,11.862,0,0,1,5.377,24.366Z" fill="#000c1e"/>
    <path id="Path_4868" data-name="Path 4868" d="M13.28,23a.151.151,0,0,0,.03,0q1.333-.159,2.683-.327l.482,1.157a.25.25,0,1,0,.462-.192l-.429-1.03q1.718-.219,3.441-.48l.324.8a.25.25,0,1,0,.463-.187l-.28-.691c1.481-.234,2.959-.5,4.425-.826a5.554,5.554,0,0,0,.869,1.268.25.25,0,1,0,.369-.337,5.087,5.087,0,0,1-.734-1.053A39.185,39.185,0,0,0,29.3,20.019l.409,1.172a.25.25,0,0,0,.471-.165l-.407-1.166c1.079-.364,2.121-.758,3.109-1.193l.44,1.1a.25.25,0,1,0,.465-.185l-.451-1.133a31.222,31.222,0,0,0,3.122-1.636,4.674,4.674,0,0,0,1.048.859.25.25,0,1,0,.256-.43,4.193,4.193,0,0,1-.872-.7,25.994,25.994,0,0,0,2.8-2.017l.913,1.036a.25.25,0,1,0,.375-.331l-.91-1.033a23.12,23.12,0,0,0,1.951-1.875.25.25,0,1,0-.369-.337,22.507,22.507,0,0,1-1.912,1.837l-.921-1.045a.25.25,0,1,0-.375.331l.918,1.041a25.584,25.584,0,0,1-2.79,2,4.158,4.158,0,0,1-.466-.762.25.25,0,0,0-.455.207,4.614,4.614,0,0,0,.5.824,30.776,30.776,0,0,1-2.994,1.564l-.254-.638a.25.25,0,0,0-.465.185l.265.665c-.981.432-2.016.824-3.089,1.186l-.3-.854a.25.25,0,0,0-.471.165l.3.847a39.274,39.274,0,0,1-3.963,1.091,5.1,5.1,0,0,1-.288-.924.25.25,0,1,0-.49.1,5.574,5.574,0,0,0,.285.943c-1.463.323-2.94.587-4.42.82l-.441-1.088a.25.25,0,1,0-.463.187l.4.979q-1.725.262-3.448.477l-.367-.881a.25.25,0,1,0-.462.192l.314.754q-1.276.159-2.543.31a.249.249,0,0,0-.218.278A.254.254,0,0,0,13.28,23Z" fill="#000c1e"/>
  </g>
</svg>
