<svg width="470" height="449" viewBox="0 0 470 449" fill="none" xmlns="http://www.w3.org/2000/svg">
<path fill-rule="evenodd" clip-rule="evenodd" d="M469.667 384.334V128.333C469.667 92.9874 441.015 64.3335 405.667 64.3335H243.837L198.583 19.0787C186.58 7.07632 170.301 0.333496 153.327 0.333496H64.334C28.9879 0.333496 0.333984 28.9874 0.333984 64.3335V384.334C0.333984 419.681 28.9879 448.334 64.334 448.334H405.667C441.015 448.334 469.667 419.681 469.667 384.334ZM183.498 34.1637L235.001 85.6668H405.667C429.232 85.6668 448.334 104.769 448.334 128.333V384.334C448.334 407.898 429.232 427 405.667 427H64.334C40.7698 427 21.6673 407.898 21.6673 384.334V64.3335C21.6673 40.7693 40.7698 21.6668 64.334 21.6668H153.327C164.644 21.6668 175.496 26.162 183.498 34.1637ZM299.001 235C299.001 254.721 292.313 272.878 281.079 287.327L338.544 344.79C342.708 348.956 342.708 355.711 338.544 359.877C334.378 364.041 327.624 364.041 323.457 359.877L265.994 302.411C251.545 313.645 233.388 320.334 213.667 320.334C166.539 320.334 128.334 282.128 128.334 235C128.334 187.872 166.539 149.667 213.667 149.667C260.795 149.667 299.001 187.872 299.001 235ZM213.667 299C249.015 299 277.667 270.347 277.667 235C277.667 199.653 249.015 171 213.667 171C178.321 171 149.667 199.653 149.667 235C149.667 270.347 178.321 299 213.667 299Z" fill="#083863"/>
</svg>
