<svg width="450" height="449" viewBox="0 0 450 449" fill="none" xmlns="http://www.w3.org/2000/svg">
<path d="M297.001 448H153.001C144.972 448.394 137.112 445.609 131.122 440.248C125.132 434.888 121.496 427.383 121.001 419.36V337.12C121.987 323.208 128.421 310.247 138.905 301.051C149.39 291.854 163.079 287.165 177.001 288H273.001C286.922 287.165 300.611 291.854 311.096 301.051C321.581 310.247 328.015 323.208 329.001 337.12V419.36C328.505 427.383 324.869 434.888 318.879 440.248C312.89 445.609 305.029 448.394 297.001 448ZM177.001 304C167.327 303.194 157.722 306.21 150.245 312.401C142.768 318.592 138.013 327.465 137.001 337.12V419.36C137.482 423.142 139.427 426.585 142.419 428.948C145.41 431.312 149.21 432.408 153.001 432H297.001C300.792 432.408 304.591 431.312 307.583 428.948C310.574 426.585 312.52 423.142 313.001 419.36V337.12C311.988 327.465 307.234 318.592 299.757 312.401C292.28 306.21 282.675 303.194 273.001 304H177.001ZM225.001 260C216.298 260 207.791 257.419 200.556 252.585C193.32 247.75 187.68 240.878 184.35 232.838C181.02 224.798 180.148 215.951 181.846 207.416C183.544 198.881 187.734 191.041 193.888 184.887C200.042 178.734 207.882 174.543 216.417 172.845C224.952 171.148 233.799 172.019 241.839 175.349C249.879 178.68 256.751 184.319 261.585 191.555C266.42 198.791 269.001 207.298 269.001 216C269.001 227.67 264.365 238.861 256.113 247.113C247.862 255.364 236.67 260 225.001 260ZM225.001 188C219.463 188 214.049 189.642 209.445 192.719C204.84 195.796 201.251 200.169 199.132 205.285C197.013 210.401 196.458 216.031 197.539 221.463C198.619 226.894 201.286 231.883 205.202 235.799C209.118 239.715 214.107 242.382 219.538 243.462C224.97 244.542 230.6 243.988 235.716 241.869C240.832 239.749 245.205 236.161 248.282 231.556C251.359 226.951 253.001 221.538 253.001 216C252.959 208.587 249.995 201.489 244.753 196.247C239.511 191.006 232.414 188.042 225.001 188ZM113.001 208C111.663 207.987 110.347 207.658 109.161 207.04L73.0007 187.2L37.3207 207.04C36.0429 207.817 34.5762 208.228 33.0807 208.228C31.5852 208.228 30.1185 207.817 28.8407 207.04C27.5981 206.183 26.6232 204.992 26.0287 203.605C25.4341 202.218 25.2442 200.691 25.4807 199.2L33.0007 156.32L3.2407 126.4C2.15542 125.41 1.37 124.136 0.973956 122.721C0.577916 121.307 0.587182 119.809 1.0007 118.4C1.4458 117.01 2.26247 115.769 3.36234 114.81C4.46221 113.851 5.80338 113.212 7.2407 112.96L47.2407 106.88L65.8007 68.64C66.5317 67.3777 67.5816 66.3298 68.8453 65.6013C70.109 64.8727 71.542 64.4893 73.0007 64.4893C74.4594 64.4893 75.8924 64.8727 77.1561 65.6013C78.4198 66.3298 79.4698 67.3777 80.2007 68.64L98.2807 106.88L138.281 112.96C139.804 113.128 141.248 113.73 142.439 114.694C143.63 115.658 144.519 116.945 145.001 118.4C145.473 119.766 145.559 121.236 145.249 122.648C144.938 124.06 144.243 125.358 143.241 126.4L113.001 156.32L120.041 198.72C120.277 200.211 120.087 201.738 119.493 203.125C118.898 204.512 117.923 205.703 116.681 206.56C115.587 207.329 114.325 207.823 113.001 208ZM73.0007 170.08C74.3647 170.055 75.7041 170.446 76.8407 171.2L101.961 184.96L97.0007 155.04C96.76 153.811 96.8236 152.541 97.1862 151.342C97.5487 150.143 98.1991 149.05 99.0807 148.16L120.361 126.4L91.5607 122.08C90.2657 121.866 89.0398 121.348 87.9831 120.57C86.9264 119.791 86.0689 118.773 85.4807 117.6L73.0007 90.88L60.5207 117.6C59.9325 118.773 59.075 119.791 58.0183 120.57C56.9616 121.348 55.7357 121.866 54.4407 122.08L25.6407 126.4L46.7607 148.16C47.6423 149.05 48.2927 150.143 48.6552 151.342C49.0178 152.541 49.0814 153.811 48.8407 155.04L44.0407 184.96L69.1607 171.2C70.2973 170.446 71.6367 170.055 73.0007 170.08ZM417.001 208C415.663 207.987 414.347 207.658 413.161 207.04L377.001 187.2L341.321 207.04C340.043 207.817 338.576 208.228 337.081 208.228C335.585 208.228 334.118 207.817 332.841 207.04C331.598 206.183 330.623 204.992 330.029 203.605C329.434 202.218 329.244 200.691 329.481 199.2L337.001 156.32L307.241 126.4C306.155 125.41 305.37 124.136 304.974 122.721C304.578 121.307 304.587 119.809 305.001 118.4C305.446 117.01 306.262 115.769 307.362 114.81C308.462 113.851 309.803 113.212 311.241 112.96L351.241 106.88L369.321 68.64C370.052 67.3777 371.102 66.3298 372.365 65.6013C373.629 64.8727 375.062 64.4893 376.521 64.4893C377.979 64.4893 379.412 64.8727 380.676 65.6013C381.94 66.3298 382.99 67.3777 383.721 68.64L401.801 106.88L441.801 112.96C443.409 113.037 444.956 113.597 446.241 114.568C447.526 115.539 448.487 116.874 449.001 118.4C449.473 119.766 449.559 121.236 449.249 122.648C448.938 124.06 448.243 125.358 447.241 126.4L417.001 156.32L424.041 198.72C424.277 200.211 424.087 201.738 423.493 203.125C422.898 204.512 421.923 205.703 420.681 206.56C419.587 207.329 418.325 207.823 417.001 208ZM377.001 170.08C378.365 170.055 379.704 170.446 380.841 171.2L405.961 184.96L401.001 155.04C400.76 153.811 400.824 152.541 401.186 151.342C401.549 150.143 402.199 149.05 403.081 148.16L424.361 126.4L395.561 122.08C394.266 121.866 393.04 121.348 391.983 120.57C390.926 119.791 390.069 118.773 389.481 117.6L377.001 90.88L364.521 117.6C363.932 118.773 363.075 119.791 362.018 120.57C360.962 121.348 359.736 121.866 358.441 122.08L329.641 126.4L350.761 148.16C351.642 149.05 352.293 150.143 352.655 151.342C353.018 152.541 353.081 153.811 352.841 155.04L348.041 184.96L373.161 171.2C374.297 170.446 375.637 170.055 377.001 170.08ZM264.521 144C263.183 143.987 261.867 143.658 260.681 143.04L225.001 123.2L189.321 143.04C188.043 143.817 186.576 144.228 185.081 144.228C183.585 144.228 182.118 143.817 180.841 143.04C179.598 142.183 178.623 140.992 178.029 139.605C177.434 138.218 177.244 136.691 177.481 135.2L184.521 92.8L155.241 62.4C154.238 61.3584 153.543 60.06 153.233 58.6482C152.922 57.2364 153.008 55.7662 153.481 54.4C153.926 53.0104 154.742 51.769 155.842 50.8102C156.942 49.8513 158.283 49.2115 159.721 48.96L199.721 42.88L217.801 4.64004C218.532 3.37774 219.582 2.32979 220.845 1.60126C222.109 0.872744 223.542 0.489258 225.001 0.489258C226.459 0.489258 227.892 0.872744 229.156 1.60126C230.42 2.32979 231.47 3.37774 232.201 4.64004L250.281 42.88L290.281 48.96C291.718 49.2115 293.059 49.8513 294.159 50.8102C295.259 51.769 296.076 53.0104 296.521 54.4C296.993 55.7662 297.079 57.2364 296.769 58.6482C296.458 60.06 295.763 61.3584 294.761 62.4L265.481 92.32L273.001 134.72C273.237 136.211 273.047 137.738 272.453 139.125C271.858 140.512 270.883 141.703 269.641 142.56C268.138 143.587 266.339 144.093 264.521 144ZM225.001 106.08C226.365 106.055 227.704 106.446 228.841 107.2L253.961 120.96L249.161 91.04C248.92 89.8106 248.984 88.5409 249.346 87.3417C249.709 86.1425 250.359 85.0502 251.241 84.16L273.001 62.4L244.201 58.08C242.906 57.8658 241.68 57.3483 240.623 56.5696C239.566 55.791 238.709 54.7734 238.121 53.6L225.001 26.88L212.521 53.6C211.932 54.7734 211.075 55.791 210.018 56.5696C208.962 57.3483 207.736 57.8658 206.441 58.08L177.001 62.4L198.121 84.16C199.002 85.0502 199.653 86.1425 200.015 87.3417C200.378 88.5409 200.441 89.8106 200.201 91.04L195.401 120.96L220.521 107.2C221.835 106.309 223.422 105.912 225.001 106.08Z" fill="#083863"/>
<path d="M225 416C223.951 416.013 222.911 415.806 221.946 415.392C220.982 414.979 220.114 414.369 219.4 413.6L195.4 389.6C194.646 388.874 194.046 388.004 193.634 387.043C193.222 386.081 193.006 385.046 193 384L201 296C201.212 293.878 202.259 291.928 203.909 290.577C205.559 289.227 207.678 288.588 209.8 288.8C211.922 289.012 213.872 290.058 215.223 291.709C216.573 293.359 217.212 295.478 217 297.6L209 380.96L225 396.96L241 380.96L233.32 296.8C233.233 295.715 233.364 294.624 233.705 293.59C234.046 292.557 234.59 291.602 235.306 290.782C236.022 289.962 236.894 289.293 237.872 288.816C238.85 288.338 239.913 288.061 241 288C243.115 287.82 245.217 288.471 246.86 289.815C248.503 291.159 249.558 293.091 249.8 295.2L257 384C257.109 385.179 256.95 386.367 256.534 387.475C256.119 388.584 255.457 389.584 254.6 390.4L230.6 414.4C229.82 415.026 228.923 415.489 227.961 415.764C227 416.039 225.993 416.119 225 416Z" fill="#083863"/>
</svg>
