<svg width="448" height="320" viewBox="0 0 448 320" fill="none" xmlns="http://www.w3.org/2000/svg">
<path d="M368 96H320V48C320 35.2696 314.943 23.0606 305.941 14.0589C296.939 5.05713 284.73 0 272 0H48C35.2696 0 23.0606 5.05713 14.0589 14.0589C5.05713 23.0606 0 35.2696 0 48V272C0 276.243 1.68571 280.313 4.68629 283.314C7.68687 286.314 11.7565 288 16 288H66.88C70.2433 297.266 76.3781 305.273 84.4506 310.931C92.5232 316.588 102.142 319.624 112 319.624C121.858 319.624 131.477 316.588 139.549 310.931C147.622 305.273 153.757 297.266 157.12 288H322.88C326.243 297.266 332.378 305.273 340.451 310.931C348.523 316.588 358.142 319.624 368 319.624C377.858 319.624 387.477 316.588 395.549 310.931C403.622 305.273 409.757 297.266 413.12 288H432C436.243 288 440.313 286.314 443.314 283.314C446.314 280.313 448 276.243 448 272V176C448 154.783 439.571 134.434 424.569 119.431C409.566 104.429 389.217 96 368 96ZM112 288C108.835 288 105.742 287.062 103.111 285.304C100.48 283.545 98.4289 281.047 97.2179 278.123C96.0069 275.199 95.6901 271.982 96.3074 268.879C96.9248 265.775 98.4487 262.924 100.686 260.686C102.924 258.449 105.775 256.925 108.879 256.307C111.982 255.69 115.199 256.007 118.123 257.218C121.047 258.429 123.545 260.48 125.304 263.111C127.062 265.742 128 268.835 128 272C128 276.243 126.314 280.313 123.314 283.314C120.313 286.314 116.243 288 112 288ZM288 256H157.12C153.757 246.734 147.622 238.727 139.549 233.069C131.477 227.412 121.858 224.376 112 224.376C102.142 224.376 92.5232 227.412 84.4506 233.069C76.3781 238.727 70.2433 246.734 66.88 256H32V208H288V256ZM288 176H32V48C32 43.7565 33.6857 39.6869 36.6863 36.6863C39.6869 33.6857 43.7565 32 48 32H272C276.243 32 280.313 33.6857 283.314 36.6863C286.314 39.6869 288 43.7565 288 48V176ZM368 288C364.835 288 361.742 287.062 359.111 285.304C356.48 283.545 354.429 281.047 353.218 278.123C352.007 275.199 351.69 271.982 352.307 268.879C352.925 265.775 354.449 262.924 356.686 260.686C358.924 258.449 361.775 256.925 364.879 256.307C367.982 255.69 371.199 256.007 374.123 257.218C377.047 258.429 379.545 260.48 381.304 263.111C383.062 265.742 384 268.835 384 272C384 276.243 382.314 280.313 379.314 283.314C376.313 286.314 372.243 288 368 288ZM416 256H413.12C409.757 246.734 403.622 238.727 395.549 233.069C387.477 227.412 377.858 224.376 368 224.376C358.142 224.376 348.523 227.412 340.451 233.069C332.378 238.727 326.243 246.734 322.88 256H320V128H336V192C336 196.243 337.686 200.313 340.686 203.314C343.687 206.314 347.757 208 352 208H416V256ZM368 176V128C380.73 128 392.939 133.057 401.941 142.059C410.943 151.061 416 163.27 416 176H368Z" fill="#083863"/>
</svg>
