<svg width="512" height="512" viewBox="0 0 512 512" fill="none" xmlns="http://www.w3.org/2000/svg">
<g clip-path="url(#clip0_435_68)">
<path d="M72.7153 501.493C67.4353 501.493 62.4967 499.467 58.806 495.787C57.0737 494.069 55.6983 492.025 54.7592 489.774C53.8201 487.522 53.3357 485.107 53.334 482.667V221.333C53.334 210.955 62.0273 202.507 72.726 202.507H439.265C449.963 202.507 458.657 210.955 458.657 221.333V482.432C458.657 492.811 449.963 501.259 439.265 501.259L72.7366 501.493H72.7153ZM74.6673 223.84V480.15L437.334 479.915V223.84H74.6673Z" fill="#083863"/>
<path d="M384.011 458.539C381.182 458.539 378.469 457.415 376.468 455.414C374.468 453.414 373.344 450.701 373.344 447.872V405.184C373.344 402.355 374.468 399.642 376.468 397.642C378.469 395.641 381.182 394.517 384.011 394.517C386.84 394.517 389.553 395.641 391.553 397.642C393.554 399.642 394.677 402.355 394.677 405.184V447.872C394.677 450.701 393.554 453.414 391.553 455.414C389.553 457.415 386.84 458.539 384.011 458.539ZM322.347 341.195C318.375 341.197 314.498 339.987 311.232 337.728L310.816 337.429L256 295.605L201.184 337.429C194.731 341.877 186.933 342.325 180.427 338.912C177.514 337.425 175.064 335.168 173.343 332.387C171.623 329.606 170.697 326.406 170.667 323.136V202.485H341.333V323.147C341.333 329.707 337.589 335.755 331.573 338.912C328.661 340.437 325.493 341.195 322.347 341.195ZM192 223.819V317.621L243.925 277.984C247.416 275.383 251.652 273.977 256.005 273.977C260.358 273.977 264.595 275.383 268.085 277.984L320 317.6V223.819H192ZM160 415.84H106.667C103.838 415.84 101.125 414.716 99.1242 412.716C97.1238 410.715 96 408.002 96 405.173C96 402.344 97.1238 399.631 99.1242 397.631C101.125 395.63 103.838 394.507 106.667 394.507H160C162.829 394.507 165.542 395.63 167.542 397.631C169.543 399.631 170.667 402.344 170.667 405.173C170.667 408.002 169.543 410.715 167.542 412.716C165.542 414.716 162.829 415.84 160 415.84ZM160 458.507H106.667C103.838 458.507 101.125 457.383 99.1242 455.382C97.1238 453.382 96 450.669 96 447.84C96 445.011 97.1238 442.298 99.1242 440.298C101.125 438.297 103.838 437.173 106.667 437.173H160C162.829 437.173 165.542 438.297 167.542 440.298C169.543 442.298 170.667 445.011 170.667 447.84C170.667 450.669 169.543 453.382 167.542 455.382C165.542 457.383 162.829 458.507 160 458.507Z" fill="#083863"/>
<path d="M479.68 223.84H32.3201C28.5976 223.866 24.9321 222.926 21.6812 221.113C18.4302 219.299 15.7047 216.674 13.7707 213.493C11.8735 210.41 10.8083 206.888 10.6793 203.271C10.5503 199.653 11.3619 196.064 13.0347 192.853L51.7121 127.627C53.6128 124.452 56.3017 121.822 59.5181 119.992C62.7345 118.163 66.3691 117.195 70.0694 117.184H441.92C449.419 117.184 456.437 121.184 460.267 127.627L498.667 192.299C502.379 199.445 502.101 207.168 498.24 213.504C496.301 216.682 493.573 219.304 490.321 221.116C487.069 222.927 483.403 223.865 479.68 223.84ZM441.92 138.507H70.0587L31.6801 203.179L479.669 202.507C479.744 202.507 479.947 202.507 480.011 202.379L441.92 138.507ZM362.667 437.173C360.555 437.178 358.49 436.555 356.733 435.384C354.976 434.213 353.606 432.546 352.798 430.595C351.99 428.644 351.78 426.497 352.194 424.427C352.609 422.356 353.629 420.455 355.125 418.965L376.459 397.632C378.459 395.632 381.172 394.508 384 394.508C386.829 394.508 389.541 395.632 391.541 397.632C393.542 399.632 394.665 402.345 394.665 405.173C394.665 408.002 393.542 410.715 391.541 412.715L370.208 434.048C369.22 435.042 368.045 435.83 366.751 436.366C365.456 436.903 364.068 437.177 362.667 437.173Z" fill="#083863"/>
<path d="M405.332 437.173C403.932 437.175 402.544 436.899 401.25 436.363C399.956 435.827 398.78 435.04 397.791 434.048L376.458 412.715C375.467 411.724 374.682 410.549 374.146 409.255C373.61 407.961 373.334 406.574 373.334 405.173C373.334 403.773 373.61 402.386 374.146 401.092C374.682 399.798 375.467 398.622 376.458 397.632C377.448 396.642 378.624 395.856 379.918 395.32C381.212 394.784 382.599 394.508 383.999 394.508C385.4 394.508 386.787 394.784 388.08 395.32C389.374 395.856 390.55 396.642 391.54 397.632L412.874 418.965C414.37 420.455 415.39 422.356 415.805 424.426C416.219 426.497 416.009 428.644 415.201 430.595C414.393 432.546 413.024 434.213 411.266 435.384C409.509 436.555 407.444 437.178 405.332 437.173ZM298.676 458.539C295.847 458.539 293.134 457.415 291.134 455.415C289.134 453.414 288.01 450.701 288.01 447.872V405.184C288.01 402.355 289.134 399.642 291.134 397.642C293.134 395.641 295.847 394.517 298.676 394.517C301.505 394.517 304.219 395.641 306.219 397.642C308.219 399.642 309.343 402.355 309.343 405.184V447.872C309.343 450.701 308.219 453.414 306.219 455.415C304.219 457.415 301.505 458.539 298.676 458.539Z" fill="#083863"/>
<path d="M277.334 437.173C275.222 437.178 273.157 436.555 271.4 435.384C269.643 434.213 268.273 432.546 267.465 430.595C266.657 428.644 266.447 426.497 266.861 424.426C267.276 422.356 268.296 420.455 269.793 418.965L291.126 397.632C292.116 396.642 293.292 395.856 294.586 395.32C295.88 394.784 297.267 394.508 298.667 394.508C300.068 394.508 301.455 394.784 302.749 395.32C304.042 395.856 305.218 396.642 306.209 397.632C307.199 398.622 307.984 399.798 308.52 401.092C309.056 402.386 309.332 403.773 309.332 405.173C309.332 406.574 309.056 407.961 308.52 409.255C307.984 410.549 307.199 411.724 306.209 412.715L284.875 434.048C283.887 435.042 282.712 435.83 281.418 436.366C280.123 436.903 278.735 437.177 277.334 437.173Z" fill="#083863"/>
<path d="M320.001 437.174C318.6 437.175 317.212 436.9 315.918 436.363C314.624 435.827 313.449 435.04 312.459 434.048L291.126 412.715C290.136 411.725 289.35 410.549 288.814 409.255C288.278 407.961 288.002 406.574 288.002 405.174C288.002 403.773 288.278 402.386 288.814 401.092C289.35 399.798 290.136 398.623 291.126 397.632C292.116 396.642 293.292 395.856 294.586 395.32C295.88 394.784 297.267 394.508 298.667 394.508C300.068 394.508 301.455 394.784 302.749 395.32C304.043 395.856 305.218 396.642 306.209 397.632L327.542 418.966C329.039 420.455 330.059 422.356 330.473 424.427C330.887 426.497 330.677 428.644 329.869 430.595C329.061 432.546 327.692 434.213 325.935 435.384C324.178 436.555 322.112 437.178 320.001 437.174ZM256.001 95.8402C253.172 95.8402 250.459 94.7164 248.458 92.716C246.458 90.7156 245.334 88.0025 245.334 85.1735V21.1735C245.334 18.3445 246.458 15.6314 248.458 13.631C250.459 11.6306 253.172 10.5068 256.001 10.5068C258.83 10.5068 261.543 11.6306 263.543 13.631C265.544 15.6314 266.667 18.3445 266.667 21.1735V85.1735C266.667 88.0025 265.544 90.7156 263.543 92.716C261.543 94.7164 258.83 95.8402 256.001 95.8402Z" fill="#083863"/>
<path d="M277.332 53.1734C275.931 53.1748 274.544 52.8994 273.25 52.3631C271.956 51.8268 270.78 51.04 269.791 50.048L248.458 28.7147C246.458 26.7146 245.334 24.0019 245.334 21.1734C245.334 18.3448 246.458 15.6321 248.458 13.632C250.458 11.6319 253.17 10.5083 255.999 10.5083C258.828 10.5083 261.54 11.6319 263.54 13.632L284.874 34.9654C286.37 36.4551 287.39 38.3559 287.805 40.4265C288.219 42.497 288.009 44.644 287.201 46.5949C286.393 48.5459 285.023 50.2127 283.266 51.384C281.509 52.5552 279.444 53.178 277.332 53.1734Z" fill="#083863"/>
<path d="M234.666 53.1734C232.554 53.178 230.489 52.5552 228.732 51.384C226.975 50.2127 225.605 48.5459 224.797 46.5949C223.989 44.644 223.779 42.497 224.193 40.4265C224.608 38.3559 225.628 36.4551 227.125 34.9654L248.458 13.632C250.458 11.6319 253.171 10.5083 255.999 10.5083C258.828 10.5083 261.54 11.6319 263.541 13.632C265.541 15.6321 266.664 18.3448 266.664 21.1734C266.664 24.0019 265.541 26.7146 263.541 28.7147L242.207 50.048C241.219 51.0419 240.044 51.8299 238.75 52.3664C237.455 52.9029 236.067 53.1771 234.666 53.1734Z" fill="#083863"/>
</g>
<defs>
<clipPath id="clip0_435_68">
<rect width="512" height="512" fill="white"/>
</clipPath>
</defs>
</svg>
