<svg width="512" height="340" viewBox="0 0 512 340" fill="none" xmlns="http://www.w3.org/2000/svg">
<path d="M457 0H169C138.672 0 114 24.6719 114 55V64H55C24.6719 64 0 88.6719 0 119V284.332C0 314.66 24.6719 339.332 55 339.332H343C373.328 339.332 398 314.66 398 284.332V275.332H457C487.328 275.332 512 250.66 512 220.332V55C512 24.6719 487.328 0 457 0ZM457 245.336H398V168.668H482V220.336C482 234.117 470.785 245.336 457 245.336ZM343 309.336H55C41.2148 309.336 30 298.117 30 284.336V119C30 105.215 41.2148 94 55 94H343C356.785 94 368 105.215 368 119V284.332C368 298.117 356.785 309.336 343 309.336ZM391.965 94H482V138.668H398V119C398 110 395.812 101.508 391.965 94ZM343 64H144V55C144 41.2148 155.215 30 169 30H457C470.785 30 482 41.2148 482 55V64H343Z" fill="#083863"/>
</svg>
