<svg width="396" height="430" viewBox="0 0 396 430" fill="none" xmlns="http://www.w3.org/2000/svg">
<path d="M314.303 387.472C310.735 387.472 307.839 390.36 307.839 394.024V396.72C307.839 407.328 299.055 416.208 288.351 416.208H32.6153C21.9113 416.208 13.1353 407.336 13.1353 396.72V78.296C13.1353 67.496 21.9113 58.816 32.6153 58.816H89.0313V65.184C89.0313 75.984 97.7113 84.856 108.511 84.856H212.471C223.175 84.856 231.951 75.984 231.951 65.184V58.816H288.367C299.071 58.816 307.855 67.496 307.855 78.296V141.944C307.855 145.608 310.743 148.504 314.319 148.504C317.983 148.504 320.871 145.608 320.871 141.944V78.296C320.871 60.36 306.311 45.896 288.367 45.896H231.951V39.336C231.951 28.536 223.175 19.856 212.471 19.856H185.559C182.663 8.67198 172.543 0.375977 160.487 0.375977C148.431 0.375977 138.303 8.67198 135.415 19.856H108.511C97.7113 19.856 89.0313 28.536 89.0313 39.336V45.896H32.6153C14.6793 45.896 0.111328 60.36 0.111328 78.296V396.72C0.111328 414.656 14.6713 429.128 32.6153 429.128H288.359C306.295 429.128 320.863 414.656 320.863 396.72V394.024C320.855 390.36 317.967 387.472 314.303 387.472ZM160.487 13.296C167.623 13.296 173.503 19.08 173.503 26.216C173.503 33.544 167.623 39.328 160.487 39.328C153.351 39.328 147.471 33.544 147.471 26.216C147.471 19.08 153.351 13.296 160.487 13.296ZM101.951 39.336C101.951 35.672 104.943 32.776 108.511 32.776H135.415C138.303 43.96 148.431 52.264 160.487 52.264C172.543 52.264 182.663 43.968 185.559 32.776H212.463C216.023 32.776 218.927 35.672 218.927 39.336V65.184C218.927 68.848 216.031 71.736 212.463 71.736H108.503C104.935 71.736 101.943 68.848 101.943 65.184L101.951 39.336Z" fill="#083863"/>
<path d="M102.624 125.736C102.624 115.128 93.8479 106.256 83.1439 106.256H63.5679C52.8639 106.256 44.0879 115.128 44.0879 125.736V145.216C44.0879 156.016 52.8639 164.696 63.5679 164.696H83.1439C93.8479 164.696 102.624 156.016 102.624 145.216V125.736ZM89.6079 145.216C89.6079 148.88 86.7199 151.776 83.1439 151.776H63.5679C59.9999 151.776 57.1039 148.88 57.1039 145.216V125.736C57.1039 122.264 59.9919 119.376 63.5679 119.376H83.1439C86.7119 119.376 89.6079 122.264 89.6079 125.736V145.216Z" fill="#083863"/>
<path d="M102.624 216.776C102.624 205.976 93.8479 197.296 83.1439 197.296H63.5679C52.8639 197.296 44.0879 205.976 44.0879 216.776V236.256C44.0879 247.064 52.8639 255.744 63.5679 255.744H83.1439C93.8479 255.744 102.624 247.064 102.624 236.256V216.776ZM89.6079 236.248C89.6079 239.92 86.7199 242.808 83.1439 242.808H63.5679C59.9999 242.808 57.1039 239.92 57.1039 236.248V216.768C57.1039 213.296 59.9919 210.216 63.5679 210.216H83.1439C86.7119 210.216 89.6079 213.304 89.6079 216.768V236.248Z" fill="#083863"/>
<path d="M83.1439 288.144H63.5679C52.8639 288.144 44.0879 297.008 44.0879 307.816V327.296C44.0879 337.904 52.8639 346.776 63.5679 346.776H83.1439C93.8479 346.776 102.624 337.912 102.624 327.296V307.816C102.624 297.008 93.8479 288.144 83.1439 288.144ZM89.6079 327.288C89.6079 330.952 86.7199 333.656 83.1439 333.656H63.5679C59.9999 333.656 57.1039 330.952 57.1039 327.288V307.808C57.1039 304.136 59.9919 301.248 63.5679 301.248H83.1439C86.7119 301.248 89.6079 304.136 89.6079 307.808V327.288Z" fill="#083863"/>
<path d="M276.88 135.576C276.88 131.912 273.896 129.016 270.328 129.016H134.64C131.072 129.016 128.176 131.912 128.176 135.576C128.176 139.24 131.072 141.944 134.64 141.944H270.328C273.896 141.944 276.88 139.24 276.88 135.576Z" fill="#083863"/>
<path d="M134.64 232.976H134.736H198.96C202.624 232.976 205.52 230.08 205.52 226.416C205.52 222.944 202.624 219.856 198.96 219.856L134.64 220.048C131.072 220.048 128.176 222.936 128.176 226.408C128.176 230.08 131.072 232.976 134.64 232.976Z" fill="#083863"/>
<path d="M134.64 324.008H205.52C209.088 324.008 211.984 321.12 211.984 317.456C211.984 313.984 209.096 311.088 205.52 311.088H134.64C131.072 311.088 128.176 313.984 128.176 317.456C128.176 321.12 131.072 324.008 134.64 324.008Z" fill="#083863"/>
<path d="M389.04 219.856H370.616C375.536 213.88 378.52 206.16 378.52 197.68C378.52 178.2 362.704 162.384 343.128 162.384C329.048 162.384 316.904 170.68 311.216 182.64C306.096 177.816 299.352 174.928 291.824 174.928C275.816 174.928 262.799 188.04 262.799 204.056C262.799 209.84 264.536 215.432 267.624 219.872H239.656C235.992 219.872 233.104 222.96 233.104 226.432V262.88C233.104 266.544 235.992 269.44 239.656 269.44H242.84V361.44C242.84 365.104 245.727 367.992 249.303 367.992H379.296C382.864 367.992 385.855 365.104 385.855 361.44V269.44H389.032C392.696 269.44 395.584 266.544 395.584 262.88V226.432C395.592 222.944 392.704 219.856 389.04 219.856ZM382.576 256.504H320.855V232.976H343.128C343.52 232.976 343.807 232.976 344.191 232.976H382.576V256.504ZM320.855 197.68C320.855 185.336 330.888 175.304 343.128 175.304C355.472 175.304 365.504 185.336 365.504 197.68C365.504 209.832 355.76 219.672 343.616 219.856H320.855V204.04V197.68ZM275.728 204.048C275.728 195.176 282.96 187.848 291.832 187.848C300.616 187.848 307.848 195.176 307.848 204.048V219.864H291.256C282.672 219.664 275.728 212.528 275.728 204.048ZM246.128 232.976H291.256C291.448 232.976 291.648 232.976 291.832 232.976H307.848V256.504H246.128V232.976ZM255.855 269.432H307.84V355.064H255.855V269.432ZM372.832 355.064H320.855V269.432H372.832V355.064Z" fill="#083863"/>
</svg>
