<svg width="336" height="384" viewBox="0 0 336 384" fill="none" xmlns="http://www.w3.org/2000/svg">
<path fill-rule="evenodd" clip-rule="evenodd" d="M72 37.3333C72 32.6667 120.17 0 168 0C215.829 0 264 32.6667 264 37.3333C264 53.9733 262.232 63.8272 260.733 69.1936C259.748 72.7147 256.45 74.6667 252.794 74.6667H83.2064C79.5498 74.6667 76.2506 72.7136 75.2672 69.1925C73.7664 63.8251 72 53.9712 72 37.3333ZM152 32C146.109 32 141.333 36.7757 141.333 42.6667C141.333 48.5579 146.109 53.3333 152 53.3333H184C189.89 53.3333 194.667 48.5579 194.667 42.6667C194.667 36.7757 189.89 32 184 32H152ZM83.0698 140.992C47.5466 130.003 56.5109 110.387 70.0661 96H268.906C279.742 109.841 285.557 128.522 252.795 139.705C253.151 142.867 253.333 146.081 253.333 149.333C253.333 196.462 215.127 234.667 168 234.667C120.871 234.667 82.6666 196.462 82.6666 149.333C82.6666 146.522 82.8032 143.739 83.0698 140.992ZM165.092 149.333C193.283 149.333 215.117 147.842 231.871 145.234C231.956 146.589 232 147.955 232 149.333C232 184.679 203.346 213.333 168 213.333C132.654 213.333 104 184.679 104 149.333C104 148.205 104.029 147.084 104.086 145.97C119.685 148.123 139.69 149.333 165.092 149.333ZM257.787 305.057C238.813 275.548 205.688 256 168 256C130.296 256 97.1616 275.562 78.192 305.089C74.7285 299.771 69.3653 295.663 62.753 293.891L42.1461 288.37C27.921 284.558 13.2983 293.001 9.48648 307.226L1.20435 338.135C-2.60749 352.362 5.83474 366.983 20.0608 370.796L40.6666 376.317C47.9541 378.27 55.344 377.007 61.3333 373.398C61.3685 379.26 66.1301 384 72 384C77.8901 384 82.6666 379.225 82.6666 373.333V362.667C82.6666 358.603 82.9504 354.605 83.4997 350.692L139.009 365.565C144.114 376.457 155.175 384 168 384C180.823 384 191.886 376.457 196.991 365.565L252.499 350.692C253.049 354.605 253.333 358.603 253.333 362.667V373.333C253.333 379.225 258.109 384 264 384C269.856 384 274.611 379.28 274.666 373.436C280.646 377.022 288.017 378.273 295.285 376.325L315.891 370.804C330.117 366.992 338.559 352.37 334.748 338.144L326.465 307.234C322.654 293.009 308.031 284.566 293.806 288.379L273.199 293.9C266.603 295.667 261.25 299.759 257.787 305.057ZM89.0986 330.106C100.596 302.274 126.392 281.852 157.333 277.994V321.821C147.686 325.23 140.163 333.134 137.278 343.015L89.0986 330.106ZM246.901 330.106C235.403 302.274 209.606 281.852 178.667 277.994V321.821C188.313 325.23 195.836 333.134 198.721 343.015L246.901 330.106ZM168 362.667C173.89 362.667 178.667 357.891 178.667 352C178.667 346.109 173.89 341.333 168 341.333C162.109 341.333 157.333 346.109 157.333 352C157.333 357.891 162.109 362.667 168 362.667Z" fill="#083863"/>
</svg>
