<svg width="459" height="512" viewBox="0 0 459 512" fill="none" xmlns="http://www.w3.org/2000/svg">
<path d="M117.333 245.333V85.3333H323.413C326.242 85.3333 328.955 84.2095 330.956 82.2091C332.956 80.2088 334.08 77.4956 334.08 74.6667C334.08 71.8377 332.956 69.1246 330.956 67.1242C328.955 65.1238 326.242 64 323.413 64H117.333V53.3333C117.333 44.8464 120.705 36.7071 126.706 30.7059C132.707 24.7048 140.846 21.3333 149.333 21.3333H331.52C334.349 21.3333 337.062 20.2095 339.062 18.2091C341.063 16.2088 342.187 13.4956 342.187 10.6667C342.187 7.83769 341.063 5.12458 339.062 3.12419C337.062 1.12381 334.349 0 331.52 0L149.333 0C135.188 0 121.623 5.61903 111.621 15.621C101.619 25.6229 96 39.1885 96 53.3333V245.333C96 248.162 97.1238 250.875 99.1242 252.876C101.125 254.876 103.838 256 106.667 256C109.496 256 112.209 254.876 114.209 252.876C116.21 250.875 117.333 248.162 117.333 245.333ZM394.667 181.333V426.667H106.667C103.838 426.667 101.125 427.79 99.1242 429.791C97.1238 431.791 96 434.504 96 437.333V458.667C96 465.671 97.3795 472.606 100.06 479.076C102.74 485.547 106.669 491.427 111.621 496.379C116.573 501.332 122.453 505.26 128.924 507.94C135.394 510.62 142.33 512 149.333 512H362.667C369.671 512 376.606 510.62 383.076 507.94C389.547 505.26 395.427 501.332 400.379 496.379C405.331 491.427 409.26 485.547 411.94 479.076C414.62 472.606 416 465.671 416 458.667V181.333C416 178.504 414.876 175.791 412.876 173.791C410.875 171.79 408.162 170.667 405.333 170.667C402.504 170.667 399.791 171.79 397.791 173.791C395.79 175.791 394.667 178.504 394.667 181.333ZM362.667 490.667H149.333C140.846 490.667 132.707 487.295 126.706 481.294C120.705 475.293 117.333 467.154 117.333 458.667V448H394.667V458.667C394.667 467.154 391.295 475.293 385.294 481.294C379.293 487.295 371.154 490.667 362.667 490.667Z" fill="#083863"/>
<path d="M266.667 458.667H245.333C242.504 458.667 239.791 459.79 237.791 461.791C235.79 463.791 234.667 466.504 234.667 469.333C234.667 472.162 235.79 474.875 237.791 476.876C239.791 478.876 242.504 480 245.333 480H266.667C269.496 480 272.209 478.876 274.209 476.876C276.21 474.875 277.333 472.162 277.333 469.333C277.333 466.504 276.21 463.791 274.209 461.791C272.209 459.79 269.496 458.667 266.667 458.667ZM170.667 394.667V288C170.667 285.171 169.543 282.458 167.542 280.458C165.542 278.457 162.829 277.333 160 277.333H10.6667C7.83769 277.333 5.12458 278.457 3.12419 280.458C1.12381 282.458 0 285.171 0 288V394.667C0 397.496 1.12381 400.209 3.12419 402.209C5.12458 404.21 7.83769 405.333 10.6667 405.333H160C162.829 405.333 165.542 404.21 167.542 402.209C169.543 400.209 170.667 397.496 170.667 394.667ZM21.3333 298.667H42.6667V384H21.3333V298.667ZM149.333 384H64V298.667H96V320C96 322.829 97.1238 325.542 99.1242 327.542C101.125 329.543 103.838 330.667 106.667 330.667C109.496 330.667 112.209 329.543 114.209 327.542C116.21 325.542 117.333 322.829 117.333 320V298.667H149.333V384ZM414.08 144.747C421.547 133.973 458.667 78.9333 458.667 53.3333C458.667 39.1885 453.048 25.6229 443.046 15.621C433.044 5.61903 419.478 0 405.333 0C391.188 0 377.623 5.61903 367.621 15.621C357.619 25.6229 352 39.1885 352 53.3333C352 78.9333 389.12 133.973 396.587 144.747C397.57 146.155 398.878 147.305 400.401 148.099C401.924 148.893 403.616 149.308 405.333 149.308C407.051 149.308 408.743 148.893 410.266 148.099C411.788 147.305 413.097 146.155 414.08 144.747ZM405.333 21.3333C413.82 21.3333 421.96 24.7048 427.961 30.7059C433.962 36.7071 437.333 44.8464 437.333 53.3333C437.333 64.96 420.693 95.36 405.333 119.36C389.973 95.36 373.333 64.96 373.333 53.3333C373.333 44.8464 376.705 36.7071 382.706 30.7059C388.707 24.7048 396.846 21.3333 405.333 21.3333ZM234.667 202.667C223.351 202.667 212.498 207.162 204.497 215.163C196.495 223.165 192 234.017 192 245.333C192 256.649 196.495 267.502 204.497 275.503C212.498 283.505 223.351 288 234.667 288H330.667C336.325 288 341.751 290.248 345.752 294.248C349.752 298.249 352 303.675 352 309.333C352 314.991 349.752 320.418 345.752 324.418C341.751 328.419 336.325 330.667 330.667 330.667H202.667C199.838 330.667 197.125 331.79 195.124 333.791C193.124 335.791 192 338.504 192 341.333C192 344.162 193.124 346.875 195.124 348.876C197.125 350.876 199.838 352 202.667 352H330.667C341.983 352 352.835 347.505 360.837 339.503C368.838 331.502 373.333 320.649 373.333 309.333C373.333 298.017 368.838 287.165 360.837 279.163C352.835 271.162 341.983 266.667 330.667 266.667H234.667C229.009 266.667 223.582 264.419 219.582 260.418C215.581 256.418 213.333 250.991 213.333 245.333C213.333 239.675 215.581 234.249 219.582 230.248C223.582 226.248 229.009 224 234.667 224H330.667C341.983 224 352.835 219.505 360.837 211.503C368.838 203.502 373.333 192.649 373.333 181.333V149.333C373.333 146.504 372.21 143.791 370.209 141.791C368.209 139.79 365.496 138.667 362.667 138.667C359.838 138.667 357.125 139.79 355.124 141.791C353.124 143.791 352 146.504 352 149.333V181.333C352 186.991 349.752 192.418 345.752 196.418C341.751 200.419 336.325 202.667 330.667 202.667H234.667Z" fill="#083863"/>
<path d="M416 53.3332C416 50.5042 414.877 47.7911 412.876 45.7907C410.876 43.7903 408.163 42.6665 405.334 42.6665C402.505 42.6665 399.792 43.7903 397.791 45.7907C395.791 47.7911 394.667 50.5042 394.667 53.3332C394.667 56.1621 395.791 58.8753 397.791 60.8756C399.792 62.876 402.505 63.9998 405.334 63.9998C408.163 63.9998 410.876 62.876 412.876 60.8756C414.877 58.8753 416 56.1621 416 53.3332Z" fill="#083863"/>
</svg>
