<svg width="64" height="64" viewBox="0 0 64 64" fill="none" xmlns="http://www.w3.org/2000/svg">
<path d="M26.6654 13.333C24.4654 13.333 22.8654 13.533 21.0387 12.173C17.0387 13.5063 14.7054 13.333 10.6654 13.333C10.3117 13.333 9.9726 13.1925 9.72256 12.9425C9.47251 12.6924 9.33203 12.3533 9.33203 11.9997V8.51967C9.33556 6.61473 10.0939 4.78882 11.4409 3.44183C12.7878 2.09483 14.6138 1.33653 16.5187 1.33301H20.1987C21.1873 1.33477 22.1559 1.61125 22.9964 2.13159C23.8369 2.65192 24.5163 3.39562 24.9587 4.27967L25.052 4.37301C25.9361 4.81539 26.6798 5.49477 27.2001 6.3353C27.7205 7.17584 27.9969 8.14445 27.9987 9.13301V11.9997C27.9987 12.3533 27.8582 12.6924 27.6082 12.9425C27.3581 13.1925 27.019 13.333 26.6654 13.333ZM21.332 9.33301C21.5075 9.33199 21.6815 9.36563 21.8439 9.43198C22.0064 9.49833 22.1541 9.5961 22.2787 9.71967C22.8807 10.3205 23.6948 10.6605 24.5454 10.6663H25.332V9.13301C25.3293 8.63916 25.1895 8.15578 24.9282 7.73673C24.6668 7.31768 24.2943 6.97943 23.852 6.75967C22.9987 6.31967 23.0387 6.38634 22.5187 5.42634C22.2959 5.002 21.9628 4.64555 21.5546 4.39449C21.1463 4.14343 20.6779 4.00704 20.1987 3.99967H16.5187C15.3199 3.99967 14.1702 4.47589 13.3226 5.32355C12.4749 6.17122 11.9987 7.3209 11.9987 8.51967V10.6663C14.7017 10.84 17.4135 10.5146 19.9987 9.70634C21.0254 9.33301 21.0654 9.33301 21.332 9.33301Z" fill="#F3890F"/>
<path d="M18.668 25.3337C16.5462 25.3337 14.5114 24.4908 13.0111 22.9905C11.5108 21.4902 10.668 19.4554 10.668 17.3337V12.0003C10.668 11.6467 10.8084 11.3076 11.0585 11.0575C11.3085 10.8075 11.6477 10.667 12.0013 10.667C12.3549 10.667 12.6941 10.8075 12.9441 11.0575C13.1942 11.3076 13.3346 11.6467 13.3346 12.0003V17.3337C13.3346 18.7481 13.8965 20.1047 14.8967 21.1049C15.8969 22.1051 17.2535 22.667 18.668 22.667C20.0825 22.667 21.439 22.1051 22.4392 21.1049C23.4394 20.1047 24.0013 18.7481 24.0013 17.3337V12.0003C24.0013 11.6467 24.1418 11.3076 24.3918 11.0575C24.6419 10.8075 24.981 10.667 25.3346 10.667C25.6883 10.667 26.0274 10.8075 26.2774 11.0575C26.5275 11.3076 26.668 11.6467 26.668 12.0003V17.3337C26.668 19.4554 25.8251 21.4902 24.3248 22.9905C22.8245 24.4908 20.7897 25.3337 18.668 25.3337Z" fill="#F3890F"/>
<path d="M2.66549 62.6663C2.31187 62.6663 1.97273 62.5259 1.72268 62.2758C1.47263 62.0258 1.33215 61.6866 1.33215 61.333V32.773C1.32216 31.1249 1.923 29.5315 3.01872 28.3004C4.11444 27.0692 5.62736 26.2876 7.26549 26.1063L13.3322 25.4663V22.6663C13.3322 22.3127 13.4726 21.9736 13.7227 21.7235C13.9727 21.4735 14.3119 21.333 14.6655 21.333C15.0191 21.333 15.3582 21.4735 15.6083 21.7235C15.8583 21.9736 15.9988 22.3127 15.9988 22.6663V26.6663C16.0008 26.996 15.8807 27.3146 15.6615 27.5609C15.4424 27.8071 15.1398 27.9634 14.8122 27.9997L7.55882 28.7997C6.57594 28.9084 5.66819 29.3774 5.01076 30.1161C4.35333 30.8548 3.99282 31.8108 3.99882 32.7997V61.333C3.99882 61.6866 3.85835 62.0258 3.6083 62.2758C3.35825 62.5259 3.01911 62.6663 2.66549 62.6663ZM34.6655 62.6663C34.3119 62.6663 33.9727 62.5259 33.7227 62.2758C33.4726 62.0258 33.3322 61.6866 33.3322 61.333V39.9997C33.3322 39.6461 33.4726 39.3069 33.7227 39.0569C33.9727 38.8068 34.3119 38.6663 34.6655 38.6663C35.0191 38.6663 35.3582 38.8068 35.6083 39.0569C35.8583 39.3069 35.9988 39.6461 35.9988 39.9997V61.333C35.9988 61.6866 35.8583 62.0258 35.6083 62.2758C35.3582 62.5259 35.0191 62.6663 34.6655 62.6663ZM34.4922 32.7597C34.1894 32.7693 33.8923 32.6754 33.65 32.4937C33.4076 32.3119 33.2344 32.053 33.1588 31.7597C32.9559 30.9754 32.5197 30.2711 31.9078 29.7402C31.2959 29.2093 30.5372 28.8766 29.7322 28.7863L22.5188 27.9997C22.1912 27.9634 21.8886 27.8071 21.6695 27.5609C21.4503 27.3146 21.3302 26.996 21.3322 26.6663V22.6663C21.3322 22.3127 21.4726 21.9736 21.7227 21.7235C21.9727 21.4735 22.3119 21.333 22.6655 21.333C23.0191 21.333 23.3582 21.4735 23.6083 21.7235C23.8583 21.9736 23.9988 22.3127 23.9988 22.6663V25.4797L30.0522 26.1463C31.3944 26.2945 32.66 26.8468 33.6814 27.7302C34.7028 28.6135 35.4319 29.7862 35.7722 31.093C35.8228 31.2891 35.8281 31.4942 35.7876 31.6927C35.7472 31.8912 35.662 32.0779 35.5386 32.2385C35.4152 32.3992 35.2569 32.5296 35.0756 32.6199C34.8942 32.7102 34.6947 32.758 34.4922 32.7597Z" fill="#F3890F"/>
<path d="M18.668 31.1197C15.5346 31.1197 14.0813 29.2931 12.5213 27.7464C12.2702 27.4953 12.1292 27.1548 12.1292 26.7997C12.1292 26.6239 12.1638 26.4498 12.2311 26.2874C12.2984 26.125 12.397 25.9774 12.5213 25.8531C12.6456 25.7287 12.7932 25.6301 12.9556 25.5628C13.1181 25.4956 13.2922 25.4609 13.468 25.4609C13.823 25.4609 14.1636 25.602 14.4146 25.8531L15.8413 27.2797C16.5913 28.0288 17.608 28.4495 18.668 28.4495C19.728 28.4495 20.7446 28.0288 21.4946 27.2797L22.9213 25.8531C23.1724 25.602 23.5129 25.4609 23.868 25.4609C24.223 25.4609 24.5636 25.602 24.8146 25.8531C25.0657 26.1041 25.2068 26.4447 25.2068 26.7997C25.2068 27.1548 25.0657 27.4953 24.8146 27.7464C23.1346 29.4131 21.7613 31.1197 18.668 31.1197ZM8.0013 62.6664C7.64768 62.6664 7.30854 62.5259 7.05849 62.2759C6.80845 62.0258 6.66797 61.6867 6.66797 61.3331V56.7197C6.66697 55.4548 7.11562 54.2306 7.93382 53.2659C8.75201 52.3011 9.88648 51.6586 11.1346 51.4531L14.668 50.8797V48.6131C14.668 48.2594 14.8084 47.9203 15.0585 47.6702C15.3085 47.4202 15.6477 47.2797 16.0013 47.2797C16.3549 47.2797 16.6941 47.4202 16.9441 47.6702C17.1942 47.9203 17.3346 48.2594 17.3346 48.6131V51.9997C17.3393 52.3174 17.2303 52.6262 17.0274 52.8707C16.8245 53.1151 16.541 53.2791 16.228 53.3331L11.5613 54.1064C10.9327 54.2115 10.3626 54.5382 9.95414 55.0274C9.54568 55.5166 9.32591 56.1358 9.33464 56.7731V61.3331C9.33464 61.6867 9.19416 62.0258 8.94411 62.2759C8.69406 62.5259 8.35493 62.6664 8.0013 62.6664ZM29.3346 62.6664C28.981 62.6664 28.6419 62.5259 28.3918 62.2759C28.1418 62.0258 28.0013 61.6867 28.0013 61.3331V56.7197C28.01 56.0825 27.7903 55.4632 27.3818 54.974C26.9733 54.4849 26.4032 54.1582 25.7746 54.0531L21.108 53.3331C20.7949 53.2791 20.5114 53.1151 20.3085 52.8707C20.1056 52.6262 19.9967 52.3174 20.0013 51.9997V48.6131C20.0013 48.2594 20.1418 47.9203 20.3918 47.6702C20.6419 47.4202 20.981 47.2797 21.3346 47.2797C21.6883 47.2797 22.0274 47.4202 22.2774 47.6702C22.5275 47.9203 22.668 48.2594 22.668 48.6131V50.8797L26.2013 51.4531C27.4495 51.6586 28.5839 52.3011 29.4021 53.2659C30.2203 54.2306 30.669 55.4548 30.668 56.7197V61.3331C30.668 61.6867 30.5275 62.0258 30.2774 62.2759C30.0274 62.5259 29.6883 62.6664 29.3346 62.6664Z" fill="#F3890F"/>
<path d="M18.668 50.667C16.8999 50.667 15.2042 49.9646 13.9539 48.7144C12.7037 47.4641 12.0013 45.7684 12.0013 44.0003V41.3337C12.0013 39.5655 12.7037 37.8699 13.9539 36.6196C15.2042 35.3694 16.8999 34.667 18.668 34.667C20.4361 34.667 22.1318 35.3694 23.382 36.6196C24.6323 37.8699 25.3346 39.5655 25.3346 41.3337V44.0003C25.3346 45.7684 24.6323 47.4641 23.382 48.7144C22.1318 49.9646 20.4361 50.667 18.668 50.667ZM18.668 37.3337C17.6071 37.3337 16.5897 37.7551 15.8395 38.5052C15.0894 39.2554 14.668 40.2728 14.668 41.3337V44.0003C14.668 45.0612 15.0894 46.0786 15.8395 46.8287C16.5897 47.5789 17.6071 48.0003 18.668 48.0003C19.7288 48.0003 20.7463 47.5789 21.4964 46.8287C22.2465 46.0786 22.668 45.0612 22.668 44.0003V41.3337C22.668 40.2728 22.2465 39.2554 21.4964 38.5052C20.7463 37.7551 19.7288 37.3337 18.668 37.3337ZM8.0013 57.3337C7.64768 57.3337 7.30854 57.1932 7.05849 56.9431C6.80844 56.6931 6.66797 56.3539 6.66797 56.0003V36.0003C6.66797 35.6467 6.80844 35.3076 7.05849 35.0575C7.30854 34.8075 7.64768 34.667 8.0013 34.667C8.35492 34.667 8.69406 34.8075 8.94411 35.0575C9.19416 35.3076 9.33464 35.6467 9.33464 36.0003V56.0003C9.33464 56.3539 9.19416 56.6931 8.94411 56.9431C8.69406 57.1932 8.35492 57.3337 8.0013 57.3337Z" fill="#F3890F"/>
<path d="M7.9987 44H2.66536C2.31174 44 1.9726 43.8595 1.72256 43.6095C1.47251 43.3594 1.33203 43.0203 1.33203 42.6667C1.33203 42.313 1.47251 41.9739 1.72256 41.7239C1.9726 41.4738 2.31174 41.3333 2.66536 41.3333H7.9987C8.35232 41.3333 8.69146 41.4738 8.94151 41.7239C9.19156 41.9739 9.33203 42.313 9.33203 42.6667C9.33203 43.0203 9.19156 43.3594 8.94151 43.6095C8.69146 43.8595 8.35232 44 7.9987 44ZM13.332 62.6667C12.9784 62.6667 12.6393 62.5262 12.3892 62.2761C12.1392 62.0261 11.9987 61.687 11.9987 61.3333V58.6667C11.9987 58.313 12.1392 57.9739 12.3892 57.7239C12.6393 57.4738 12.9784 57.3333 13.332 57.3333C13.6857 57.3333 14.0248 57.4738 14.2748 57.7239C14.5249 57.9739 14.6654 58.313 14.6654 58.6667V61.3333C14.6654 61.687 14.5249 62.0261 14.2748 62.2761C14.0248 62.5262 13.6857 62.6667 13.332 62.6667ZM23.9987 62.6667C23.6451 62.6667 23.3059 62.5262 23.0559 62.2761C22.8058 62.0261 22.6654 61.687 22.6654 61.3333V58.6667C22.6654 58.313 22.8058 57.9739 23.0559 57.7239C23.3059 57.4738 23.6451 57.3333 23.9987 57.3333C24.3523 57.3333 24.6915 57.4738 24.9415 57.7239C25.1916 57.9739 25.332 58.313 25.332 58.6667V61.3333C25.332 61.687 25.1916 62.0261 24.9415 62.2761C24.6915 62.5262 24.3523 62.6667 23.9987 62.6667ZM55.9987 32.7333C55.6451 32.7333 55.3059 32.5929 55.0559 32.3428C54.8058 32.0928 54.6654 31.7536 54.6654 31.4V16C54.6654 13.5246 53.682 11.1507 51.9317 9.40034C50.1814 7.65 47.8074 6.66667 45.332 6.66667C42.8567 6.66667 40.4827 7.65 38.7324 9.40034C36.982 11.1507 35.9987 13.5246 35.9987 16V31.4C35.9987 31.7536 35.8582 32.0928 35.6082 32.3428C35.3581 32.5929 35.019 32.7333 34.6654 32.7333C34.3117 32.7333 33.9726 32.5929 33.7226 32.3428C33.4725 32.0928 33.332 31.7536 33.332 31.4V16C33.332 12.8174 34.5963 9.76515 36.8468 7.51472C39.0972 5.26428 42.1494 4 45.332 4C48.5146 4 51.5669 5.26428 53.8173 7.51472C56.0677 9.76515 57.332 12.8174 57.332 16V31.4C57.332 31.7536 57.1916 32.0928 56.9415 32.3428C56.6915 32.5929 56.3523 32.7333 55.9987 32.7333Z" fill="#F3890F"/>
<path d="M45.3339 29.3329C43.5374 29.3338 41.8038 28.6718 40.4653 27.4735C39.1268 26.2753 38.2776 24.6252 38.0806 22.8395L37.3473 16.1729C37.3226 15.9849 37.3383 15.7938 37.3934 15.6124C37.4484 15.431 37.5415 15.2635 37.6664 15.1209C37.7913 14.9783 37.9452 14.864 38.1178 14.7856C38.2904 14.7072 38.4777 14.6665 38.6673 14.6662H41.5606C42.5815 14.6683 43.5927 14.4678 44.5356 14.0764C45.4786 13.6851 46.3345 13.1106 47.0539 12.3862C47.2033 12.2372 47.386 12.1258 47.5868 12.0612C47.7876 11.9966 48.0009 11.9805 48.2092 12.0143C48.4174 12.0482 48.6147 12.131 48.7847 12.2559C48.9547 12.3808 49.0927 12.5442 49.1873 12.7329L49.3339 13.0129C49.5788 13.5106 49.9587 13.9296 50.4302 14.2219C50.9017 14.5142 51.4458 14.6682 52.0006 14.6662C52.1887 14.665 52.375 14.7037 52.5471 14.7797C52.7193 14.8557 52.8734 14.9673 52.9993 15.107C53.1252 15.2468 53.2202 15.4117 53.2778 15.5908C53.3355 15.7699 53.3546 15.9592 53.3339 16.1462L52.6006 22.8129C52.4094 24.6056 51.561 26.264 50.2191 27.468C48.8772 28.6721 47.1368 29.3364 45.3339 29.3329ZM40.1606 17.3329L40.7339 22.5462C40.8563 23.6808 41.3936 24.7302 42.2427 25.4926C43.0918 26.2551 44.1927 26.6768 45.3339 26.6768C46.4751 26.6768 47.576 26.2551 48.4251 25.4926C49.2742 24.7302 49.8116 23.6808 49.9339 22.5462L50.5339 17.1462C49.4252 16.8513 48.4339 16.2229 47.6939 15.3462C45.4995 16.8843 42.8281 17.5887 40.1606 17.3329Z" fill="#F3890F"/>
<path d="M29.3335 62.6668C28.9798 62.6668 28.6407 62.5263 28.3906 62.2763C28.1406 62.0262 28.0001 61.6871 28.0001 61.3334V36.7734C27.9901 35.1254 28.591 33.532 29.6867 32.3008C30.7824 31.0697 32.2953 30.288 33.9335 30.1068L40.0001 29.4668V26.4535C40.0001 26.0998 40.1406 25.7607 40.3906 25.5106C40.6407 25.2606 40.9798 25.1201 41.3335 25.1201C41.6871 25.1201 42.0262 25.2606 42.2763 25.5106C42.5263 25.7607 42.6668 26.0998 42.6668 26.4535V30.6668C42.6688 30.9964 42.5486 31.3151 42.3295 31.5613C42.1103 31.8075 41.8078 31.9639 41.4801 32.0001L34.2268 32.8001C33.2439 32.9089 32.3362 33.3779 31.6787 34.1165C31.0213 34.8552 30.6608 35.8113 30.6668 36.8001V61.3334C30.6668 61.6871 30.5263 62.0262 30.2763 62.2763C30.0262 62.5263 29.6871 62.6668 29.3335 62.6668ZM61.3335 42.6668C60.9798 42.6668 60.6407 42.5263 60.3906 42.2763C60.1406 42.0262 60.0001 41.6871 60.0001 41.3334V36.7734C60.0061 35.7846 59.6456 34.8286 58.9882 34.0899C58.3308 33.3512 57.423 32.8822 56.4401 32.7734L49.1868 32.0001C48.8592 31.9639 48.5566 31.8075 48.3374 31.5613C48.1183 31.3151 47.9981 30.9964 48.0001 30.6668V26.4535C48.0001 26.0998 48.1406 25.7607 48.3906 25.5106C48.6407 25.2606 48.9798 25.1201 49.3335 25.1201C49.6871 25.1201 50.0262 25.2606 50.2763 25.5106C50.5263 25.7607 50.6668 26.0998 50.6668 26.4535V29.4801L56.7201 30.1468C58.3583 30.328 59.8712 31.1097 60.9669 32.3408C62.0626 33.572 62.6635 35.1654 62.6535 36.8135V41.3334C62.6535 41.6848 62.5148 42.0219 62.2677 42.2716C62.0205 42.5212 61.6848 42.6633 61.3335 42.6668Z" fill="#F3890F"/>
<path d="M45.3333 35.1197C42.2 35.1197 40.7467 33.2931 39.1867 31.7464C38.9356 31.4953 38.7945 31.1548 38.7945 30.7997C38.7945 30.4447 38.9356 30.1041 39.1867 29.8531C39.4377 29.602 39.7783 29.4609 40.1333 29.4609C40.4884 29.4609 40.8289 29.602 41.08 29.8531L42.5067 31.2797C43.2567 32.0288 44.2733 32.4495 45.3333 32.4495C46.3933 32.4495 47.41 32.0288 48.16 31.2797L49.5867 29.8531C49.8377 29.602 50.1783 29.4609 50.5333 29.4609C50.8884 29.4609 51.2289 29.602 51.48 29.8531C51.7311 30.1041 51.8721 30.4447 51.8721 30.7997C51.8721 31.1548 51.7311 31.4953 51.48 31.7464C49.8 33.4131 48.4267 35.1197 45.3333 35.1197ZM56 47.9997C55.6464 47.9997 55.3072 47.8593 55.0572 47.6092C54.8071 47.3592 54.6667 47.02 54.6667 46.6664V39.9997C54.6667 39.6461 54.8071 39.307 55.0572 39.0569C55.3072 38.8069 55.6464 38.6664 56 38.6664C56.3536 38.6664 56.6928 38.8069 56.9428 39.0569C57.1929 39.307 57.3333 39.6461 57.3333 39.9997V46.6664C57.3333 47.02 57.1929 47.3592 56.9428 47.6092C56.6928 47.8593 56.3536 47.9997 56 47.9997ZM34.6667 47.9997H29.3333C28.9797 47.9997 28.6406 47.8593 28.3905 47.6092C28.1405 47.3592 28 47.02 28 46.6664C28 46.3128 28.1405 45.9736 28.3905 45.7236C28.6406 45.4735 28.9797 45.3331 29.3333 45.3331H34.6667C35.0203 45.3331 35.3594 45.4735 35.6095 45.7236C35.8595 45.9736 36 46.3128 36 46.6664C36 47.02 35.8595 47.3592 35.6095 47.6092C35.3594 47.8593 35.0203 47.9997 34.6667 47.9997Z" fill="#F3890F"/>
<path d="M56.7425 48.0859C57.2618 48.4076 57.8282 48.6397 58.418 48.7754V54.2263C58.418 54.2264 58.418 54.2265 58.418 54.2267C58.4172 56.1964 57.7179 58.102 56.4445 59.6047C55.2159 61.0544 53.5298 62.0384 51.668 62.3968C49.8061 62.0384 48.12 61.0544 46.8915 59.6047C45.618 58.102 44.9187 56.1964 44.918 54.2267C44.918 54.2266 44.918 54.2266 44.918 54.2266C44.918 54.2265 44.918 54.2264 44.918 54.2263L44.918 48.7749C45.5734 48.6244 46.1997 48.3558 46.765 47.9789C47.4413 47.5281 48.0079 46.9372 48.4289 46.25H54.9229C55.3751 46.9949 55.9979 47.6247 56.7425 48.0859Z" stroke="#F3890F" stroke-width="2.5"/>
<path d="M50.8779 56.7519C50.3606 56.7519 50.3319 56.6082 48.2817 54.5581C48.1924 54.4688 48.1216 54.3628 48.0732 54.246C48.0249 54.1293 48 54.0043 48 53.8779C48 53.7516 48.0249 53.6265 48.0732 53.5098C48.1216 53.3931 48.1924 53.2871 48.2817 53.1978C48.3711 53.1084 48.4771 53.0376 48.5938 52.9892C48.7105 52.9409 48.8356 52.916 48.9619 52.916C49.0882 52.916 49.2133 52.9409 49.33 52.9892C49.4467 53.0376 49.5528 53.1084 49.6421 53.1978L50.8779 54.4432L54.0298 51.2817C54.1191 51.1924 54.2251 51.1216 54.3418 51.0732C54.4585 51.0249 54.5836 51 54.7099 51C54.8363 51 54.9614 51.0249 55.0781 51.0732C55.1948 51.1216 55.3008 51.1924 55.3901 51.2817C55.4795 51.3711 55.5503 51.4771 55.5986 51.5938C55.647 51.7105 55.6719 51.8356 55.6719 51.9619C55.6719 52.0882 55.647 52.2133 55.5986 52.33C55.5503 52.4467 55.4795 52.5528 55.3901 52.6421L51.5581 56.4741C51.4686 56.5629 51.3624 56.6332 51.2457 56.6808C51.129 56.7285 51.004 56.7527 50.8779 56.7519Z" fill="#F3890F"/>
<path d="M14.5061 53.9868L13.7461 53.0535C13.6358 52.9169 13.5534 52.7599 13.5038 52.5915C13.4541 52.4232 13.4381 52.2466 13.4567 52.0721C13.4753 51.8975 13.5281 51.7283 13.612 51.5741C13.696 51.4199 13.8095 51.2838 13.9461 51.1735C14.0827 51.0632 14.2396 50.9808 14.408 50.9312C14.5764 50.8815 14.7529 50.8655 14.9275 50.8841C15.1021 50.9027 15.2713 50.9555 15.4255 51.0394C15.5796 51.1234 15.7158 51.2369 15.8261 51.3735L16.5861 52.3201C16.836 52.6316 17.1526 52.883 17.5126 53.0557C17.8726 53.2284 18.2668 53.3181 18.6661 53.3181C19.0654 53.3181 19.4596 53.2284 19.8196 53.0557C20.1796 52.883 20.4962 52.6316 20.7461 52.3201L21.5061 51.3601C21.7289 51.0843 22.0521 50.9083 22.4047 50.8708C22.7572 50.8333 23.1103 50.9374 23.3861 51.1601C23.6619 51.3829 23.8379 51.7062 23.8754 52.0587C23.9129 52.4113 23.8089 52.7643 23.5861 53.0401L22.8261 53.9868C22.3263 54.6097 21.6931 55.1124 20.9731 55.4579C20.2531 55.8033 19.4647 55.9827 18.6661 55.9827C17.8675 55.9827 17.0791 55.8033 16.3591 55.4579C15.6391 55.1124 15.0058 54.6097 14.5061 53.9868Z" fill="#F3890F"/>
</svg>
