<svg width="64" height="64" viewBox="0 0 64 64" fill="none" xmlns="http://www.w3.org/2000/svg">
<path d="M52.2493 24.5H33.7507C33.0193 24.503 32.3189 24.796 31.8032 25.3147C31.2875 25.8335 30.9986 26.5356 31 27.2671V61.2329C30.9986 61.9644 31.2875 62.6665 31.8032 63.1853C32.3189 63.704 33.0193 63.997 33.7507 64H52.2493C52.9807 63.997 53.6811 63.704 54.1968 63.1853C54.7125 62.6665 55.0014 61.9644 55 61.2329V27.2671C55.0014 26.5356 54.7125 25.8335 54.1968 25.3147C53.6811 24.796 52.9807 24.503 52.2493 24.5ZM33 43H41.9993V52H33V43ZM43.9993 43H53V52H43.9993V43ZM33.7507 26.5H52.2493C52.4505 26.5024 52.6425 26.5845 52.7833 26.7283C52.924 26.8721 53.002 27.0659 53 27.2671V41H33V27.2671C32.998 27.0659 33.076 26.8721 33.2167 26.7283C33.3575 26.5845 33.5495 26.5024 33.7507 26.5ZM33.7507 62C33.5495 61.9976 33.3575 61.9155 33.2167 61.7717C33.076 61.6279 32.998 61.4341 33 61.2329V54H41.9993V62H33.7507ZM52.2493 62H43.9993V54H53V61.2329C53.002 61.4341 52.924 61.6279 52.7833 61.7717C52.6425 61.9155 52.4505 61.9976 52.2493 62Z" fill="#F3890F"/>
<path d="M37 36.5H49C49.53 36.4985 50.0378 36.2872 50.4125 35.9125C50.7872 35.5378 50.9985 35.03 51 34.5V31.5C50.9985 30.97 50.7872 30.4622 50.4125 30.0875C50.0378 29.7128 49.53 29.5015 49 29.5H37C36.47 29.5016 35.9622 29.7128 35.5875 30.0875C35.2128 30.4622 35.0016 30.97 35 31.5V34.5C35.0016 35.03 35.2128 35.5378 35.5875 35.9125C35.9622 36.2872 36.47 36.4984 37 36.5ZM37 31.5H49V34.5H37V31.5ZM39.0001 46.5H38.5001V46C38.5001 45.7348 38.3948 45.4804 38.2072 45.2929C38.0197 45.1054 37.7653 45 37.5001 45C37.2349 45 36.9806 45.1054 36.793 45.2929C36.6055 45.4804 36.5001 45.7348 36.5001 46V46.5H36.0001C35.7349 46.5 35.4806 46.6054 35.293 46.7929C35.1055 46.9804 35.0001 47.2348 35.0001 47.5C35.0001 47.7652 35.1055 48.0196 35.293 48.2071C35.4806 48.3946 35.7349 48.5 36.0001 48.5H36.5001V49C36.5001 49.2652 36.6055 49.5196 36.793 49.7071C36.9806 49.8946 37.2349 50 37.5001 50C37.7653 50 38.0197 49.8946 38.2072 49.7071C38.3948 49.5196 38.5001 49.2652 38.5001 49V48.5H39.0001C39.2653 48.5 39.5197 48.3946 39.7072 48.2071C39.8948 48.0196 40.0001 47.7652 40.0001 47.5C40.0001 47.2348 39.8948 46.9804 39.7072 46.7929C39.5197 46.6054 39.2653 46.5 39.0001 46.5ZM39.2677 56.2324C39.1749 56.1395 39.0646 56.0659 38.9433 56.0156C38.822 55.9653 38.692 55.9395 38.5607 55.9395C38.4294 55.9395 38.2993 55.9653 38.178 56.0156C38.0567 56.0659 37.9465 56.1395 37.8536 56.2324L37.5 56.586L37.1464 56.2324C36.9587 56.0455 36.7046 55.9407 36.4397 55.9409C36.1749 55.9412 35.9209 56.0465 35.7336 56.2338C35.5464 56.4211 35.441 56.675 35.4408 56.9398C35.4405 57.2047 35.5454 57.4588 35.7323 57.6465L36.0859 58L35.7323 58.3535C35.6394 58.4463 35.5657 58.5566 35.5155 58.6779C35.4652 58.7992 35.4393 58.9292 35.4393 59.0605C35.4393 59.1918 35.4652 59.3219 35.5155 59.4432C35.5657 59.5645 35.6394 59.6747 35.7323 59.7676C35.9211 59.9526 36.175 60.0563 36.4393 60.0563C36.7037 60.0563 36.9576 59.9526 37.1464 59.7676L37.5 59.414L37.8536 59.7676C38.0447 59.9483 38.2977 60.049 38.5607 60.049C38.8237 60.049 39.0767 59.9483 39.2677 59.7676C39.3606 59.6747 39.4343 59.5645 39.4845 59.4432C39.5348 59.3219 39.5607 59.1919 39.5607 59.0605C39.5607 58.9292 39.5348 58.7992 39.4845 58.6779C39.4343 58.5566 39.3606 58.4463 39.2677 58.3535L38.9142 58L39.2677 57.6465C39.3606 57.5537 39.4343 57.4434 39.4845 57.3221C39.5348 57.2008 39.5607 57.0708 39.5607 56.9395C39.5607 56.8081 39.5348 56.6781 39.4845 56.5568C39.4343 56.4355 39.3606 56.3253 39.2677 56.2324ZM50.5001 46.5H47.5001C47.2349 46.5 46.9806 46.6054 46.793 46.7929C46.6055 46.9804 46.5001 47.2348 46.5001 47.5C46.5001 47.7652 46.6055 48.0196 46.793 48.2071C46.9806 48.3946 47.2349 48.5 47.5001 48.5H50.5001C50.7653 48.5 51.0197 48.3946 51.2072 48.2071C51.3948 48.0196 51.5001 47.7652 51.5001 47.5C51.5001 47.2348 51.3948 46.9804 51.2072 46.7929C51.0197 46.6054 50.7653 46.5 50.5001 46.5ZM50.5001 55.5H47.5001C47.2349 55.5 46.9806 55.6054 46.793 55.7929C46.6055 55.9804 46.5001 56.2348 46.5001 56.5C46.5001 56.7652 46.6055 57.0196 46.793 57.2071C46.9806 57.3946 47.2349 57.5 47.5001 57.5H50.5001C50.7653 57.5 51.0197 57.3946 51.2072 57.2071C51.3948 57.0196 51.5001 56.7652 51.5001 56.5C51.5001 56.2348 51.3948 55.9804 51.2072 55.7929C51.0197 55.6054 50.7653 55.5 50.5001 55.5ZM50.5001 58.5H47.5001C47.2349 58.5 46.9806 58.6054 46.793 58.7929C46.6055 58.9804 46.5001 59.2348 46.5001 59.5C46.5001 59.7652 46.6055 60.0196 46.793 60.2071C46.9806 60.3946 47.2349 60.5 47.5001 60.5H50.5001C50.7653 60.5 51.0197 60.3946 51.2072 60.2071C51.3948 60.0196 51.5001 59.7652 51.5001 59.5C51.5001 59.2348 51.3948 58.9804 51.2072 58.7929C51.0197 58.6054 50.7653 58.5 50.5001 58.5Z" fill="#F3890F"/>
<path d="M52.0445 0H24.4612L9.27056 16.3162C9.1784 16.4157 9.10758 16.5331 9.06248 16.6611C9.01739 16.789 8.99895 16.9249 9.00832 17.0602L9.00006 17.0693V61C8.9951 61.7895 9.30348 62.5487 9.85756 63.1111C10.4116 63.6735 11.1662 63.9932 11.9556 64H18.5258C18.1811 63.3898 18.0001 62.7008 18.0007 62H11.9556C11.6964 61.9937 11.4503 61.8849 11.2712 61.6975C11.0921 61.51 10.9946 61.2592 11.0001 61V60H12.0001C12.2653 60 12.5196 59.8946 12.7072 59.7071C12.8947 59.5196 13.0001 59.2652 13.0001 59C13.0001 58.7348 12.8947 58.4804 12.7072 58.2929C12.5196 58.1054 12.2653 58 12.0001 58H11.0001V56H12.0001C12.2653 56 12.5196 55.8946 12.7072 55.7071C12.8947 55.5196 13.0001 55.2652 13.0001 55C13.0001 54.7348 12.8947 54.4804 12.7072 54.2929C12.5196 54.1054 12.2653 54 12.0001 54H11.0001V52H12.0001C12.2653 52 12.5196 51.8946 12.7072 51.7071C12.8947 51.5196 13.0001 51.2652 13.0001 51C13.0001 50.7348 12.8947 50.4804 12.7072 50.2929C12.5196 50.1054 12.2653 50 12.0001 50H11.0001V48H12.0001C12.2653 48 12.5196 47.8946 12.7072 47.7071C12.8947 47.5196 13.0001 47.2652 13.0001 47C13.0001 46.7348 12.8947 46.4804 12.7072 46.2929C12.5196 46.1054 12.2653 46 12.0001 46H11.0001V44H12.0001C12.2653 44 12.5196 43.8946 12.7072 43.7071C12.8947 43.5196 13.0001 43.2652 13.0001 43C13.0001 42.7348 12.8947 42.4804 12.7072 42.2929C12.5196 42.1054 12.2653 42 12.0001 42H11.0001V40H12.0001C12.2653 40 12.5196 39.8946 12.7072 39.7071C12.8947 39.5196 13.0001 39.2652 13.0001 39C13.0001 38.7348 12.8947 38.4804 12.7072 38.2929C12.5196 38.1054 12.2653 38 12.0001 38H11.0001V36H12.0001C12.2653 36 12.5196 35.8946 12.7072 35.7071C12.8947 35.5196 13.0001 35.2652 13.0001 35C13.0001 34.7348 12.8947 34.4804 12.7072 34.2929C12.5196 34.1054 12.2653 34 12.0001 34H11.0001V32H12.0001C12.2653 32 12.5196 31.8946 12.7072 31.7071C12.8947 31.5196 13.0001 31.2652 13.0001 31C13.0001 30.7348 12.8947 30.4804 12.7072 30.2929C12.5196 30.1054 12.2653 30 12.0001 30H11.0001V18H23.0321C23.8159 18.0022 24.5685 17.6933 25.1249 17.1413C25.6814 16.5892 25.9961 15.839 26.0001 15.0552V2H52.0445C52.3037 2.00631 52.5498 2.1151 52.7289 2.30255C52.908 2.48999 53.0055 2.74079 53.0001 3V22.5655C53.7215 22.6807 54.4062 22.9622 55.0001 23.3876V3C55.005 2.21052 54.6966 1.45131 54.1426 0.888905C53.5885 0.326499 52.834 0.00682308 52.0445 0ZM24.0001 15.0552C23.9967 15.3087 23.8928 15.5506 23.7114 15.7277C23.5299 15.9048 23.2856 16.0027 23.0321 16H12.667L24.0001 3.52881V15.0552Z" fill="#F3890F"/>
<path d="M25.2272 23.5685C24.9228 22.882 24.3117 22.8591 23.9863 23.5565L20.4708 31.0904C20.1939 31.6838 20.0499 32.3306 20.0488 32.9854L20.0008 61.99C19.9934 62.2466 20.0367 62.5021 20.1281 62.742C20.2195 62.9819 20.3572 63.2014 20.5335 63.3881C20.7097 63.5747 20.921 63.7248 21.1553 63.8298C21.3896 63.9348 21.6422 63.9926 21.8988 63.9999H27.0546C27.5716 63.9852 28.0616 63.7662 28.4174 63.3909C28.7732 63.0156 28.9657 62.5145 28.9527 61.9975L29.0008 33.0391C29.0018 32.4083 28.8703 31.7844 28.6146 31.2078L25.2272 23.5685ZM24.5734 27.028L26.5563 31.5H22.4867L24.5734 27.028ZM26.9525 61.9999H22.0009L22.0008 61.9933L22.048 33.5H27L26.9527 61.9939L26.9525 61.9999ZM43.2655 17.9688C43.0497 18.0583 42.8176 18.1016 42.5841 18.0958C42.3505 18.09 42.1208 18.0354 41.9097 17.9353C41.6875 17.842 41.4874 17.703 41.3225 17.5273C41.1575 17.3516 41.0314 17.1432 40.9522 16.9155C40.8705 16.6632 40.6919 16.4537 40.4557 16.333C40.2195 16.2124 39.9451 16.1905 39.6927 16.2722C39.4404 16.3539 39.2309 16.5325 39.1102 16.7687C38.9896 17.0049 38.9677 17.2794 39.0494 17.5317C39.2476 18.0905 39.5718 18.5962 39.9969 19.0095C40.422 19.4228 40.9366 19.7327 41.5008 19.915V20.5C41.5008 20.7652 41.6062 21.0196 41.7937 21.2071C41.9812 21.3946 42.2356 21.5 42.5008 21.5C42.766 21.5 43.0204 21.3946 43.2079 21.2071C43.3955 21.0196 43.5008 20.7652 43.5008 20.5V19.9897C43.7034 19.9414 43.9012 19.8747 44.0916 19.7903C44.7088 19.5326 45.2104 19.0581 45.502 18.4562C45.7936 17.8543 45.855 17.1665 45.6746 16.5225C45.2156 15.0054 43.8682 14.5977 42.8843 14.2998C42.1163 14.0674 41.6348 13.8994 41.421 13.5239C41.3366 13.3826 41.2902 13.2218 41.2864 13.0572C41.2825 12.8926 41.3213 12.7299 41.399 12.5847C41.6761 12.1331 42.3758 12.0454 42.9454 12.1582C43.1992 12.2246 43.4322 12.354 43.6226 12.5345C43.813 12.715 43.9547 12.9407 44.0345 13.1907C44.0683 13.3176 44.1268 13.4366 44.2066 13.5409C44.2864 13.6452 44.386 13.7327 44.4996 13.7985C44.6133 13.8643 44.7388 13.9071 44.869 13.9244C44.9991 13.9418 45.1315 13.9333 45.2584 13.8994C45.3853 13.8656 45.5042 13.8071 45.6085 13.7273C45.7128 13.6475 45.8004 13.5479 45.8662 13.4343C45.932 13.3206 45.9748 13.1951 45.9921 13.065C46.0094 12.9348 46.0009 12.8025 45.9671 12.6756C45.7985 12.0929 45.4832 11.5633 45.0514 11.1374C44.6196 10.7115 44.0857 10.4035 43.5008 10.243V9.5C43.5008 9.23478 43.3955 8.98043 43.2079 8.79289C43.0204 8.60536 42.766 8.5 42.5008 8.5C42.2356 8.5 41.9812 8.60536 41.7937 8.79289C41.6062 8.98043 41.5008 9.23478 41.5008 9.5V10.2486C40.7531 10.4221 40.1044 10.8846 39.6966 11.5349C39.4296 11.9861 39.2877 12.5003 39.2857 13.0246C39.2837 13.5488 39.4216 14.0641 39.6851 14.5173C40.307 15.6094 41.4149 15.9446 42.305 16.2141C43.2335 16.4951 43.6251 16.654 43.7594 17.0981C43.7935 17.2782 43.7626 17.4646 43.6722 17.6241C43.5817 17.7835 43.4376 17.9057 43.2655 17.9688Z" fill="#F3890F"/>
</svg>
