<svg width="100" height="100" viewBox="0 0 100 100" fill="none" xmlns="http://www.w3.org/2000/svg">
<path d="M87.2701 61.6603H56.8901C58.3098 60.1604 59.1038 58.1755 59.1101 56.1103V55.6103C59.0344 53.2963 58.0447 51.1068 56.3578 49.5211C54.6709 47.9354 52.4243 47.0829 50.1101 47.1503H20.4201V44.1503C20.4175 42.4617 19.7455 40.843 18.5515 39.6489C17.3574 38.4549 15.7387 37.7829 14.0501 37.7803H9.37013C7.68668 37.7829 6.0725 38.4507 4.87932 39.6383C3.68614 40.8259 3.01068 42.4369 3.00013 44.1203V81.5803C2.99486 82.4206 3.15566 83.2537 3.4733 84.0318C3.79094 84.8098 4.25915 85.5174 4.85106 86.114C5.44296 86.7105 6.14689 87.1842 6.92241 87.5079C7.69793 87.8317 8.52976 87.999 9.37013 88.0003H14.0501C15.7387 87.9976 17.3574 87.3257 18.5515 86.1316C19.7455 84.9376 20.4175 83.3189 20.4201 81.6303V79.6303H87.2701C92.6301 79.6303 97.0001 75.6303 97.0001 70.6303C97.0001 65.6303 92.6301 61.6603 87.2701 61.6603ZM17.5101 81.5803C17.4996 82.491 17.1304 83.3608 16.4827 84.001C15.8349 84.6413 14.9609 85.0003 14.0501 85.0003H9.37013C8.45248 85.0003 7.57241 84.6357 6.92354 83.9869C6.27466 83.338 5.91013 82.4579 5.91013 81.5403V44.1203C5.91013 43.2026 6.27466 42.3226 6.92354 41.6737C7.57241 41.0248 8.45248 40.6603 9.37013 40.6603H14.0501C14.9678 40.6603 15.8478 41.0248 16.4967 41.6737C17.1456 42.3226 17.5101 43.2026 17.5101 44.1203V81.5803ZM87.2701 76.7103H20.4201V50.0603H50.1301C51.6701 49.9951 53.1731 50.5424 54.3106 51.5825C55.4481 52.6225 56.1275 54.0707 56.2001 55.6103V56.1103C56.1275 57.6499 55.4481 59.098 54.3106 60.1381C53.1731 61.1781 51.6701 61.7254 50.1301 61.6603H27.8301V64.5703H87.2701C91.0301 64.5703 94.0901 67.2903 94.0901 70.6403C94.0901 73.9903 91.0001 76.7103 87.2701 76.7103Z" fill="white"/>
<path d="M74.5294 51.8698C78.4685 51.8678 82.3185 50.6974 85.5922 48.5067C88.866 46.316 91.4163 43.2034 92.9205 39.5628C94.4247 35.9223 94.8153 31.9173 94.0427 28.0547C93.27 24.1921 91.369 20.6455 88.5802 17.8636C85.7913 15.0818 82.2399 13.1897 78.3754 12.4268C74.5109 11.6639 70.5069 12.0645 66.8701 13.5778C63.2333 15.0912 60.1272 17.6493 57.9447 20.9286C55.7622 24.2078 54.6015 28.0607 54.6094 31.9998C54.6253 37.2734 56.7307 42.3258 60.4644 46.0502C64.1981 49.7745 69.2558 51.8672 74.5294 51.8698ZM74.5294 14.9598C77.8917 14.9598 81.1785 15.9568 83.9741 17.8248C86.7697 19.6928 88.9487 22.3478 90.2354 25.4542C91.5221 28.5605 91.8587 31.9787 91.2028 35.2763C90.5468 38.574 88.9277 41.6031 86.5502 43.9806C84.1727 46.3581 81.1436 47.9772 77.8459 48.6332C74.5483 49.2891 71.1301 48.9525 68.0238 47.6658C64.9175 46.3791 62.2624 44.2001 60.3944 41.4045C58.5264 38.6089 57.5294 35.3221 57.5294 31.9598C57.54 27.4581 59.3357 23.1443 62.5227 19.9648C65.7097 16.7854 70.0277 14.9998 74.5294 14.9998V14.9598Z" fill="white"/>
<path d="M74.2705 41.8099C71.5805 41.8099 69.3905 39.9599 69.3905 37.6799H66.4805C66.4805 41.3899 69.6805 44.4399 73.7105 44.6799V46.5299H76.6205V44.3899C78.1315 44.0129 79.4787 43.1542 80.4583 41.9436C81.438 40.733 81.9969 39.2363 82.0505 37.6799C82.0505 34.0399 78.9905 31.0299 75.0505 30.6799C72.5205 30.6799 70.4505 28.9399 70.4505 26.7899C70.4505 24.6399 72.5205 22.8999 75.0505 22.8999C77.5805 22.8999 79.6405 24.6499 79.6405 26.7899H82.5505C82.4873 25.1623 81.8585 23.6078 80.7724 22.3939C79.6864 21.1801 78.211 20.383 76.6005 20.1399V17.3799H73.7105V20.0599C72.0605 20.2629 70.5367 21.0465 69.4117 22.2704C68.2867 23.4944 67.634 25.0787 67.5705 26.7399C67.5705 30.2399 70.5105 33.1299 74.2705 33.4999C76.9605 33.4999 79.1405 35.3499 79.1405 37.6399C79.1405 39.9299 77.0005 41.8099 74.2705 41.8099Z" fill="white"/>
</svg>
