<svg width="69" height="70" viewBox="0 0 69 70" fill="none" xmlns="http://www.w3.org/2000/svg">
<path d="M63.3054 24.0424C64.8369 22.5936 65.8001 20.5482 65.8001 18.2781C65.8001 13.899 62.2378 10.3367 57.8587 10.3367C53.4796 10.3367 49.9173 13.899 49.9173 18.2781C49.9173 21.0644 51.3627 23.516 53.5397 24.9329C52.0399 25.9551 51.0518 27.675 51.0518 29.6229V37.5643H46.5139V31.8919C46.5139 27.8327 43.4508 24.4792 39.5141 24.0117C41.0275 22.5653 41.9759 20.5323 41.9759 18.2781C41.9759 13.899 38.4136 10.3367 34.0345 10.3367C29.6554 10.3367 26.0931 13.899 26.0931 18.2781C26.0931 20.5323 27.0416 22.5653 28.555 24.0117C24.6183 24.4792 21.5552 27.8327 21.5552 31.8919V37.5643H17.0173V29.6229C17.0173 27.675 16.0291 25.9551 14.5293 24.9329C16.7064 23.516 18.1518 21.0644 18.1518 18.2781C18.1518 13.899 14.5895 10.3367 10.2104 10.3367C5.83125 10.3367 2.26897 13.899 2.26897 18.2781C2.26897 20.5482 3.23215 22.5936 4.7637 24.0424C2.0693 24.4803 0 26.806 0 29.6229V46.6402C0 49.3788 1.95245 51.6705 4.53794 52.198V69.3299H6.80691V52.3126H17.0173V68.1954C17.0173 68.8216 17.5255 69.3299 18.1518 69.3299H24.9587C25.5849 69.3299 26.0931 68.8216 26.0931 68.1954V50.0436H32.9001V67.0609H28.3621V69.3299H39.707V67.0609H35.169V50.0436H41.9759V68.1954C41.9759 68.8216 42.4842 69.3299 43.1104 69.3299H49.9173C50.5436 69.3299 51.0518 68.8216 51.0518 68.1954V52.3126H61.2622V69.3299H63.5311V52.198C66.1166 51.6705 68.0691 49.38 68.0691 46.6402V29.6229C68.0691 26.806 65.9998 24.4803 63.3054 24.0424ZM52.1863 18.2781C52.1863 15.1503 54.7309 12.6056 57.8587 12.6056C60.9865 12.6056 63.5311 15.1503 63.5311 18.2781C63.5311 21.4058 60.9865 23.9505 57.8587 23.9505C54.7309 23.9505 52.1863 21.4058 52.1863 18.2781ZM28.3621 18.2781C28.3621 15.1503 30.9068 12.6056 34.0345 12.6056C37.1623 12.6056 39.707 15.1503 39.707 18.2781C39.707 21.4058 37.1623 23.9505 34.0345 23.9505C30.9068 23.9505 28.3621 21.4058 28.3621 18.2781ZM35.8009 26.2195L34.0345 30.9298L32.2681 26.2195H35.8009ZM23.8242 31.8919C23.8242 28.7641 26.3688 26.2195 29.4966 26.2195H29.8449L32.9727 34.559C33.1383 35.0015 33.5615 35.2953 34.0345 35.2953C34.5076 35.2953 34.9308 35.0015 35.0976 34.559L38.2242 26.2195H38.5725C41.7003 26.2195 44.2449 28.7641 44.2449 31.8919V37.5643H39.707C39.0807 37.5643 38.5725 38.0725 38.5725 38.6988V43.2367H29.4966V38.6988C29.4966 38.0725 28.9884 37.5643 28.3621 37.5643H23.8242V31.8919ZM4.53794 18.2781C4.53794 15.1503 7.08259 12.6056 10.2104 12.6056C13.3381 12.6056 15.8828 15.1503 15.8828 18.2781C15.8828 21.4058 13.3381 23.9505 10.2104 23.9505C7.08259 23.9505 4.53794 21.4058 4.53794 18.2781ZM23.8242 67.0609H19.2862V51.1781C19.2862 50.5519 18.778 50.0436 18.1518 50.0436H5.67242C3.79599 50.0436 2.26897 48.5166 2.26897 46.6402V29.6229C2.26897 27.7465 3.79599 26.2195 5.67242 26.2195H11.3448C13.2213 26.2195 14.7483 27.7465 14.7483 29.6229V38.6988C14.7483 39.325 15.2565 39.8333 15.8828 39.8333H27.2276V43.2367H11.3448V33.0264H9.07588V44.3712C9.07588 44.9974 9.58413 45.5057 10.2104 45.5057H20.4207C22.2972 45.5057 23.8242 47.0327 23.8242 48.9091V67.0609ZM42.103 47.7747H25.9661C25.7948 46.9385 25.451 46.1648 24.9564 45.5057H28.3621H39.707H43.1127C42.6181 46.1648 42.2743 46.9385 42.103 47.7747ZM65.8001 46.6402C65.8001 48.5166 64.2731 50.0436 62.3967 50.0436H49.9173C49.2911 50.0436 48.7828 50.5519 48.7828 51.1781V67.0609H44.2449V48.9091C44.2449 47.0327 45.7719 45.5057 47.6484 45.5057H57.8587C58.485 45.5057 58.9932 44.9974 58.9932 44.3712V33.0264H56.7242V43.2367H40.8414V39.8333H52.1863C52.8125 39.8333 53.3208 39.325 53.3208 38.6988V29.6229C53.3208 27.7465 54.8478 26.2195 56.7242 26.2195H62.3967C64.2731 26.2195 65.8001 27.7465 65.8001 29.6229V46.6402Z" fill="#333333"/>
<path d="M35.169 37.5636H32.9V39.8326H35.169V37.5636Z" fill="#1D73F8"/>
<path d="M28.3622 0.125977H12.4794C11.8532 0.125977 11.3449 0.634226 11.3449 1.26046V6.93288C11.3449 7.55912 11.8532 8.06737 12.4794 8.06737H17.0174V10.3363C17.0174 10.7663 17.2601 11.1588 17.6447 11.3517C17.8047 11.4311 17.9794 11.4708 18.1518 11.4708C18.3924 11.4708 18.6317 11.3937 18.8325 11.2439L23.0676 8.06737H28.3622C28.9884 8.06737 29.4967 7.55912 29.4967 6.93288V1.26046C29.4967 0.634226 28.9884 0.125977 28.3622 0.125977ZM27.2277 5.7984H22.6898C22.4447 5.7984 22.2054 5.87781 22.0091 6.0253L19.2863 8.06737V6.93288C19.2863 6.30665 18.7781 5.7984 18.1518 5.7984H13.6139V2.39495H27.2277V5.7984Z" fill="#1D73F8"/>
<path d="M41.976 3.52875H39.707V5.79772H41.976V3.52875Z" fill="#1D73F8"/>
<path d="M46.5139 3.52875H44.245V5.79772H46.5139V3.52875Z" fill="#1D73F8"/>
<path d="M51.0519 3.52875H48.7829V5.79772H51.0519V3.52875Z" fill="#1D73F8"/>
<path d="M42 48H26V50H33V67H28.5V69.5H39.5V67H35L35.5 50H42V48Z" fill="#1D73F8"/>
</svg>
