<svg xmlns="http://www.w3.org/2000/svg" width="256" height="256" version="1.0" viewBox="0 0 192 192"><path d="M29.1 25.1c-1 .4-2 1.3-2.3 2.1-1 2.8-.6 130.3.4 133.8 2 6.6 7.8 10.1 16.5 9.8 3.2-.1 6.3.1 6.9.5.6.3 1.4.4 1.7 0 1-.9 8.7-1 8.7 0 0 .4.6.5 1.2.1 1.8-1.1 4.8-1.2 4.8-.2 0 .5.5.6 1.1.3 1.8-1.2 5.9-1.3 5.9-.1 0 .7.3.7.8.1.9-1.2 6.2-1.4 6.2-.2 0 .4.5.5 1.1.2 1.5-1 18.9-1.1 18.9-.2 0 .5.5.5 1.1.1 1.6-.9 14.9-1.1 14.9-.1 0 .5.5.5 1.1.1 1.6-1 14.9-1.1 14.9-.1 0 .5.5.5 1.1.1 1.6-.9 14.9-1.1 14.9-.1 0 .5.5.5 1.1.1.6-.3 3.7-.7 6.9-.8 4.3-.1 6.6-.8 9.3-2.6 1.9-1.3 3.3-2.8 3.1-3.2-.3-.4-.1-.8.4-.8s1.3-1 1.7-2.3c.3-1.2.7-30.1.7-64.2.1-68.7.3-65.8-6.4-70.6-3.1-2.2-3.9-2.3-27-2.4-15.6 0-23.9.3-24.1 1-.3.9-.1 30.2.2 31.5 0 .3 4 .5 8.9.5 9.6-.2 13.6 1.1 14.8 4.7.4 1.3.8 17.1.8 35.2.1 35-.2 37.9-4.6 39.5-1.3.4-17.7.8-36.5.7l-34.1-.1-2.6-2.4-2.6-2.4V24.5H45c-7.7 0-14.8.3-15.9.6z"/><path d="M81.2 25.1c-2.8 1-2.9 2-2.9 17.5 0 12.9.1 14.2 1.9 15.3 1.1.7 1.7.8 1.4.2-.9-1.3 3.7-1 4.6.4.5.7.8.6.8-.1 0-1.3 15.8-1.3 17.9.1.9.5 1.2.4.7-.3-.4-.8.4-1 2.6-.9l3.3.3-.3-16.6-.3-16.5H97c-7.7 0-14.8.3-15.8.6zM78.3 88.6c0 15.5.2 28.6.6 29.1 1.4 2.2 5 3 12.4 2.8 5.3-.2 7.7 0 7.7.8s.3.9.8.1c.4-.6 1.8-1 3.2-1 1.4 0 3.7-.3 5.2-.7l2.7-.7.1-29 .1-29h-3.3c-1.8-.1-9.2-.2-16.4-.3l-13.1-.2v28.1z"/></svg>