<svg width="465" height="466" viewBox="0 0 465 466" fill="none" xmlns="http://www.w3.org/2000/svg">
<path d="M50.1223 415.576L31 404.425L31 382.158L50.1223 371L69.2521 382.158L69.2521 404.425L50.1223 415.576ZM31.8057 403.971L50.1223 414.648L68.4606 403.971L68.4606 382.597L50.1223 371.914L31.8057 382.597L31.8057 403.971Z" fill="black" fill-opacity="0.15"/>
<path opacity="0.66" d="M199.849 306.391L162 284.348L162 240.247L162.194 240.118L199.849 218.182L237.684 240.247L237.684 284.348L237.497 284.456L199.849 306.391ZM162.791 283.873L199.849 305.456L236.914 283.873L236.914 240.707L199.849 219.125L162.791 240.707L162.791 283.873Z" fill="black" fill-opacity="0.15"/>
<path opacity="0.67" d="M175.67 465.717L163.166 458.429L163.166 415.256L200.224 393.666L237.275 415.256L237.275 458.429L224.764 465.717L226.347 465.717L238.08 458.882L238.08 414.781L200.224 392.738L162.36 414.781L162.36 458.882L174.094 465.717L175.67 465.717Z" fill="black" fill-opacity="0.15"/>
<path opacity="0.56" d="M1.62463 465.717L50.4019 437.3L99.1794 465.717L100.776 465.717L50.4019 436.364L0.0273412 465.717L1.62463 465.717Z" fill="black" fill-opacity="0.15"/>
<path opacity="0.64" d="M350.031 175.484L274.735 131.599L274.735 43.8783L274.93 43.756L350.031 0.000128653L425.348 43.8855L425.348 131.613L425.14 131.743L350.031 175.484ZM275.527 131.181L350.031 174.585L424.543 131.181L424.543 44.3316L350.031 0.964187L275.527 44.3675L275.527 131.181Z" fill="black" fill-opacity="0.15"/>
<path opacity="0.65" d="M50.4026 110.023L31.2803 98.8857L31.2803 76.5832L31.4673 76.4825L50.4026 65.4464L69.5323 76.5976L69.5323 98.9001L69.3237 99.008L50.4026 110.023ZM32.0643 98.4109L50.4026 109.094L68.7265 98.4109L68.7265 77.0725L50.4026 66.432L32.0643 77.1085L32.0643 98.4109Z" fill="black" fill-opacity="0.15"/>
<path opacity="0.62" d="M199.849 284.578L180.727 273.427L180.727 251.125L180.914 251.003L199.849 239.988L218.979 251.125L218.979 273.427L218.77 273.549L199.849 284.578ZM181.511 272.967L199.849 283.643L218.173 272.967L218.173 251.607L199.849 240.93L181.511 251.607L181.511 272.967Z" fill="black" fill-opacity="0.15"/>
<path opacity="0.99" d="M350.031 459.127L330.901 447.975L330.901 425.709L350.031 414.551L369.161 425.709L369.161 447.975L350.031 459.127ZM331.714 447.522L350.031 458.199L368.369 447.522L368.369 426.148L350.031 415.465L331.714 426.148L331.714 447.522Z" fill="black" fill-opacity="0.15"/>
<path opacity="0.52" d="M200.223 110.023L181.101 98.8857L181.101 76.5832L181.295 76.4825L200.223 65.4464L219.338 76.5832L219.338 98.8857L219.144 98.9936L200.223 110.023ZM181.892 98.4109L200.223 109.094L218.547 98.4109L218.547 77.0725L200.223 66.432L181.892 77.1085L181.892 98.4109Z" fill="black" fill-opacity="0.15"/>
<path opacity="0.51" d="M200.223 175.484L200.015 175.362L124.928 131.606L124.928 43.8783L125.115 43.756L200.238 0.000128654L200.432 0.122464L275.541 43.8783L275.541 131.606L275.346 131.735L200.223 175.484ZM125.705 131.181L200.223 174.585L274.735 131.181L274.735 44.3316L200.223 0.964187L125.705 44.3675L125.705 131.181Z" fill="black" fill-opacity="0.15"/>
<path opacity="0.65" d="M465.219 328.924L425.348 305.686L425.348 218.887L465.219 195.649L465.219 194.736L424.751 218.304L424.542 218.434L424.542 306.161L465.219 329.859L465.219 328.924Z" fill="black" fill-opacity="0.15"/>
<path opacity="0.51" d="M350.031 437.299L274.735 393.414L274.735 305.644L274.93 305.543L350.031 261.787L425.348 305.672L425.348 393.443L425.14 393.551L350.031 437.299ZM275.527 392.968L350.031 436.364L424.542 392.968L424.542 306.162L350.031 262.766L275.527 306.162L275.527 392.968Z" fill="black" fill-opacity="0.15"/>
<path opacity="0.65" d="M465.219 285.276L462.794 283.873L462.794 240.7L465.219 239.297L465.219 238.362L462.197 240.117L462.003 240.247L462.003 284.348L465.219 286.211L465.219 285.276Z" fill="black" fill-opacity="0.15"/>
<path opacity="0.72" d="M301.253 465.717L350.031 437.3L398.808 465.717L400.405 465.717L350.031 436.364L299.656 465.717L301.253 465.717Z" fill="black" fill-opacity="0.15"/>
<path opacity="0.69" d="M125.697 465.717L125.697 393.443L200.223 350.04L274.735 393.443L274.735 465.717L275.526 465.717L275.526 392.968L200.417 349.213L200.223 349.105L125.122 392.86L124.913 392.968L124.913 465.717L125.697 465.717Z" fill="black" fill-opacity="0.15"/>
<path opacity="0.85" d="M350.031 437.299L274.735 393.414L274.735 305.644L274.93 305.543L350.031 261.787L425.348 305.672L425.348 393.443L425.14 393.551L350.031 437.299ZM275.527 392.968L350.031 436.364L424.542 392.968L424.542 306.162L350.031 262.766L275.527 306.162L275.527 392.968Z" fill="black" fill-opacity="0.15"/>
<path opacity="0.81" d="M465.219 328.924L350.433 262.06L350.433 87.9795L465.219 21.1155L465.219 20.1803L349.843 87.3967L349.649 87.5046L349.649 262.514L465.219 329.859L465.219 328.924Z" fill="black" fill-opacity="0.15"/>
<path d="M465.219 241.65L425.348 218.434L425.348 131.613L465.219 108.39L465.219 107.462L424.751 131.03L424.542 131.152L424.542 218.887L465.219 242.585L465.219 241.65Z" fill="black" fill-opacity="0.15"/>
</svg>
