<svg width="342" height="239" viewBox="0 0 342 239" fill="none" xmlns="http://www.w3.org/2000/svg">
<path d="M25.1733 42.1947C20.9968 46.3784 18.651 52.0484 18.651 57.96C18.651 63.8716 20.9968 69.5416 25.1733 73.7253L151.125 199.805C155.989 204.669 162.56 206.845 168.917 206.248C174.677 206.248 180.416 204.093 184.789 199.72L310.805 73.704C312.874 71.6351 314.515 69.1789 315.635 66.4757C316.755 63.7725 317.331 60.8752 317.331 57.9493C317.331 55.0234 316.755 52.1262 315.635 49.423C314.515 46.7198 312.874 44.2636 310.805 42.1947C308.736 40.1257 306.28 38.4846 303.577 37.3649C300.874 36.2452 297.977 35.6689 295.051 35.6689C292.125 35.6689 289.227 36.2452 286.524 37.3649C283.821 38.4846 281.365 40.1257 279.296 42.1947L167.936 153.555L56.6613 42.1947C54.5948 40.1254 52.1406 38.4838 49.4391 37.3637C46.7376 36.2437 43.8418 35.6672 40.9173 35.6672C37.9929 35.6672 35.0971 36.2437 32.3956 37.3637C29.6941 38.4838 27.2399 40.1254 25.1733 42.1947Z" fill="white"/>
</svg>
