<svg width="24" height="24" viewBox="0 0 24 24" fill="none" xmlns="http://www.w3.org/2000/svg">
<path d="M12 2C10.0222 2 8.08879 2.58649 6.4443 3.6853C4.79981 4.78412 3.51809 6.3459 2.76121 8.17317C2.00433 10.0004 1.8063 12.0111 2.19215 13.9509C2.578 15.8907 3.53041 17.6725 4.92894 19.0711C6.32746 20.4696 8.10929 21.422 10.0491 21.8079C11.9889 22.1937 13.9996 21.9957 15.8268 21.2388C17.6541 20.4819 19.2159 19.2002 20.3147 17.5557C21.4135 15.9112 22 13.9778 22 12C22 10.6868 21.7413 9.38642 21.2388 8.17317C20.7363 6.95991 19.9997 5.85752 19.0711 4.92893C18.1425 4.00035 17.0401 3.26375 15.8268 2.7612C14.6136 2.25866 13.3132 2 12 2ZM16.87 14.31C16.9549 13.5429 16.9983 12.7718 17 12C16.9983 11.2282 16.9549 10.4571 16.87 9.69C18.87 10.32 20 11.26 20 12C20 12.74 18.85 13.68 16.87 14.31ZM12 20C11.26 20 10.32 18.85 9.69 16.87C10.4571 16.9549 11.2282 16.9983 12 17C12.7718 16.9983 13.5429 16.9549 14.31 16.87C13.68 18.85 12.74 20 12 20ZM12 15C11.066 15.0008 10.1333 14.9306 9.21 14.79C8.93003 12.9405 8.93003 11.0595 9.21 9.21C11.0595 8.93002 12.9405 8.93002 14.79 9.21C14.9306 10.1333 15.0008 11.066 15 12C15.0008 12.934 14.9306 13.8667 14.79 14.79C13.8667 14.9306 12.934 15.0008 12 15ZM4 12C4 11.26 5.15 10.32 7.13 9.69C6.95668 11.2251 6.95668 12.7749 7.13 14.31C5.15 13.68 4 12.74 4 12ZM12 4C12.74 4 13.68 5.15 14.31 7.13C12.7749 6.95668 11.2251 6.95668 9.69 7.13C10.32 5.15 11.26 4 12 4ZM19.15 8.44C18.3044 8.02901 17.4156 7.71372 16.5 7.5C16.2863 6.58443 15.971 5.69559 15.56 4.85C17.1147 5.62513 18.3749 6.88528 19.15 8.44ZM8.44 4.85C8.02901 5.69559 7.71373 6.58443 7.5 7.5C6.58444 7.71372 5.6956 8.02901 4.85 8.44C5.62514 6.88528 6.88529 5.62513 8.44 4.85ZM4.85 15.56C5.6956 15.971 6.58444 16.2863 7.5 16.5C7.71373 17.4156 8.02901 18.3044 8.44 19.15C6.88529 18.3749 5.62514 17.1147 4.85 15.56ZM15.56 19.15C15.971 18.3044 16.2863 17.4156 16.5 16.5C17.4156 16.2863 18.3044 15.971 19.15 15.56C18.3749 17.1147 17.1147 18.3749 15.56 19.15Z" fill="white"/>
</svg>
