<svg width="96" height="96" viewBox="0 0 96 96" fill="none" xmlns="http://www.w3.org/2000/svg">
<path d="M74.6016 70.3948H71.1085V68.1649C71.2732 68.0331 71.416 67.9123 71.5808 67.7695V68.3956C71.5808 68.9778 72.0531 69.4611 72.6463 69.4611H74.964C75.6672 69.4582 76.3405 69.1768 76.8366 68.6786C77.3328 68.1804 77.6113 67.5059 77.6113 66.8028V56.0269C77.6113 49.5241 72.3607 44.2515 65.9018 44.2515C59.4428 44.2515 54.2032 49.535 54.2032 56.0269V66.8028C54.2032 67.5059 54.4817 68.1804 54.9779 68.6786C55.474 69.1768 56.1474 69.4582 56.8505 69.4611H59.1792C59.7614 69.4611 60.2447 68.9778 60.2447 68.3956V67.7695C60.3985 67.9013 60.5413 68.0221 60.7061 68.1429V70.3948H57.213C52.4127 70.3948 48.5022 74.3272 48.5022 79.1495V81.8517C48.5022 82.4339 48.9855 82.9172 49.5677 82.9172H82.2249C82.807 82.9172 83.2904 82.4339 83.2904 81.8517V79.1495C83.3013 74.3163 79.4018 70.3948 74.6016 70.3948ZM59.0474 54.1376C58.5201 54.2145 58.1357 54.6648 58.1357 55.1921V67.3301H56.8724C56.5868 67.3301 56.3452 67.0884 56.3452 66.8028V56.0269C56.3452 50.6994 60.6402 46.3715 65.9237 46.3715C71.1963 46.3715 75.4913 50.6994 75.4913 56.0269V66.8028C75.4913 67.0884 75.2496 67.3301 74.964 67.3301H73.7118V56.7849C73.7118 56.4553 73.547 56.1368 73.2834 55.9281C73.0088 55.7303 72.6683 55.6754 72.3387 55.7523C69.8782 56.4883 65.6272 54.9724 63.628 51.8528C63.5271 51.6979 63.3885 51.5713 63.2251 51.4848C63.0618 51.3983 62.8791 51.3548 62.6943 51.3585C62.5121 51.3637 62.3344 51.416 62.1784 51.5103C62.0225 51.6046 61.8937 51.7378 61.8045 51.8967C60.9258 53.4675 60.4644 53.9399 59.0474 54.1376ZM60.2667 64.5729V56.0599C61.464 55.7194 62.2 55.1042 62.8041 54.3024C65.1878 56.9606 68.7797 58.2678 71.5808 58.0481V64.551C70.3066 66.5611 68.2195 67.7695 65.9128 67.7695C63.617 67.7695 61.5299 66.5721 60.2667 64.5729ZM68.9775 69.3293V71.4603C68.9665 73.6792 66.6377 73.8439 65.9128 73.8439C65.1988 73.8439 62.859 73.6682 62.859 71.4603V69.3183C63.8257 69.6918 64.8582 69.9005 65.9128 69.9005C66.9673 69.9005 68.0108 69.6918 68.9775 69.3293ZM81.1703 80.7862H50.6442V79.1495C50.6442 75.4916 53.599 72.5258 57.224 72.5258H60.8489C61.3322 74.6238 63.2325 75.9749 65.9128 75.9749C68.593 75.9749 70.5043 74.6238 70.9876 72.5258H74.6125C78.2375 72.5258 81.1813 75.5026 81.1813 79.1495V80.7862H81.1703Z" fill="white"/>
<path d="M35.1669 68.6808V67.4396C37.0892 68.2304 38.9016 68.4391 40.3516 68.4391C42.1201 68.4391 43.3284 68.1206 43.4163 68.0876C43.8117 67.9778 44.1083 67.6483 44.1852 67.2418C44.2511 66.8244 44.0754 66.418 43.7348 66.1873C43.7019 66.1653 40.2527 63.6609 41.8675 58.2125C43.2515 53.5221 41.7906 49.2601 39.7145 47.1181C38.3963 45.756 36.7706 45.1299 35.1998 45.3606C31.1355 43.0208 26.6648 43.2186 23.1717 45.9208C19.3381 48.8756 17.6245 54.0384 18.9756 58.4652C20.4805 63.4082 16.9435 66.0885 16.8007 66.1983C16.4711 66.429 16.2954 66.8464 16.3723 67.2418C16.4492 67.6483 16.7348 67.9778 17.1302 68.0876C17.306 68.1426 21.1396 69.1861 25.3906 67.4396V68.6808C18.2616 69.1861 13 74.6564 13 81.8513C13 82.4335 13.4833 82.9168 14.0655 82.9168H46.503C47.0851 82.9168 47.5685 82.4115 47.5685 81.8184C47.5685 74.6564 42.3069 69.1861 35.1669 68.6808ZM19.6567 66.2972C21.0187 64.4627 22.1392 61.5298 21.0187 57.85C19.9203 54.2361 21.3373 50.018 24.4789 47.6014C27.4008 45.3496 31.0257 45.2727 34.4529 47.3817C34.6945 47.5465 34.9911 47.5794 35.2767 47.5135C36.5839 47.184 37.6714 48.0518 38.1986 48.601C39.8353 50.3036 40.9887 53.7418 39.8353 57.6084C38.5941 61.8155 39.7804 64.6714 40.9558 66.2972C39.7804 66.3521 38.1876 66.2532 36.496 65.6601C37.7702 63.7597 38.5611 61.2882 38.5611 58.575C38.5611 55.5872 37.5945 52.7092 35.9138 50.6881C35.6941 50.4244 35.3646 50.2707 35.0131 50.3036C34.6726 50.3366 34.365 50.5233 34.1783 50.8309C32.4098 53.8077 30.4435 53.9834 28.1697 54.1812C26.2913 54.3569 24.1603 54.5437 22.3808 56.4769C22.227 56.6417 22.1392 56.8394 22.1172 57.0481C22.0403 57.5095 22.0074 58.0148 22.0074 58.575C22.0074 61.2882 22.7982 63.7597 24.0725 65.6601C22.4028 66.2312 20.832 66.3411 19.6567 66.2972ZM24.1384 58.575C24.1384 58.2564 24.1493 57.9599 24.1713 57.6962C25.3577 56.5758 26.7527 56.466 28.3455 56.3122C30.4106 56.1364 32.926 55.9057 35.079 53.2475C35.9468 54.7634 36.4191 56.6307 36.4191 58.586C36.4191 63.3313 33.662 67.1979 30.2678 67.1979C26.8845 67.1869 24.1384 63.3313 24.1384 58.575ZM33.0359 68.6808V69.7024C33.0359 71.8114 31.1026 72.0421 30.2787 72.0421C29.4549 72.0421 27.5326 71.8114 27.5326 69.7024V68.6918C28.4004 69.0872 29.3231 69.3069 30.2787 69.3069C31.2454 69.3179 32.1681 69.0763 33.0359 68.6808ZM15.1859 80.7858C15.6583 75.3045 19.9093 71.2182 25.5444 70.8118C26.0167 72.8549 27.7962 74.1731 30.2897 74.1731C32.7832 74.1731 34.5737 72.8549 35.0351 70.8118C40.6702 71.2182 44.9102 75.2935 45.3935 80.7858H15.1859Z" fill="white"/>
<path d="M55.1259 14C50.2598 14 45.9209 15.6037 43.1308 18.1082C42.4278 18.0423 41.7467 18.0094 41.1096 18.0094C32.6954 18.0094 25.8521 22.8096 25.8521 28.7193C25.8521 30.9712 26.8626 33.1791 28.73 34.9915L28.7959 40.8902C28.7959 41.0297 28.8235 41.1677 28.8772 41.2963C28.9309 41.425 29.0096 41.5418 29.1087 41.6398C29.2077 41.7379 29.3253 41.8153 29.4545 41.8677C29.5837 41.92 29.722 41.9462 29.8614 41.9448C30.0811 41.9448 30.3118 41.8789 30.4875 41.747L34.8814 38.4956C36.8476 39.1107 38.9896 39.4293 41.1096 39.4293C45.833 39.4293 50.2598 37.8915 53.1377 35.3211C53.7858 35.376 54.4449 35.4199 55.1259 35.4199C57.3229 35.4199 59.4429 35.1014 61.4311 34.4643L65.8359 36.9907C66.0117 37.0896 66.1874 37.1335 66.3632 37.1335C66.5389 37.1335 66.7257 37.0896 66.8904 36.9907C67.22 36.804 67.4177 36.4635 67.4177 36.079L67.4836 30.9931C69.3729 29.1587 70.3725 26.9948 70.3725 24.7209C70.3945 18.8003 63.5401 14 55.1259 14ZM41.1096 37.3093C39.0335 37.3093 36.9355 36.9688 35.0352 36.3207C34.8727 36.2603 34.6974 36.2428 34.5262 36.2697C34.355 36.2966 34.1936 36.3671 34.0575 36.4744L30.905 38.7922L30.861 34.5302C30.85 34.2336 30.7182 33.948 30.5095 33.7393C28.8618 32.2564 27.9831 30.5208 27.9831 28.7193C27.9831 23.985 33.8598 20.1404 41.1096 20.1404H41.3403C40.4066 21.5244 39.8574 23.0733 39.8574 24.71C39.8574 29.4223 44.2183 33.4098 50.2378 34.8487C47.8102 36.4085 44.5588 37.3093 41.1096 37.3093ZM65.7261 29.7189C65.5174 29.9167 65.3855 30.2132 65.3746 30.5098L65.3306 34.2336L62.0792 32.3772C61.9203 32.2798 61.7383 32.2267 61.5519 32.2234C61.4311 32.2234 61.3213 32.2454 61.2004 32.2893C59.2891 32.9484 57.257 33.2779 55.1259 33.2779C47.8871 33.2779 41.9884 29.4333 41.9884 24.699C41.9884 22.9744 42.7793 21.3597 44.1194 20.0195C44.1414 19.9976 44.1524 19.9756 44.1743 19.9646C46.525 17.6469 50.5564 16.109 55.1259 16.109C62.3648 16.109 68.2635 19.9536 68.2635 24.699C68.2635 26.5004 67.3847 28.247 65.7261 29.7189Z" fill="white"/>
<path d="M47.9705 21.6694C47.1708 21.6694 46.4038 21.9871 45.8384 22.5526C45.2729 23.1181 44.9552 23.885 44.9552 24.6847C44.9552 25.4844 45.2729 26.2513 45.8384 26.8168C46.4038 27.3823 47.1708 27.7 47.9705 27.7C49.6291 27.7 50.9802 26.3489 50.9802 24.6902C50.9817 24.294 50.9049 23.9015 50.7543 23.535C50.6037 23.1686 50.3822 22.8355 50.1026 22.5549C49.823 22.2742 49.4907 22.0515 49.1248 21.8996C48.7589 21.7476 48.3666 21.6694 47.9705 21.6694ZM47.9705 25.5799C47.7359 25.5799 47.511 25.4868 47.3452 25.3209C47.1794 25.1551 47.0862 24.9302 47.0862 24.6957C47.0862 24.4612 47.1794 24.2362 47.3452 24.0704C47.511 23.9046 47.7359 23.8114 47.9705 23.8114C48.4648 23.8114 48.8492 24.2179 48.8492 24.7012C48.8602 25.1735 48.4648 25.5799 47.9705 25.5799ZM55.3411 21.6694C54.5414 21.6694 53.7745 21.9871 53.209 22.5526C52.6435 23.1181 52.3259 23.885 52.3259 24.6847C52.3259 25.4844 52.6435 26.2513 53.209 26.8168C53.7745 27.3823 54.5414 27.7 55.3411 27.7C56.9998 27.7 58.3509 26.3489 58.3509 24.6902C58.3523 24.294 58.2756 23.9015 58.1249 23.535C57.9743 23.1686 57.7529 22.8355 57.4732 22.5549C57.1936 22.2742 56.8613 22.0515 56.4955 21.8996C56.1296 21.7476 55.7373 21.6694 55.3411 21.6694ZM55.3411 25.5799C55.1066 25.5799 54.8817 25.4868 54.7159 25.3209C54.55 25.1551 54.4569 24.9302 54.4569 24.6957C54.4569 24.4612 54.55 24.2362 54.7159 24.0704C54.8817 23.9046 55.1066 23.8114 55.3411 23.8114C55.8354 23.8114 56.2199 24.2179 56.2199 24.7012C56.2309 25.1735 55.8354 25.5799 55.3411 25.5799ZM62.7118 21.6694C61.9121 21.6694 61.1451 21.9871 60.5797 22.5526C60.0142 23.1181 59.6965 23.885 59.6965 24.6847C59.6965 25.4844 60.0142 26.2513 60.5797 26.8168C61.1451 27.3823 61.9121 27.7 62.7118 27.7C64.3704 27.7 65.7215 26.3489 65.7215 24.6902C65.723 24.294 65.6462 23.9015 65.4956 23.535C65.345 23.1686 65.1235 22.8355 64.8439 22.5549C64.5643 22.2742 64.232 22.0515 63.8661 21.8996C63.5002 21.7476 63.1079 21.6694 62.7118 21.6694ZM62.7118 25.5799C62.4773 25.5799 62.2523 25.4868 62.0865 25.3209C61.9207 25.1551 61.8275 24.9302 61.8275 24.6957C61.8275 24.4612 61.9207 24.2362 62.0865 24.0704C62.2523 23.9046 62.4773 23.8114 62.7118 23.8114C63.2061 23.8114 63.5905 24.2179 63.5905 24.7012C63.6015 25.1735 63.2061 25.5799 62.7118 25.5799Z" fill="white"/>
</svg>
