<svg width="360" height="358" viewBox="0 0 360 358" fill="none" xmlns="http://www.w3.org/2000/svg">
<path d="M172.783 357.24C165.271 357.24 155.783 354.696 136.783 344.232C125.994 338.277 115.575 331.675 105.583 324.464L61.4631 337.696C60.2601 338.056 58.9891 338.127 57.7541 337.905C56.5181 337.683 55.3531 337.173 54.3511 336.416C30.5677 318.512 12.0131 294.565 0.614671 267.064C0.127671 265.89 -0.0727286 264.617 0.0301714 263.351C0.133071 262.084 0.536271 260.86 1.20647 259.78C1.87657 258.7 2.79427 257.796 3.88367 257.141C4.97297 256.487 6.20267 256.101 7.47067 256.016C30.6337 254.57 53.3261 248.829 74.3911 239.088C81.7051 235.678 88.7871 231.79 95.5911 227.448C105.009 220.842 114.97 215.045 125.367 210.12C131.779 207.325 138.344 204.894 145.031 202.84C145.631 202.68 146.639 202.408 147.943 202.024L149.279 201.608C150.567 201.208 151.759 200.832 154.599 200.088C157.295 199.392 160.919 198.512 165.399 197.592C175.546 195.16 186.007 194.307 196.415 195.064C201.064 195.406 205.666 196.234 210.143 197.536C216.079 199.312 221.399 201.48 226.543 203.568C232.069 205.936 237.723 207.992 243.479 209.728C248.441 211.149 253.533 212.068 258.679 212.472C263.775 212.96 270.119 213.568 272.871 220.304C273.693 222.582 273.986 225.017 273.726 227.425C273.467 229.833 272.663 232.15 271.375 234.2C267.867 241.028 262.154 246.469 255.165 249.642C248.176 252.815 240.319 253.533 232.871 251.68C230.663 251.344 228.655 250.96 226.807 250.528C229.557 252.504 232.438 254.289 235.431 255.872C246.761 261.843 259.427 264.825 272.231 264.536L296.391 264.528C298.37 264.53 300.279 265.265 301.747 266.592C303.216 267.919 304.141 269.743 304.343 271.712C305.138 278.177 304.011 284.732 301.103 290.56C293.503 305.296 274.463 312.784 253.007 309.744C236.636 322.5 219.826 334.681 202.607 346.264C194.502 352.495 184.789 356.286 174.607 357.192C173.999 357.223 173.391 357.239 172.783 357.24ZM107.095 307.656C108.809 307.658 110.478 308.21 111.855 309.232C122.254 316.948 133.158 323.958 144.495 330.216C165.295 341.664 171.015 341.352 173.759 341.216C181.05 340.432 187.964 337.572 193.679 332.976C211.552 320.954 228.977 308.279 245.919 294.976C246.821 294.267 247.865 293.761 248.981 293.493C250.097 293.225 251.257 293.202 252.383 293.424C267.775 296.416 282.287 292.128 286.879 283.232C287.323 282.37 287.676 281.464 287.935 280.528H272.423C257.483 280.861 242.691 277.501 229.361 270.747C216.031 263.992 204.574 254.052 196.007 241.808C192.584 241.577 189.149 241.58 185.727 241.816C184.287 241.92 183.087 242.04 182.287 242.136C180.179 242.38 178.06 241.777 176.397 240.459C174.734 239.141 173.663 237.216 173.419 235.108C173.175 233 173.778 230.882 175.096 229.219C176.414 227.556 178.339 226.484 180.447 226.24C181.407 226.128 182.847 225.984 184.623 225.856C190.207 225.477 195.813 225.603 201.375 226.232L201.527 226.248C207.427 227 213.187 228.609 218.623 231.024C223.949 233.354 229.556 234.981 235.303 235.864C238.159 236.594 241.126 236.792 244.055 236.448C248.926 235.198 253.228 232.329 256.255 228.312C250.437 227.798 244.683 226.726 239.071 225.112C232.764 223.219 226.567 220.976 220.511 218.392C215.495 216.344 210.759 214.424 205.551 212.864C202.138 211.878 198.63 211.256 195.087 211.008C186.193 210.402 177.26 211.165 168.599 213.272C164.455 214.12 161.103 214.936 158.615 215.576C156.175 216.216 155.159 216.536 154.055 216.872L152.527 217.352C151.007 217.8 149.831 218.12 149.351 218.24C143.437 220.085 137.627 222.242 131.943 224.704C122.383 229.271 113.218 234.623 104.543 240.704C97.0391 245.515 89.2211 249.818 81.1431 253.584C61.7931 262.561 41.1416 268.412 19.9587 270.92C29.767 290.44 43.7055 307.591 60.8071 321.184L104.799 308C105.543 307.777 106.317 307.656 107.095 307.656Z" fill="#083863"/>
<path d="M352 280H260.72C258.598 280 256.563 279.157 255.063 277.657C253.563 276.157 252.72 274.122 252.72 272C252.72 269.878 253.563 267.843 255.063 266.343C256.563 264.843 258.598 264 260.72 264H344V16H80V248.96C80 251.082 79.157 253.117 77.657 254.617C76.157 256.117 74.122 256.96 72 256.96C69.878 256.96 67.843 256.117 66.343 254.617C64.843 253.117 64 251.082 64 248.96V8C64 5.8783 64.843 3.8434 66.343 2.3431C67.843 0.842901 69.878 0 72 0H352C354.122 0 356.157 0.842901 357.657 2.3431C359.157 3.8434 360 5.8783 360 8V272C360 274.122 359.157 276.157 357.657 277.657C356.157 279.157 354.122 280 352 280Z" fill="#083863"/>
</svg>
