<svg width="442" height="442" viewBox="0 0 442 442" fill="none" xmlns="http://www.w3.org/2000/svg">
<path d="M377.053 64.9462C290.861 -21.2464 151.138 -21.2464 64.9452 64.9462C-21.2474 151.139 -21.2474 290.862 64.9452 377.054C151.138 463.247 290.861 463.247 377.053 377.054C463.246 290.862 463.228 151.139 377.053 64.9462ZM341.107 166.428L206.999 300.554C203.688 303.864 199.198 305.724 194.516 305.724C189.835 305.724 185.345 303.864 182.034 300.554L100.891 219.394C99.2519 217.754 97.9517 215.808 97.0645 213.667C96.1774 211.525 95.7208 209.23 95.7208 206.911C95.7208 202.23 97.5806 197.74 100.891 194.429C104.202 191.119 108.692 189.259 113.373 189.259C118.055 189.259 122.545 191.119 125.856 194.429L194.516 263.09L316.143 141.446C317.783 139.807 319.73 138.507 321.873 137.62C324.016 136.733 326.312 136.278 328.631 136.278C330.95 136.279 333.247 136.737 335.389 137.625C337.531 138.513 339.477 139.815 341.116 141.455C342.755 143.095 344.055 145.042 344.942 147.185C345.829 149.328 346.285 151.624 346.284 153.943C346.283 156.262 345.826 158.558 344.937 160.701C344.049 162.843 342.748 164.789 341.107 166.428Z" fill="#111457"/>
</svg>
