<?xml version="1.0" standalone="no"?>
<!DOCTYPE svg PUBLIC "-//W3C//DTD SVG 20010904//EN"
 "http://www.w3.org/TR/2001/REC-SVG-20010904/DTD/svg10.dtd">
<svg version="1.0" xmlns="http://www.w3.org/2000/svg"
 width="192.000000pt" height="192.000000pt" viewBox="0 0 192.000000 192.000000"
 preserveAspectRatio="xMidYMid meet">
<metadata>
Created by potrace 1.14, written by Peter Selinger 2001-2017
</metadata>
<g transform="translate(0.000000,192.000000) scale(0.100000,-0.100000)"
fill="#000000" stroke="none">
<path d="M291 1669 c-10 -4 -20 -13 -23 -21 -10 -28 -6 -1303 4 -1338 20 -66
78 -101 165 -98 32 1 63 -1 69 -5 6 -3 14 -4 17 0 10 9 87 10 87 0 0 -4 6 -5
12 -1 18 11 48 12 48 2 0 -5 5 -6 11 -3 18 12 59 13 59 1 0 -7 3 -7 8 -1 9 12
62 14 62 2 0 -4 5 -5 11 -2 15 10 189 11 189 2 0 -5 5 -5 11 -1 16 9 149 11
149 1 0 -5 5 -5 11 -1 16 10 149 11 149 1 0 -5 5 -5 11 -1 16 9 149 11 149 1
0 -5 5 -5 11 -1 6 3 37 7 69 8 43 1 66 8 93 26 19 13 33 28 31 32 -3 4 -1 8 4
8 5 0 13 10 17 23 3 12 7 301 7 642 1 687 3 658 -64 706 -31 22 -39 23 -270
24 -156 0 -239 -3 -241 -10 -3 -9 -1 -302 2 -315 0 -3 40 -5 89 -5 96 2 136
-11 148 -47 4 -13 8 -171 8 -352 1 -350 -2 -379 -46 -395 -13 -4 -177 -8 -365
-7 l-341 1 -26 24 -26 24 0 541 0 541 -140 0 c-77 0 -148 -3 -159 -6z"/>
<path d="M812 1669 c-28 -10 -29 -20 -29 -175 0 -129 1 -142 19 -153 11 -7 17
-8 14 -2 -9 13 37 10 46 -4 5 -7 8 -6 8 1 0 13 158 13 179 -1 9 -5 12 -4 7 3
-4 8 4 10 26 9 l33 -3 -3 166 -3 165 -139 0 c-77 0 -148 -3 -158 -6z"/>
<path d="M783 1034 c0 -155 2 -286 6 -291 14 -22 50 -30 124 -28 53 2 77 0 77
-8 0 -8 3 -9 8 -1 4 6 18 10 32 10 14 0 37 3 52 7 l27 7 1 290 1 290 -33 0
c-18 1 -92 2 -164 3 l-131 2 0 -281z"/>
</g>
</svg>
