<svg width="64" height="64" viewBox="0 0 64 64" fill="none" xmlns="http://www.w3.org/2000/svg">
<path d="M48.5 18.5H15.5C15.2348 18.5 14.9804 18.6054 14.7929 18.7929C14.6054 18.9804 14.5 19.2348 14.5 19.5C14.5 19.7652 14.6054 20.0196 14.7929 20.2071C14.9804 20.3946 15.2348 20.5 15.5 20.5H48.5C48.7652 20.5 49.0196 20.3946 49.2071 20.2071C49.3946 20.0196 49.5 19.7652 49.5 19.5C49.5 19.2348 49.3946 18.9804 49.2071 18.7929C49.0196 18.6054 48.7652 18.5 48.5 18.5ZM49.5 24.5001C49.5 24.2348 49.3946 23.9805 49.2071 23.793C49.0196 23.6054 48.7652 23.5001 48.5 23.5001H15.5C15.2348 23.5001 14.9804 23.6054 14.7929 23.7929C14.6054 23.9805 14.5 24.2348 14.5 24.5001C14.5 24.7653 14.6054 25.0196 14.7929 25.2072C14.9804 25.3947 15.2348 25.5001 15.5 25.5001H48.5C48.7652 25.5 49.0196 25.3947 49.2071 25.2071C49.3946 25.0196 49.5 24.7653 49.5 24.5001ZM30.5 29.5001C30.5 29.2349 30.3946 28.9805 30.2071 28.793C30.0196 28.6055 29.7652 28.5001 29.5 28.5001H15.5C15.2348 28.5001 14.9804 28.6055 14.7929 28.793C14.6054 28.9805 14.5 29.2349 14.5 29.5001C14.5 29.7653 14.6054 30.0197 14.7929 30.2072C14.9804 30.3947 15.2348 30.5001 15.5 30.5001H29.5C29.7652 30.5001 30.0196 30.3947 30.2071 30.2072C30.3946 30.0197 30.5 29.7653 30.5 29.5001ZM14.5 39.0002C14.5 39.7913 14.7346 40.5647 15.1741 41.2225C15.6137 41.8802 16.2384 42.3929 16.9693 42.6957C17.7002 42.9984 18.5045 43.0776 19.2804 42.9233C20.0563 42.7689 20.769 42.388 21.3284 41.8286C21.8878 41.2692 22.2688 40.5564 22.4231 39.7805C22.5775 39.0046 22.4983 38.2003 22.1955 37.4694C21.8928 36.7385 21.3801 36.1138 20.7223 35.6743C20.0645 35.2347 19.2911 35.0002 18.5 35.0002C17.4395 35.0014 16.4228 35.4232 15.6729 36.1731C14.923 36.923 14.5012 37.9397 14.5 39.0002ZM20.5 39.0002C20.5 39.3957 20.3827 39.7824 20.1629 40.1113C19.9432 40.4402 19.6308 40.6966 19.2654 40.8479C18.8999 40.9993 18.4978 41.0389 18.1098 40.9618C17.7219 40.8846 17.3655 40.6941 17.0858 40.4144C16.8061 40.1347 16.6156 39.7783 16.5384 39.3904C16.4613 39.0024 16.5009 38.6003 16.6522 38.2348C16.8036 37.8694 17.06 37.557 17.3889 37.3372C17.7178 37.1175 18.1044 37.0002 18.5 37.0002C19.0304 37.0002 19.5391 37.2109 19.9142 37.586C20.2893 37.961 20.5 38.4698 20.5 39.0002Z" fill="#F3890F"/>
<path d="M61 5H3C2.20461 5.00087 1.44205 5.31723 0.879634 5.87965C0.317213 6.44208 0.000865542 7.20464 0 8.00002L0 49.0004C0.000865542 49.7958 0.317213 50.5583 0.879634 51.1208C1.44205 51.6832 2.20461 51.9995 3 52.0004H33.299L34.7267 50.0004H3C2.73489 50.0001 2.48074 49.8946 2.29327 49.7071C2.10581 49.5197 2.00035 49.2655 2 49.0004V8.00002C2.00035 7.73491 2.10581 7.48076 2.29327 7.2933C2.48074 7.10584 2.73489 7.00037 3 7.00002H61C61.2651 7.00037 61.5193 7.10584 61.7067 7.2933C61.8942 7.48076 61.9997 7.73491 62 8.00002V49.0004C61.9997 49.2655 61.8942 49.5197 61.7067 49.7071C61.5193 49.8946 61.2651 50.0001 61 50.0004H54.2736L55.7014 52.0004H61C61.7954 51.9995 62.5579 51.6832 63.1204 51.1207C63.6828 50.5583 63.9991 49.7958 64 49.0004V8.00002C63.9991 7.20464 63.6828 6.44208 63.1204 5.87965C62.5579 5.31723 61.7954 5.00087 61 5Z" fill="#F3890F"/>
<path d="M41.4532 53.6692L39.7067 56.0848L39.5084 55.1068C39.4653 54.7689 39.2944 54.4603 39.0309 54.2445C38.886 54.1261 38.7184 54.0385 38.5385 53.9872C38.3586 53.9359 38.1701 53.9219 37.9845 53.9461L36.7335 54.0721L38.638 51.4041C37.9629 51.2679 37.3257 50.986 36.7708 50.578L34.2555 54.1014C34.101 54.3116 34.0124 54.563 34.0012 54.8237C33.99 55.0844 34.0566 55.3425 34.1925 55.5653C34.3305 55.7902 34.5308 55.9703 34.7692 56.0835C35.0076 56.1967 35.2738 56.2382 35.5353 56.203L37.6466 55.9901L38.0187 57.8255C38.0496 58.0837 38.1557 58.327 38.3239 58.5252C38.4921 58.7234 38.7149 58.8678 38.9645 58.9403C39.0946 58.9797 39.2299 58.9998 39.3659 58.9999C39.581 59 39.7931 58.9494 39.985 58.8524C40.177 58.7554 40.3434 58.6145 40.4709 58.4413L44.0691 53.464C43.5444 53.6769 42.9848 53.7904 42.4186 53.7987C42.0925 53.7977 41.768 53.7542 41.4532 53.6692ZM52.2276 50.578C51.6726 50.9858 51.0354 51.2678 50.3602 51.404L52.2648 54.0721L51.0138 53.9461C50.8283 53.9219 50.6397 53.9358 50.4598 53.9872C50.2798 54.0385 50.1123 54.126 49.9674 54.2444C49.7039 54.4603 49.533 54.7688 49.4899 55.1068L49.2916 56.0843L47.5418 53.6642C46.6712 53.8798 45.7543 53.8087 44.9273 53.4614L48.5324 58.4481C48.6596 58.6198 48.8254 58.7592 49.0164 58.855C49.2074 58.9509 49.4183 59.0005 49.632 58.9999C49.7681 58.9998 49.9035 58.9797 50.0339 58.9403C50.2835 58.8678 50.5063 58.7235 50.6745 58.5252C50.8427 58.327 50.9488 58.0837 50.9796 57.8256L51.3517 55.9901L53.4631 56.203C53.7246 56.2384 53.9908 56.197 54.2293 56.0838C54.4677 55.9706 54.668 55.7904 54.8058 55.5653C54.9412 55.3444 55.0082 55.0884 54.9982 54.8295C54.9882 54.5706 54.9017 54.3205 54.7497 54.1107L52.2276 50.578ZM47.1266 51.7112C47.7827 51.4256 48.3008 50.8943 48.57 50.2312C48.6619 50.04 48.7749 49.8597 48.9069 49.6936C49.1098 49.6156 49.321 49.5612 49.5363 49.5315C49.8926 49.5406 50.2457 49.4631 50.5655 49.3057C50.8852 49.1483 51.162 48.9157 51.3721 48.6278C51.5821 48.3399 51.7192 48.0053 51.7715 47.6528C51.8239 47.3002 51.7899 46.9403 51.6725 46.6038C51.6338 46.3871 51.6204 46.1667 51.6325 45.947C51.7474 45.7743 51.881 45.6148 52.0309 45.4714C52.5834 45.0069 52.9312 44.3439 52.9992 43.6252C52.9312 42.9066 52.5834 42.2435 52.0309 41.779C51.8821 41.6364 51.749 41.4783 51.6339 41.3073C51.6204 41.0864 51.6333 40.8646 51.6725 40.6467C51.8441 39.961 51.7374 39.2353 51.3756 38.6281C50.9067 38.0939 50.2455 37.767 49.5363 37.7189C49.3221 37.6892 49.112 37.6355 48.9098 37.5588C48.7763 37.3922 48.6621 37.211 48.5695 37.0187C48.3006 36.3556 47.7824 35.8244 47.1261 35.5392C46.443 35.3858 45.7269 35.5081 45.1335 35.8795C44.9332 35.9877 44.7201 36.0703 44.4992 36.1252C44.2783 36.0703 44.0652 35.9877 43.8649 35.8795C43.2711 35.5084 42.555 35.3861 41.8717 35.5392C41.2156 35.8249 40.6975 36.3562 40.4284 37.0192C40.3365 37.2104 40.2235 37.3907 40.0915 37.5568C39.8886 37.6349 39.6774 37.6893 39.4621 37.7189C38.753 37.7669 38.0917 38.0936 37.6227 38.6276C37.261 39.235 37.1543 39.9609 37.3258 40.6467C37.3646 40.8633 37.378 41.0837 37.3659 41.3034C37.251 41.4762 37.1174 41.6357 36.9674 41.779C36.4149 42.2435 36.0672 42.9066 35.9992 43.6252C36.0671 44.3439 36.4149 45.0069 36.9674 45.4714C37.1163 45.614 37.2493 45.7722 37.3644 45.9431C37.378 46.1641 37.365 46.3859 37.3258 46.6038C37.2086 46.9403 37.1747 47.3002 37.227 47.6527C37.2794 48.0052 37.4165 48.3397 37.6265 48.6276C37.8366 48.9155 38.1133 49.1481 38.433 49.3055C38.7527 49.463 39.1058 49.5405 39.4621 49.5315C39.6762 49.5613 39.8864 49.615 40.0885 49.6917C40.2221 49.8582 40.3362 50.0394 40.4289 50.2317C40.6977 50.8948 41.216 51.426 41.8722 51.7112C42.0501 51.769 42.236 51.7981 42.423 51.7977C42.9293 51.7638 43.4217 51.618 43.8649 51.3709C44.0652 51.2627 44.2783 51.1802 44.4992 51.1253C44.7201 51.1802 44.9332 51.2627 45.1335 51.3709C45.7272 51.7421 46.4433 51.8644 47.1266 51.7112ZM43.0114 49.5623C42.843 49.6469 42.6693 49.7205 42.4914 49.7825C42.3777 49.621 42.2756 49.4516 42.1857 49.2757C42.0005 48.7938 41.6795 48.3758 41.2618 48.0724C40.844 47.7691 40.3473 47.5932 39.8317 47.5662C39.6386 47.5348 39.4479 47.49 39.2609 47.4324C39.264 47.2394 39.2803 47.0469 39.3097 46.8562C39.4103 46.3492 39.3956 45.826 39.2668 45.3254C39.0805 44.8564 38.7903 44.4357 38.4181 44.0949C38.2716 43.9496 38.1372 43.7925 38.0163 43.6252C38.1372 43.4579 38.2716 43.3008 38.4181 43.1555C38.7903 42.8147 39.0805 42.394 39.2668 41.925C39.3956 41.4242 39.4103 40.9009 39.3097 40.3937C39.2805 40.203 39.2642 40.0105 39.2609 39.8175C39.448 39.7603 39.6387 39.7157 39.8317 39.6842C40.3474 39.6576 40.8443 39.4819 41.2622 39.1785C41.68 38.8751 42.0008 38.4569 42.1857 37.9747C42.2755 37.7988 42.3776 37.6294 42.4914 37.4679C42.6693 37.5299 42.843 37.6035 43.0114 37.6881C43.4552 37.9734 43.9716 38.1251 44.4992 38.1251C45.0268 38.1251 45.5432 37.9734 45.987 37.6881C46.1553 37.6035 46.329 37.5299 46.507 37.4679C46.6206 37.6294 46.7228 37.7988 46.8126 37.9747C46.9979 38.4566 47.3188 38.8746 47.7366 39.178C48.1543 39.4813 48.651 39.6572 49.1666 39.6842C49.3597 39.7156 49.5505 39.7603 49.7374 39.818C49.7344 40.011 49.718 40.2035 49.6886 40.3942C49.588 40.9012 49.6027 41.4244 49.7316 41.925C49.9179 42.394 50.208 42.8147 50.5802 43.1555C50.7267 43.3008 50.8611 43.4579 50.9821 43.6252C50.8611 43.7925 50.7267 43.9496 50.5802 44.0949C50.208 44.4357 49.9179 44.8564 49.7316 45.3254C49.6027 45.8262 49.588 46.3495 49.6886 46.8567C49.7178 47.0474 49.7342 47.2399 49.7374 47.4329C49.5504 47.4901 49.3597 47.5347 49.1666 47.5662C48.6509 47.5928 48.154 47.7685 47.7362 48.0719C47.3183 48.3753 46.9975 48.7935 46.8126 49.2757C46.7229 49.4516 46.6207 49.621 46.507 49.7825C46.329 49.7205 46.1553 49.6469 45.987 49.5623C45.5432 49.277 45.0268 49.1253 44.4992 49.1253C43.9716 49.1253 43.4552 49.277 43.0114 49.5623Z" fill="#F3890F"/>
<path d="M48 43.625C48 42.9327 47.7947 42.2561 47.4101 41.6805C47.0255 41.1049 46.4789 40.6563 45.8394 40.3914C45.1998 40.1265 44.4961 40.0572 43.8172 40.1923C43.1382 40.3273 42.5146 40.6607 42.0251 41.1501C41.5356 41.6396 41.2023 42.2633 41.0673 42.9422C40.9322 43.6211 41.0015 44.3249 41.2664 44.9644C41.5313 45.6039 41.9799 46.1506 42.5555 46.5351C43.1311 46.9197 43.8078 47.125 44.5 47.125C45.4279 47.1239 46.3175 46.7548 46.9736 46.0986C47.6298 45.4425 47.9989 44.5529 48 43.625ZM44.5 45.125C44.2033 45.125 43.9133 45.037 43.6666 44.8722C43.42 44.7074 43.2277 44.4731 43.1142 44.199C43.0007 43.9249 42.9709 43.6233 43.0288 43.3323C43.0867 43.0414 43.2296 42.7741 43.4393 42.5643C43.6491 42.3545 43.9164 42.2117 44.2074 42.1538C44.4983 42.0959 44.7999 42.1256 45.074 42.2392C45.3481 42.3527 45.5824 42.5449 45.7472 42.7916C45.912 43.0383 46 43.3283 46 43.625C45.9996 44.0227 45.8414 44.4039 45.5602 44.6852C45.279 44.9664 44.8977 45.1245 44.5 45.125Z" fill="#F3890F"/>
<path d="M58 48.0003C58.5303 47.9998 59.0387 47.7889 59.4136 47.414C59.7886 47.039 59.9995 46.5306 60 46.0003V11C59.9995 10.4697 59.7886 9.96133 59.4136 9.58637C59.0387 9.21141 58.5303 9.00053 58 9H6C5.46973 9.00053 4.96133 9.21141 4.58637 9.58637C4.21141 9.96133 4.00053 10.4697 4 11V46.0003C4.00053 46.5306 4.21141 47.039 4.58637 47.4139C4.96133 47.7889 5.46973 47.9998 6 48.0003H35.3037C35.2505 47.5436 35.2523 47.0821 35.3091 46.6258C35.1271 46.4277 34.9573 46.2188 34.8005 46.0003H6V18.7891L13.707 11.082C13.7308 11.0559 13.7532 11.0285 13.774 11H50.2259C50.2468 11.0285 50.2692 11.0559 50.2929 11.082L58.0003 18.7894L58.0015 46.0003H54.1993C54.0425 46.2188 53.8728 46.4277 53.6909 46.6258C53.7476 47.0821 53.7495 47.5436 53.6963 48.0003L58 48.0003ZM6 15.961V11H10.9609L6 15.961ZM53.0391 11H58L58.0002 15.9612L53.0391 11Z" fill="#F3890F"/>
</svg>
