<svg width="64" height="64" viewBox="0 0 64 64" fill="none" xmlns="http://www.w3.org/2000/svg">
<path d="M9 63.9919C9.26522 63.9919 9.51957 63.8866 9.70711 63.699C9.89464 63.5115 10 63.2571 10 62.9919V51.9459C10 49.7599 11.166 47.6999 13.042 46.5759L20.87 41.8779L25.166 47.2479C25.2541 47.3577 25.3642 47.4477 25.4893 47.5121C25.6143 47.5765 25.7515 47.6139 25.892 47.6219L25.948 47.6239C26.212 47.6239 26.468 47.5199 26.656 47.3319L29.002 44.9859V62.9919C29.002 63.2571 29.1074 63.5115 29.2949 63.699C29.4824 63.8866 29.7368 63.9919 30.002 63.9919C30.2672 63.9919 30.5216 63.8866 30.7091 63.699C30.8966 63.5115 31.002 63.2571 31.002 62.9919V42.9999L31 42.9879L32 41.9859L33.002 42.9879L33 42.9999V62.9919C33 63.2571 33.1054 63.5115 33.2929 63.699C33.4804 63.8866 33.7348 63.9919 34 63.9919C34.2652 63.9919 34.5196 63.8866 34.7071 63.699C34.8946 63.5115 35 63.2571 35 62.9919V44.9859L37.346 47.3319C37.439 47.4247 37.5495 47.4983 37.6709 47.5484C37.7924 47.5985 37.9226 47.6242 38.054 47.6239L38.11 47.6219C38.2505 47.6139 38.3877 47.5765 38.5127 47.5121C38.6378 47.4477 38.7479 47.3577 38.836 47.2479L43.132 41.8779L50.962 46.5759C51.8864 47.1354 52.6513 47.9232 53.1834 48.8636C53.7154 49.804 53.9966 50.8655 54 51.9459V62.9919C54 63.2571 54.1054 63.5115 54.2929 63.699C54.4804 63.8866 54.7348 63.9919 55 63.9919C55.2652 63.9919 55.5196 63.8866 55.7071 63.699C55.8946 63.5115 56 63.2571 56 62.9919V51.9459C56 49.0599 54.462 46.3459 51.988 44.8619L43.536 39.7919L40.368 36.2719C40.2361 36.131 40.0654 36.0322 39.8775 35.9881C39.6896 35.944 39.4928 35.9564 39.312 36.0239V32.4779C40.877 31.3323 42.1501 29.8341 43.0281 28.1047C43.9062 26.3753 44.3645 24.4634 44.366 22.5239V17.8119L45.924 9.12993C46.0696 8.34024 46.0557 7.52937 45.8829 6.74517C45.7101 5.96096 45.382 5.2193 44.918 4.56393C44.4579 3.90572 43.8706 3.34629 43.1908 2.91864C42.5111 2.49099 41.7525 2.20378 40.96 2.07393L29.044 0.0879324C28.1909 -0.0543197 27.3171 -0.00902814 26.4834 0.220657C25.6496 0.450342 24.8759 0.858907 24.216 1.41793C23.0902 2.37359 22.362 3.71525 22.174 5.17993C20.994 5.39993 19.926 6.02993 19.156 6.98193C18.6779 7.57111 18.338 8.26006 18.1615 8.99803C17.9849 9.73599 17.9762 10.5042 18.136 11.2459L19.608 18.1359C19.61 18.1499 19.62 18.1559 19.622 18.1659V22.5219C19.622 26.6039 21.618 30.2219 24.676 32.4759V36.0199C24.4962 35.9556 24.3016 35.945 24.1158 35.9894C23.9301 36.0338 23.7613 36.1313 23.63 36.2699L20.464 39.7879L12.012 44.8599C10.7913 45.5974 9.78099 46.6367 9.07833 47.8777C8.37567 49.1187 8.00431 50.5198 8 51.9459V62.9919C8 63.2571 8.10536 63.5115 8.29289 63.699C8.48043 63.8866 8.73478 63.9919 9 63.9919ZM41.584 40.6099L37.97 45.1279L33.708 40.8659L39.382 38.1639L41.584 40.6099ZM20.71 8.24193C20.9989 7.88314 21.3648 7.59387 21.7806 7.39551C22.1963 7.19715 22.6513 7.09477 23.112 7.09593C23.664 7.09593 24.112 6.51393 24.112 5.96193C24.1109 5.44256 24.2124 4.92808 24.4106 4.44802C24.6089 3.96795 24.8999 3.53174 25.267 3.16439C25.6342 2.79704 26.0703 2.50579 26.5502 2.30734C27.0302 2.10889 27.5446 2.00714 28.064 2.00793C28.2824 2.0081 28.5005 2.02616 28.716 2.06193L40.632 4.04793C41.712 4.22793 42.652 4.81993 43.282 5.71393C43.912 6.60993 44.152 7.69593 43.954 8.77393L42.708 15.7159L40.576 13.2999V11.1499C40.576 10.8847 40.4706 10.6304 40.2831 10.4428C40.0956 10.2553 39.8412 10.1499 39.576 10.1499H24.412C24.1468 10.1499 23.8924 10.2553 23.7049 10.4428C23.5174 10.6304 23.412 10.8847 23.412 11.1499V13.2939L21.152 15.8039L20.09 10.8299C19.896 9.91393 20.122 8.96993 20.71 8.24193ZM21.622 22.5219V18.2719L25.156 14.3459C25.3211 14.1627 25.4123 13.9246 25.412 13.6779V12.1499H38.576V13.6779C38.576 13.9219 38.664 14.1579 38.826 14.3399L42.366 18.3499V22.5219C42.3653 24.2202 41.9476 25.8922 41.1498 27.3913C40.3519 28.8905 39.1982 30.1708 37.79 31.1199L37.786 31.1219C37.2954 31.4452 36.7782 31.7262 36.24 31.9619C35.994 32.0719 35.738 32.1579 35.484 32.2479C34.879 32.4641 34.2559 32.6254 33.622 32.7299C33.438 32.7599 33.25 32.7679 33.064 32.7859C32.3511 32.8579 31.6329 32.8579 30.92 32.7859C30.736 32.7659 30.548 32.7599 30.366 32.7299C29.7335 32.6252 29.1116 32.4639 28.508 32.2479C28.252 32.1579 27.994 32.0699 27.744 31.9599C27.2087 31.7251 26.6942 31.4454 26.206 31.1239L26.192 31.1159C24.7854 30.1665 23.6333 28.8865 22.8365 27.3882C22.0398 25.8899 21.6227 24.2189 21.622 22.5219ZM27.71 34.1139C27.828 34.1559 27.942 34.2039 28.06 34.2419C29.3272 34.6715 30.656 34.8917 31.994 34.8939C33.3314 34.8918 34.6595 34.6716 35.926 34.2419C36.046 34.2019 36.162 34.1559 36.282 34.1119C36.556 34.0099 36.828 33.9019 37.094 33.7819C37.166 33.7499 37.242 33.7259 37.314 33.6919V36.9319L32 39.4639L26.676 36.9279V33.6939C26.746 33.7279 26.82 33.7499 26.89 33.7819C27.158 33.9019 27.432 34.0119 27.71 34.1139ZM24.618 38.1639L30.292 40.8659L26.03 45.1279L22.416 40.6099L24.618 38.1639Z" fill="#F3890F"/>
<path d="M19.0018 63.9918C19.267 63.9918 19.5214 63.8865 19.7089 63.6989C19.8965 63.5114 20.0018 63.257 20.0018 62.9918V58.3078C20.0039 56.2454 19.2324 54.2571 17.8398 52.7358L16.3258 51.0778C16.2372 50.9808 16.1303 50.9021 16.0112 50.8464C15.8922 50.7907 15.7634 50.7589 15.6321 50.753C15.5008 50.747 15.3696 50.767 15.246 50.8118C15.1224 50.8565 15.0089 50.9252 14.9118 51.0138C14.8148 51.1025 14.7361 51.2094 14.6804 51.3284C14.6247 51.4474 14.5929 51.5763 14.587 51.7076C14.581 51.8389 14.601 51.9701 14.6458 52.0936C14.6905 52.2172 14.7592 52.3308 14.8478 52.4278L16.3618 54.0858C17.418 55.2381 18.0032 56.7448 18.0018 58.3078V62.9918C18.0018 63.257 18.1072 63.5114 18.2947 63.6989C18.4822 63.8865 18.7366 63.9918 19.0018 63.9918ZM47.6778 51.0778L46.1638 52.7378C44.7713 54.2584 43.9999 56.246 44.0018 58.3078V62.9918C44.0018 63.257 44.1072 63.5114 44.2947 63.6989C44.4822 63.8865 44.7366 63.9918 45.0018 63.9918C45.267 63.9918 45.5214 63.8865 45.7089 63.6989C45.8965 63.5114 46.0018 63.257 46.0018 62.9918V58.3078C46.0018 56.7418 46.5838 55.2418 47.6398 54.0858L49.1538 52.4278C49.2425 52.3309 49.3111 52.2175 49.3559 52.094C49.4008 51.9706 49.4208 51.8395 49.415 51.7083C49.4091 51.5771 49.3775 51.4483 49.3218 51.3293C49.2662 51.2103 49.1877 51.1035 49.0908 51.0148C48.9939 50.9262 48.8805 50.8575 48.757 50.8127C48.6336 50.7679 48.5025 50.7478 48.3713 50.7537C48.2401 50.7595 48.1113 50.7912 47.9923 50.8468C47.8733 50.9024 47.7665 50.9809 47.6778 51.0778Z" fill="#F3890F"/>
</svg>
