<svg width="64" height="64" viewBox="0 0 64 64" fill="none" xmlns="http://www.w3.org/2000/svg">
<path fill-rule="evenodd" clip-rule="evenodd" d="M23.3086 15.6699H30.2486C30.7986 15.6699 31.2486 15.2199 31.2486 14.6699C31.2486 14.1199 30.7986 13.6699 30.2486 13.6699H23.3086C22.7586 13.6699 22.3086 14.1199 22.3086 14.6699C22.3086 15.2199 22.7586 15.6699 23.3086 15.6699Z" fill="#F3890F"/>
<path d="M20.1406 15.9199C20.831 15.9199 21.3906 15.3603 21.3906 14.6699C21.3906 13.9796 20.831 13.4199 20.1406 13.4199C19.4503 13.4199 18.8906 13.9796 18.8906 14.6699C18.8906 15.3603 19.4503 15.9199 20.1406 15.9199Z" fill="#F3890F"/>
<path d="M16.9297 15.9199C17.62 15.9199 18.1797 15.3603 18.1797 14.6699C18.1797 13.9796 17.62 13.4199 16.9297 13.4199C16.2393 13.4199 15.6797 13.9796 15.6797 14.6699C15.6797 15.3603 16.2393 15.9199 16.9297 15.9199Z" fill="#F3890F"/>
<path d="M36.6406 15.9199C37.331 15.9199 37.8906 15.3603 37.8906 14.6699C37.8906 13.9796 37.331 13.4199 36.6406 13.4199C35.9503 13.4199 35.3906 13.9796 35.3906 14.6699C35.3906 15.3603 35.9503 15.9199 36.6406 15.9199Z" fill="#F3890F"/>
<path d="M33.4297 15.9199C34.12 15.9199 34.6797 15.3603 34.6797 14.6699C34.6797 13.9796 34.12 13.4199 33.4297 13.4199C32.7393 13.4199 32.1797 13.9796 32.1797 14.6699C32.1797 15.3603 32.7393 15.9199 33.4297 15.9199Z" fill="#F3890F"/>
<path fill-rule="evenodd" clip-rule="evenodd" d="M57.2295 35.24C57.2295 30.72 54.7295 26.81 51.0695 24.7V13.54C51.0695 8.28 46.7895 4 41.5295 4H16.3095C13.6995 4 11.6195 5.94 11.2095 8.44C8.71953 8.85 6.76953 10.93 6.76953 13.54V54.73C6.76953 57.64 9.12953 60 12.0395 60H52.8095C55.0895 60 56.9495 58.14 56.9495 55.86C56.9495 54.58 56.3295 53.48 55.4195 52.72C56.3295 51.96 56.9495 50.86 56.9495 49.58C56.9495 47.3 55.0895 45.44 52.8095 45.44H51.6795C55.0795 43.23 57.2295 39.46 57.2295 35.22V35.24ZM16.3095 6H41.5295C45.6895 6 49.0695 9.38 49.0695 13.54V23.77C48.3395 23.51 47.5895 23.32 46.7995 23.2V13.54C46.7995 10.63 44.4395 8.27 41.5295 8.27H13.2395C13.6695 6.96 14.8595 6 16.3095 6ZM12.0395 58C10.2395 58 8.76953 56.53 8.76953 54.73V13.54C8.76953 11.74 10.2395 10.27 12.0395 10.27H41.5295C43.3295 10.27 44.7995 11.74 44.7995 13.54V23.04C38.1695 23.16 32.7995 28.57 32.7995 35.23C32.7995 35.62 32.8595 36 32.8895 36.39C28.2895 38.14 24.9995 42.57 24.9995 47.78C24.9995 52.06 27.2195 55.81 30.5595 58H12.0395ZM38.9095 35.24C38.9095 31.87 41.6495 29.14 45.0095 29.14C48.3695 29.14 51.1195 31.88 51.1195 35.24C51.1195 37.75 49.5395 39.93 47.2495 40.84C45.3595 38.12 42.3795 36.24 38.9595 35.74C38.9495 35.57 38.9095 35.4 38.9095 35.23V35.24ZM37.2195 37.57C42.8495 37.57 47.4395 42.15 47.4395 47.79C47.4395 53.43 42.8595 58.01 37.2195 58.01C31.5795 58.01 26.9995 53.43 26.9995 47.79C26.9995 42.15 31.5795 37.57 37.2195 37.57ZM54.9495 55.87C54.9495 57.05 53.9895 58.01 52.8095 58.01H43.8795C45.5295 56.93 46.8595 55.46 47.8295 53.74H52.8095C53.9895 53.74 54.9495 54.7 54.9495 55.88V55.87ZM54.9495 49.6C54.9495 50.78 53.9895 51.74 52.8095 51.74H48.7295C49.1595 50.5 49.4395 49.18 49.4395 47.8C49.4395 47.69 49.4095 47.58 49.4095 47.47H52.8195C53.9995 47.47 54.9595 48.43 54.9595 49.61L54.9495 49.6ZM48.9495 44.56C48.7595 43.87 48.5295 43.21 48.2195 42.58C51.1195 41.3 53.1195 38.5 53.1195 35.25C53.1195 30.78 49.4795 27.15 45.0095 27.15C40.5395 27.15 36.9095 30.79 36.9095 35.25C36.9095 35.37 36.9395 35.49 36.9395 35.61C36.2195 35.63 35.5195 35.69 34.8395 35.82C34.8295 35.63 34.7895 35.44 34.7895 35.25C34.7895 29.62 39.3695 25.03 45.0095 25.03C50.6495 25.03 55.2295 29.61 55.2295 35.25C55.2295 39.41 52.7095 42.97 48.9495 44.56Z" fill="#F3890F"/>
<path fill-rule="evenodd" clip-rule="evenodd" d="M37.2217 55.89C41.6917 55.89 45.3317 52.25 45.3317 47.78C45.3317 43.31 41.6917 39.68 37.2217 39.68C32.7517 39.68 29.1217 43.32 29.1217 47.78C29.1217 52.24 32.7617 55.89 37.2217 55.89ZM37.2217 41.68C40.5917 41.68 43.3317 44.42 43.3317 47.78C43.3317 51.14 40.5917 53.89 37.2217 53.89C33.8517 53.89 31.1217 51.15 31.1217 47.78C31.1217 44.41 33.8617 41.68 37.2217 41.68ZM13.5117 37.91H27.1917C27.7417 37.91 28.1917 37.46 28.1917 36.91C28.1917 36.36 27.7417 35.91 27.1917 35.91H13.5117C12.9617 35.91 12.5117 36.36 12.5117 36.91C12.5117 37.46 12.9617 37.91 13.5117 37.91ZM23.7217 40.57H13.5117C12.9617 40.57 12.5117 41.02 12.5117 41.57C12.5117 42.12 12.9617 42.57 13.5117 42.57H23.7217C24.2717 42.57 24.7217 42.12 24.7217 41.57C24.7217 41.02 24.2717 40.57 23.7217 40.57ZM22.3317 45.23H13.5117C12.9617 45.23 12.5117 45.68 12.5117 46.23C12.5117 46.78 12.9617 47.23 13.5117 47.23H22.3317C22.8817 47.23 23.3317 46.78 23.3317 46.23C23.3317 45.68 22.8817 45.23 22.3317 45.23ZM33.8017 23.75H24.8417C24.2917 23.75 23.8417 24.2 23.8417 24.75C23.8417 25.3 24.2917 25.75 24.8417 25.75H33.8017C34.3517 25.75 34.8017 25.3 34.8017 24.75C34.8017 24.2 34.3517 23.75 33.8017 23.75Z" fill="#F3890F"/>
<path fill-rule="evenodd" clip-rule="evenodd" d="M34.6197 50.3796C34.8197 50.5796 35.0697 50.6696 35.3297 50.6696C35.5897 50.6696 35.8397 50.5696 36.0397 50.3796L39.8097 46.6096C40.1997 46.2196 40.1997 45.5896 39.8097 45.1996C39.4197 44.8096 38.7897 44.8096 38.3997 45.1996L34.6297 48.9696C34.2397 49.3596 34.2397 49.9896 34.6297 50.3796H34.6197ZM35.8797 46.4396C36.3597 45.9596 36.3597 45.1596 35.8797 44.6696C35.3897 44.1896 34.5997 44.1896 34.1097 44.6696C33.6197 45.1496 33.6197 45.9496 34.1097 46.4396C34.5897 46.9296 35.3897 46.9296 35.8797 46.4396ZM38.5597 49.1196C38.0797 49.5996 38.0797 50.3996 38.5597 50.8896C39.0397 51.3696 39.8397 51.3696 40.3297 50.8896C40.8097 50.3996 40.8097 49.6096 40.3297 49.1196C39.8497 48.6396 39.0497 48.6396 38.5597 49.1196Z" fill="#F3890F"/>
<path fill-rule="evenodd" clip-rule="evenodd" d="M14 21H41.18C41.73 21 42.18 20.55 42.18 20C42.18 19.45 41.73 19 41.18 19H14C13.45 19 13 19.45 13 20C13 20.55 13.45 21 14 21ZM14 25.66H20.63C21.18 25.66 21.63 25.21 21.63 24.66C21.63 24.11 21.18 23.66 20.63 23.66H14C13.45 23.66 13 24.11 13 24.66C13 25.21 13.45 25.66 14 25.66ZM14 30.32H21.4C21.95 30.32 22.4 29.87 22.4 29.32C22.4 28.77 21.95 28.32 21.4 28.32H14C13.45 28.32 13 28.77 13 29.32C13 29.87 13.45 30.32 14 30.32Z" fill="#F3890F"/>
<path d="M46.2 33.6H44.6C44.3878 33.6 44.1843 33.5157 44.0343 33.3657C43.8843 33.2157 43.8 33.0122 43.8 32.8C43.8 32.5878 43.8843 32.3843 44.0343 32.2343C44.1843 32.0843 44.3878 32 44.6 32H46.6C46.7061 32 46.8078 32.0421 46.8828 32.1172C46.9579 32.1922 47 32.2939 47 32.4C47 32.5061 47.0421 32.6078 47.1172 32.6828C47.1922 32.7579 47.2939 32.8 47.4 32.8C47.5061 32.8 47.6078 32.7579 47.6828 32.6828C47.7579 32.6078 47.8 32.5061 47.8 32.4C47.8 32.0817 47.6736 31.7765 47.4485 31.5515C47.2235 31.3264 46.9183 31.2 46.6 31.2H45.8V30.4C45.8 30.2939 45.7579 30.1922 45.6828 30.1172C45.6078 30.0421 45.5061 30 45.4 30C45.2939 30 45.1922 30.0421 45.1172 30.1172C45.0421 30.1922 45 30.2939 45 30.4V31.2H44.6C44.1757 31.2 43.7687 31.3686 43.4686 31.6686C43.1686 31.9687 43 32.3757 43 32.8C43 33.2243 43.1686 33.6313 43.4686 33.9314C43.7687 34.2314 44.1757 34.4 44.6 34.4H46.2C46.4122 34.4 46.6157 34.4843 46.7657 34.6343C46.9157 34.7843 47 34.9878 47 35.2C47 35.4122 46.9157 35.6157 46.7657 35.7657C46.6157 35.9157 46.4122 36 46.2 36H44.2C44.0939 36 43.9922 35.9579 43.9172 35.8828C43.8421 35.8078 43.8 35.7061 43.8 35.6C43.8 35.4939 43.7579 35.3922 43.6828 35.3172C43.6078 35.2421 43.5061 35.2 43.4 35.2C43.2939 35.2 43.1922 35.2421 43.1172 35.3172C43.0421 35.3922 43 35.4939 43 35.6C43 35.9183 43.1264 36.2235 43.3515 36.4485C43.5765 36.6736 43.8817 36.8 44.2 36.8H45V37.6C45 37.7061 45.0421 37.8078 45.1172 37.8828C45.1922 37.9579 45.2939 38 45.4 38C45.5061 38 45.6078 37.9579 45.6828 37.8828C45.7579 37.8078 45.8 37.7061 45.8 37.6V36.8H46.2C46.6243 36.8 47.0313 36.6314 47.3314 36.3314C47.6314 36.0313 47.8 35.6243 47.8 35.2C47.8 34.7757 47.6314 34.3687 47.3314 34.0686C47.0313 33.7686 46.6243 33.6 46.2 33.6Z" fill="#F3890F"/>
</svg>
