<svg width="64" height="64" viewBox="0 0 64 64" fill="none" xmlns="http://www.w3.org/2000/svg">
<path d="M62 0.839844H24C23.7348 0.839844 23.4804 0.945201 23.2929 1.13274C23.1054 1.32027 23 1.57463 23 1.83984V15.4298C21.7138 14.6196 20.2335 14.1699 18.714 14.128C17.1944 14.086 15.6915 14.4533 14.3626 15.1913C13.0337 15.9294 11.9276 17.0111 11.1601 18.3233C10.3926 19.6354 9.99191 21.1297 10 22.6498V28.9998C9.99401 30.2442 10.3071 31.4693 10.9093 32.5582C11.5115 33.6471 12.3828 34.5635 13.44 35.2198L15.33 36.3998C16.2814 36.9919 17.3795 37.3056 18.5 37.3056C19.6205 37.3056 20.7186 36.9919 21.67 36.3998L23.55 35.2198C24.6084 34.564 25.4811 33.648 26.0851 32.5592C26.689 31.4703 27.004 30.2449 27 28.9998V28.4398H33.43V33.9998C33.4284 34.2133 33.4951 34.4217 33.6204 34.5945C33.7457 34.7673 33.923 34.8955 34.1263 34.9603C34.3297 35.0251 34.5485 35.0232 34.7507 34.9547C34.9529 34.8862 35.1278 34.7549 35.25 34.5798L39.63 28.3898H62C62.2652 28.3898 62.5196 28.2845 62.7071 28.097C62.8946 27.9094 63 27.6551 63 27.3898V1.83984C63 1.57463 62.8946 1.32027 62.7071 1.13274C62.5196 0.945201 62.2652 0.839844 62 0.839844ZM23.92 18.9998C24.6373 20.081 25.0135 21.3525 25 22.6498V24.5698C23.3703 23.8348 21.9556 22.6954 20.89 21.2598C21.9548 20.583 22.9677 19.8275 23.92 18.9998ZM18.53 16.1198C20.0107 16.1245 21.4458 16.6323 22.6 17.5598C19.3725 20.0837 15.8037 22.1374 12 23.6598V22.6598C11.9987 21.8024 12.1668 20.9532 12.4946 20.1609C12.8224 19.3686 13.3035 18.6489 13.9103 18.043C14.517 17.4372 15.2375 16.9572 16.0303 16.6306C16.8231 16.304 17.6726 16.1372 18.53 16.1398V16.1198ZM25 28.9998C25.0012 29.906 24.7714 30.7975 24.3322 31.5902C23.893 32.3828 23.259 33.0504 22.49 33.5298L20.61 34.6998C19.9765 35.0932 19.2457 35.3016 18.5 35.3016C17.7543 35.3016 17.0235 35.0932 16.39 34.6998L14.5 33.5298C13.7322 33.0499 13.0997 32.382 12.6622 31.5892C12.2247 30.7965 11.9968 29.9053 12 28.9998V25.7698C14.5042 24.8622 16.9098 23.703 19.18 22.3098C20.6495 24.3195 22.6715 25.8586 25 26.7398V28.9998ZM61 26.4398H39.14C38.9805 26.4417 38.8237 26.4817 38.6828 26.5565C38.5419 26.6313 38.4209 26.7388 38.33 26.8698L35.46 30.8698V27.4198C35.46 27.1546 35.3546 26.9003 35.1671 26.7127C34.9796 26.5252 34.7252 26.4198 34.46 26.4198H27V22.6498C27.0069 20.6343 26.2981 18.6817 25 17.1398V2.83984H61V26.4398ZM2 62.9998H35.06C35.3252 62.9998 35.5796 62.8945 35.7671 62.707C35.9546 62.5194 36.06 62.2651 36.06 61.9998V45.8798C36.0574 44.0542 35.3303 42.3043 34.0384 41.0143C32.7466 39.7244 30.9956 38.9998 29.17 38.9998H7.88C6.05612 39.0025 4.3077 39.7282 3.01803 41.0179C1.72835 42.3075 1.00265 44.056 1 45.8798V61.9998C1 62.2651 1.10536 62.5194 1.29289 62.707C1.48043 62.8945 1.73478 62.9998 2 62.9998ZM3 45.8798C3.00264 44.5864 3.51763 43.3467 4.43224 42.4321C5.34684 41.5175 6.58656 41.0025 7.88 40.9998H29.17C30.4652 40.9998 31.7075 41.5137 32.6242 42.4286C33.541 43.3434 34.0574 44.5847 34.06 45.8798V60.9998H29.44V52.1198C29.44 51.8546 29.3346 51.6003 29.1471 51.4127C28.9596 51.2252 28.7052 51.1198 28.44 51.1198C28.1748 51.1198 27.9204 51.2252 27.7329 51.4127C27.5454 51.6003 27.44 51.8546 27.44 52.1198V60.9998H9.61V52.1198C9.61 51.8546 9.50464 51.6003 9.31711 51.4127C9.12957 51.2252 8.87522 51.1198 8.61 51.1198C8.34478 51.1198 8.09043 51.2252 7.90289 51.4127C7.71536 51.6003 7.61 51.8546 7.61 52.1198V60.9998H3V45.8798Z" fill="#F3890F"/>
<path d="M31 8.57031H48.69C48.9552 8.57031 49.2096 8.46496 49.3971 8.27742C49.5846 8.08988 49.69 7.83553 49.69 7.57031C49.69 7.3051 49.5846 7.05074 49.3971 6.86321C49.2096 6.67567 48.9552 6.57031 48.69 6.57031H31C30.7348 6.57031 30.4804 6.67567 30.2929 6.86321C30.1054 7.05074 30 7.3051 30 7.57031C30 7.83553 30.1054 8.08988 30.2929 8.27742C30.4804 8.46496 30.7348 8.57031 31 8.57031ZM48.69 11.0603H42.11C41.8448 11.0603 41.5904 11.1657 41.4029 11.3532C41.2154 11.5407 41.11 11.7951 41.11 12.0603C41.11 12.3255 41.2154 12.5799 41.4029 12.7674C41.5904 12.955 41.8448 13.0603 42.11 13.0603H48.69C48.9552 13.0603 49.2096 12.955 49.3971 12.7674C49.5846 12.5799 49.69 12.3255 49.69 12.0603C49.69 11.7951 49.5846 11.5407 49.3971 11.3532C49.2096 11.1657 48.9552 11.0603 48.69 11.0603ZM31 13.0603H38.27C38.5352 13.0603 38.7896 12.955 38.9771 12.7674C39.1646 12.5799 39.27 12.3255 39.27 12.0603C39.27 11.7951 39.1646 11.5407 38.9771 11.3532C38.7896 11.1657 38.5352 11.0603 38.27 11.0603H31C30.7348 11.0603 30.4804 11.1657 30.2929 11.3532C30.1054 11.5407 30 11.7951 30 12.0603C30 12.3255 30.1054 12.5799 30.2929 12.7674C30.4804 12.955 30.7348 13.0603 31 13.0603ZM48.69 15.5603H42.11C41.8448 15.5603 41.5904 15.6657 41.4029 15.8532C41.2154 16.0407 41.11 16.2951 41.11 16.5603C41.11 16.8255 41.2154 17.0799 41.4029 17.2674C41.5904 17.455 41.8448 17.5603 42.11 17.5603H48.69C48.9552 17.5603 49.2096 17.455 49.3971 17.2674C49.5846 17.0799 49.69 16.8255 49.69 16.5603C49.69 16.2951 49.5846 16.0407 49.3971 15.8532C49.2096 15.6657 48.9552 15.5603 48.69 15.5603ZM31 17.5603H38.27C38.5352 17.5603 38.7896 17.455 38.9771 17.2674C39.1646 17.0799 39.27 16.8255 39.27 16.5603C39.27 16.2951 39.1646 16.0407 38.9771 15.8532C38.7896 15.6657 38.5352 15.5603 38.27 15.5603H31C30.7348 15.5603 30.4804 15.6657 30.2929 15.8532C30.1054 16.0407 30 16.2951 30 16.5603C30 16.8255 30.1054 17.0799 30.2929 17.2674C30.4804 17.455 30.7348 17.5603 31 17.5603ZM48.69 20.0503H42.11C41.8448 20.0503 41.5904 20.1557 41.4029 20.3432C41.2154 20.5307 41.11 20.7851 41.11 21.0503C41.11 21.3155 41.2154 21.5699 41.4029 21.7574C41.5904 21.945 41.8448 22.0503 42.11 22.0503H48.69C48.9552 22.0503 49.2096 21.945 49.3971 21.7574C49.5846 21.5699 49.69 21.3155 49.69 21.0503C49.69 20.7851 49.5846 20.5307 49.3971 20.3432C49.2096 20.1557 48.9552 20.0503 48.69 20.0503ZM31 22.0503H38.27C38.5352 22.0503 38.7896 21.945 38.9771 21.7574C39.1646 21.5699 39.27 21.3155 39.27 21.0503C39.27 20.7851 39.1646 20.5307 38.9771 20.3432C38.7896 20.1557 38.5352 20.0503 38.27 20.0503H31C30.7348 20.0503 30.4804 20.1557 30.2929 20.3432C30.1054 20.5307 30 20.7851 30 21.0503C30 21.3155 30.1054 21.5699 30.2929 21.7574C30.4804 21.945 30.7348 22.0503 31 22.0503ZM52.85 8.57031H55.69C55.9552 8.57031 56.2096 8.46496 56.3971 8.27742C56.5846 8.08988 56.69 7.83553 56.69 7.57031C56.69 7.3051 56.5846 7.05074 56.3971 6.86321C56.2096 6.67567 55.9552 6.57031 55.69 6.57031H52.85C52.5848 6.57031 52.3304 6.67567 52.1429 6.86321C51.9554 7.05074 51.85 7.3051 51.85 7.57031C51.85 7.83553 51.9554 8.08988 52.1429 8.27742C52.3304 8.46496 52.5848 8.57031 52.85 8.57031ZM52.85 13.0603H55.69C55.9552 13.0603 56.2096 12.955 56.3971 12.7674C56.5846 12.5799 56.69 12.3255 56.69 12.0603C56.69 11.7951 56.5846 11.5407 56.3971 11.3532C56.2096 11.1657 55.9552 11.0603 55.69 11.0603H52.85C52.5848 11.0603 52.3304 11.1657 52.1429 11.3532C51.9554 11.5407 51.85 11.7951 51.85 12.0603C51.85 12.3255 51.9554 12.5799 52.1429 12.7674C52.3304 12.955 52.5848 13.0603 52.85 13.0603ZM52.85 17.5603H55.69C55.9552 17.5603 56.2096 17.455 56.3971 17.2674C56.5846 17.0799 56.69 16.8255 56.69 16.5603C56.69 16.2951 56.5846 16.0407 56.3971 15.8532C56.2096 15.6657 55.9552 15.5603 55.69 15.5603H52.85C52.5848 15.5603 52.3304 15.6657 52.1429 15.8532C51.9554 16.0407 51.85 16.2951 51.85 16.5603C51.85 16.8255 51.9554 17.0799 52.1429 17.2674C52.3304 17.455 52.5848 17.5603 52.85 17.5603ZM52.85 22.0503H55.69C55.9552 22.0503 56.2096 21.945 56.3971 21.7574C56.5846 21.5699 56.69 21.3155 56.69 21.0503C56.69 20.7851 56.5846 20.5307 56.3971 20.3432C56.2096 20.1557 55.9552 20.0503 55.69 20.0503H52.85C52.5848 20.0503 52.3304 20.1557 52.1429 20.3432C51.9554 20.5307 51.85 20.7851 51.85 21.0503C51.85 21.3155 51.9554 21.5699 52.1429 21.7574C52.3304 21.945 52.5848 22.0503 52.85 22.0503Z" fill="#F3890F"/>
</svg>
