<svg width="64" height="64" viewBox="0 0 64 64" fill="none" xmlns="http://www.w3.org/2000/svg">
<path d="M22.4875 28.7088C23.2933 29.2414 24.2342 29.5336 25.2 29.5513H25.29C26.2864 29.5464 27.2601 29.2534 28.0938 28.7075C28.2004 28.6416 28.2927 28.5549 28.3653 28.4526C28.4379 28.3504 28.4892 28.2346 28.5162 28.1121C28.5432 27.9897 28.5454 27.8631 28.5226 27.7398C28.4998 27.6165 28.4525 27.499 28.3835 27.3943C28.3145 27.2896 28.2252 27.1998 28.1209 27.1302C28.0166 27.0606 27.8994 27.0127 27.7762 26.9892C27.6531 26.9657 27.5264 26.9672 27.4038 26.9935C27.2812 27.0199 27.1652 27.0705 27.0625 27.1425C26.5375 27.4909 25.9213 27.6767 25.2913 27.6767C24.6612 27.6767 24.045 27.4909 23.52 27.1425C23.3125 27.0085 23.0604 26.9618 22.8187 27.0126C22.5769 27.0635 22.365 27.2076 22.229 27.4138C22.0929 27.62 22.0438 27.8716 22.0922 28.1138C22.1406 28.3561 22.2827 28.5694 22.4875 28.7075V28.7088ZM29.4513 21.7212C29.6999 21.7212 29.9383 21.6225 30.1142 21.4467C30.29 21.2708 30.3888 21.0324 30.3888 20.7837V19.5712C30.3888 19.3226 30.29 19.0842 30.1142 18.9083C29.9383 18.7325 29.6999 18.6337 29.4513 18.6337C29.2026 18.6337 28.9642 18.7325 28.7883 18.9083C28.6125 19.0842 28.5138 19.3226 28.5138 19.5712V20.7812C28.5134 20.9046 28.5374 21.0268 28.5844 21.1408C28.6314 21.2548 28.7004 21.3585 28.7875 21.4458C28.8745 21.5331 28.978 21.6024 29.0919 21.6496C29.2058 21.6969 29.3279 21.7212 29.4513 21.7212ZM59.25 42.5425L52.075 38.6775C51.8676 38.5649 51.6354 38.506 51.3994 38.506C51.1634 38.506 50.9312 38.5649 50.7238 38.6775L43.5488 42.5425C43.3223 42.6645 43.1332 42.8456 43.0013 43.0664C42.8695 43.2873 42.7999 43.5397 42.7999 43.7969C42.7999 44.0541 42.8695 44.3065 43.0013 44.5273C43.1332 44.7482 43.3223 44.9292 43.5488 45.0513L45.41 46.0513V50.8463C45.4094 51.2808 45.5379 51.7057 45.7791 52.0671C46.0204 52.4285 46.3635 52.7101 46.765 52.8763L47.5013 53.1838C49.9972 54.2155 52.8003 54.2155 55.2962 53.1838L56.0337 52.8763C56.4351 52.7101 56.7781 52.4284 57.0191 52.067C57.2601 51.7055 57.3883 51.2807 57.3875 50.8463V46.0537L58.1575 45.64V47.9038C58.1575 48.1524 58.2563 48.3908 58.4321 48.5667C58.6079 48.7425 58.8464 48.8413 59.095 48.8413C59.3436 48.8413 59.5821 48.7425 59.7579 48.5667C59.9337 48.3908 60.0325 48.1524 60.0325 47.9038V43.7962C60.032 43.6531 59.9986 43.512 59.935 43.3838C59.8266 43.0239 59.5804 42.7215 59.25 42.5425ZM55.5125 50.8463C55.5125 50.9104 55.4935 50.9731 55.4579 51.0265C55.4223 51.0799 55.3717 51.1216 55.3125 51.1463L54.575 51.4538C52.5408 52.2938 50.2567 52.2938 48.2225 51.4538L47.485 51.1463C47.4258 51.1216 47.3752 51.0799 47.3396 51.0265C47.304 50.9731 47.285 50.9104 47.285 50.8463V47.0713L50.7238 48.9225C50.9312 49.0349 51.1634 49.0937 51.3994 49.0937C51.6353 49.0937 51.8675 49.0349 52.075 48.9225L55.5175 47.0713L55.5125 50.8463ZM56.0062 44.6675L51.405 47.1475L46.805 44.6688H46.7962L45.18 43.7938L51.4038 40.4463L57.625 43.7962L56.0062 44.6675ZM25.2838 45.9562C25.0983 45.9562 24.9171 46.0112 24.7629 46.1142C24.6087 46.2173 24.4886 46.3637 24.4176 46.535C24.3467 46.7063 24.3281 46.8948 24.3643 47.0766C24.4004 47.2585 24.4897 47.4256 24.6208 47.5567C24.7519 47.6878 24.919 47.7771 25.1009 47.8132C25.2827 47.8494 25.4712 47.8308 25.6425 47.7599C25.8138 47.6889 25.9602 47.5688 26.0633 47.4146C26.1663 47.2604 26.2213 47.0792 26.2213 46.8937C26.2213 46.6451 26.1225 46.4067 25.9467 46.2308C25.7708 46.055 25.5324 45.9562 25.2838 45.9562ZM60.95 30.6437H56.7962V30.615C56.7956 29.8361 56.4859 29.0893 55.9351 28.5386C55.3844 27.9879 54.6376 27.6782 53.8587 27.6775H48.9837C48.2049 27.6782 47.4581 27.9879 46.9074 28.5386C46.3566 29.0893 46.0469 29.8361 46.0462 30.615V30.6437H41.8913C41.0826 30.6447 40.3074 30.9664 39.7357 31.5382C39.1639 32.1099 38.8422 32.8851 38.8413 33.6938V36.7775L36.875 36.395C36.8098 36.3083 36.7366 36.2279 36.6562 36.155L34.46 34.155C34.2055 33.9228 33.8859 33.7743 33.5443 33.7296C33.2027 33.6849 32.8557 33.7461 32.55 33.905L31.985 33.0675C33.1735 32.085 34.1305 30.8523 34.7878 29.4573C35.4451 28.0624 35.7864 26.5395 35.7875 24.9975H36.53C37.2059 24.9958 37.8536 24.7264 38.3313 24.2483C38.809 23.7701 39.0778 23.1221 39.0788 22.4463V19.9337C39.0778 19.2572 38.8085 18.6087 38.33 18.1304C37.8515 17.6521 37.2028 17.3832 36.5262 17.3825H35.785V16.3963C35.7855 15.9914 35.6649 15.5957 35.4388 15.26C35.6664 14.7265 35.7841 14.1525 35.785 13.5725V6.5625C35.7843 6.1483 35.6195 5.75126 35.3266 5.45838C35.0337 5.16549 34.6367 5.00066 34.2225 5H19.5475C16.8213 5 14.7825 7.66 14.7825 10.0387V17.3863H14.0413C13.3648 17.3869 12.7163 17.6559 12.238 18.1342C11.7597 18.6125 11.4907 19.2611 11.49 19.9375V22.4463C11.4907 23.1227 11.7597 23.7712 12.238 24.2495C12.7163 24.7278 13.3648 24.9968 14.0413 24.9975H14.7837C14.7855 26.5546 15.1342 28.0918 15.8045 29.4972C16.4748 30.9027 17.4498 32.1411 18.6588 33.1225L18.11 33.9487C17.7991 33.7633 17.4367 33.6829 17.0765 33.7194C16.7163 33.7559 16.3775 33.9073 16.11 34.1513L13.9137 36.1513C13.8123 36.2434 13.7225 36.3475 13.6462 36.4613L8.04375 37.4888L7.98875 37.5013C3.9075 38.5013 0.82375 41.9325 0.315 46.0288C0.304167 46.1213 0.294167 46.2138 0.285 46.3063L0 49.2163V54.3838C0.00132353 55.6265 0.495609 56.8181 1.3744 57.6969C2.25319 58.5756 3.4447 59.0699 4.6875 59.0713H60.95C61.7587 59.0706 62.5341 58.749 63.1059 58.1772C63.6778 57.6054 63.9993 56.83 64 56.0213V33.6963C63.9997 32.8872 63.6783 32.1114 63.1065 31.5391C62.5346 30.9667 61.759 30.6447 60.95 30.6437ZM35.785 19.2613H36.5262C36.7057 19.2613 36.8779 19.3325 37.0049 19.4592C37.1319 19.586 37.2034 19.758 37.2038 19.9375V22.4463C37.2034 22.6257 37.1319 22.7977 37.0049 22.9245C36.8779 23.0513 36.7057 23.1225 36.5262 23.1225H35.785V19.2613ZM14.785 23.1263H14.0437C13.8644 23.1263 13.6924 23.055 13.5656 22.9282C13.4387 22.8014 13.3675 22.6294 13.3675 22.45V19.9375C13.3675 19.7581 13.4387 19.5861 13.5656 19.4593C13.6924 19.3325 13.8644 19.2613 14.0437 19.2613H14.785V23.1263ZM32.9212 36.0125C32.9538 35.987 32.9847 35.9594 33.0137 35.93L33.32 35.6588L35.2738 37.435L30.3125 45.0713L26.665 41.5713L32.9212 36.0125ZM25.2838 40.2838L19.5413 35.1875L20.21 34.18C21.7761 35.0477 23.5387 35.4992 25.3292 35.4911C27.1196 35.483 28.878 35.0156 30.4363 34.1338L31.1025 35.12L25.2838 40.2838ZM16.6588 10.0337C16.6588 8.6 17.9487 6.87 19.5487 6.87H33.9113V13.5712C33.9118 13.8355 33.8696 14.098 33.7863 14.3488H16.97C16.8654 14.3495 16.7609 14.3578 16.6575 14.3737L16.6588 10.0337ZM16.6588 24.985V16.5363C16.6591 16.4535 16.6921 16.3742 16.7506 16.3156C16.8092 16.2571 16.8885 16.2241 16.9713 16.2238H33.7363C33.7821 16.2237 33.8261 16.2419 33.8587 16.2742C33.8912 16.3065 33.9097 16.3504 33.91 16.3963V24.99C33.91 27.2775 33.0013 29.4713 31.3838 31.0888C29.7663 32.7063 27.5725 33.615 25.285 33.615C22.9975 33.615 20.8037 32.7063 19.1862 31.0888C17.5687 29.4713 16.66 27.2775 16.66 24.99L16.6588 24.985ZM17.25 35.6588L23.9025 41.5713L20.25 45.0713L15.2887 37.4313L17.25 35.6588ZM10.3862 57.1963V50.4775C10.3862 50.2289 10.2875 49.9904 10.1117 49.8146C9.93585 49.6388 9.69739 49.54 9.44875 49.54C9.20011 49.54 8.96165 49.6388 8.78584 49.8146C8.61002 49.9904 8.51125 50.2289 8.51125 50.4775V57.1963H4.6875C3.94178 57.1956 3.2268 56.8991 2.69949 56.3718C2.17219 55.8445 1.87566 55.1295 1.875 54.3838V49.3512L2.1525 46.4912C2.15875 46.415 2.1675 46.34 2.1775 46.2638C2.59 42.9425 5.09375 40.16 8.41125 39.3312L13.6613 38.3688L18.8025 46.2863C18.9376 46.495 19.1173 46.6712 19.3287 46.8022C19.5401 46.9332 19.7779 47.0157 20.025 47.0438C20.0897 47.0512 20.1548 47.055 20.22 47.055C20.6557 47.055 21.0744 46.8856 21.3875 46.5825L25.28 42.8388L29.1725 46.5888C29.3517 46.7611 29.5668 46.8917 29.8023 46.9712C30.0379 47.0507 30.2881 47.0772 30.5351 47.0488C30.782 47.0204 31.0197 46.9377 31.231 46.8068C31.4423 46.6758 31.6221 46.4998 31.7575 46.2913L36.9325 38.3213L38.8387 38.6963V56.0213C38.8387 56.4247 38.919 56.8242 39.075 57.1963H10.3862ZM47.9212 30.615C47.9216 30.3333 48.0336 30.0633 48.2328 29.8641C48.432 29.6649 48.7021 29.5528 48.9837 29.5525H53.8587C54.1404 29.5528 54.4105 29.6649 54.6097 29.8641C54.8089 30.0633 54.9209 30.3333 54.9212 30.615V32.99C54.9209 33.2717 54.8089 33.5417 54.6097 33.7409C54.4105 33.9401 54.1404 34.0522 53.8587 34.0525H48.9837C48.7021 34.0522 48.432 33.9401 48.2328 33.7409C48.0336 33.5417 47.9216 33.2717 47.9212 32.99V30.615ZM62.125 56.0213C62.125 56.3329 62.0012 56.6317 61.7808 56.8521C61.5605 57.0725 61.2616 57.1963 60.95 57.1963H41.8913C41.5797 57.1959 41.281 57.072 41.0608 56.8517C40.8405 56.6315 40.7166 56.3328 40.7163 56.0213V33.6963C40.7166 33.3847 40.8405 33.086 41.0608 32.8658C41.281 32.6455 41.5797 32.5216 41.8913 32.5213H46.0462V32.9925C46.0469 33.7714 46.3566 34.5182 46.9074 35.0689C47.4581 35.6196 48.2049 35.9293 48.9837 35.93H53.8587C54.6376 35.9293 55.3844 35.6196 55.9351 35.0689C56.4859 34.5182 56.7956 33.7714 56.7962 32.9925V32.5213H60.95C61.2615 32.5216 61.5602 32.6455 61.7805 32.8658C62.0008 33.086 62.1247 33.3847 62.125 33.6963V56.0213ZM25.2838 53.4562C25.0983 53.4562 24.9171 53.5112 24.7629 53.6142C24.6087 53.7173 24.4886 53.8637 24.4176 54.035C24.3467 54.2063 24.3281 54.3948 24.3643 54.5766C24.4004 54.7585 24.4897 54.9256 24.6208 55.0567C24.7519 55.1878 24.919 55.2771 25.1009 55.3132C25.2827 55.3494 25.4712 55.3308 25.6425 55.2599C25.8138 55.1889 25.9602 55.0688 26.0633 54.9146C26.1663 54.7604 26.2213 54.5792 26.2213 54.3937C26.2213 54.1451 26.1225 53.9067 25.9467 53.7308C25.7708 53.555 25.5324 53.4562 25.2838 53.4562ZM21.1162 21.7212C21.3649 21.7212 21.6033 21.6225 21.7792 21.4467C21.955 21.2708 22.0537 21.0324 22.0537 20.7837V19.5712C22.0537 19.3226 21.955 19.0842 21.7792 18.9083C21.6033 18.7325 21.3649 18.6337 21.1162 18.6337C20.8676 18.6337 20.6292 18.7325 20.4533 18.9083C20.2775 19.0842 20.1787 19.3226 20.1787 19.5712V20.7812C20.1784 20.9046 20.2024 21.0268 20.2494 21.1408C20.2964 21.2548 20.3654 21.3585 20.4525 21.4458C20.5395 21.5331 20.643 21.6024 20.7569 21.6496C20.8708 21.6969 20.9929 21.7212 21.1162 21.7212ZM25.2838 49.7062C25.0983 49.7062 24.9171 49.7612 24.7629 49.8642C24.6087 49.9673 24.4886 50.1137 24.4176 50.285C24.3467 50.4563 24.3281 50.6448 24.3643 50.8266C24.4004 51.0085 24.4897 51.1756 24.6208 51.3067C24.7519 51.4378 24.919 51.5271 25.1009 51.5632C25.2827 51.5994 25.4712 51.5808 25.6425 51.5099C25.8138 51.4389 25.9602 51.3188 26.0633 51.1646C26.1663 51.0104 26.2213 50.8292 26.2213 50.6437C26.2213 50.3951 26.1225 50.1567 25.9467 49.9808C25.7708 49.805 25.5324 49.7062 25.2838 49.7062Z" fill="#F3890F"/>
</svg>
