<svg width="64" height="64" viewBox="0 0 64 64" fill="none" xmlns="http://www.w3.org/2000/svg">
<path d="M35.08 48.9999H6C5.34339 48.9999 4.69321 48.8706 4.08658 48.6193C3.47995 48.368 2.92876 47.9998 2.46447 47.5355C1.52678 46.5978 1 45.326 1 43.9999V11.1199C1.01317 9.80252 1.54577 8.54356 2.48203 7.61667C3.41828 6.68977 4.68254 6.16986 6 6.16992H45.37C46.6875 6.16986 47.9517 6.68977 48.888 7.61667C49.8242 8.54356 50.3568 9.80252 50.37 11.1199V32.3599C50.37 32.6251 50.2646 32.8795 50.0771 33.067C49.8896 33.2546 49.6352 33.3599 49.37 33.3599C49.1048 33.3599 48.8504 33.2546 48.6629 33.067C48.4754 32.8795 48.37 32.6251 48.37 32.3599V11.1199C48.3569 10.333 48.035 9.58269 47.4738 9.03085C46.9126 8.47901 46.1571 8.16981 45.37 8.16992H6C5.21294 8.16981 4.45736 8.47901 3.89616 9.03085C3.33497 9.58269 3.01312 10.333 3 11.1199V43.9999C3 44.7956 3.31607 45.5586 3.87868 46.1212C4.44129 46.6839 5.20435 46.9999 6 46.9999H35.08C35.3452 46.9999 35.5996 47.1053 35.7871 47.2928C35.9746 47.4804 36.08 47.7347 36.08 47.9999C36.08 48.2651 35.9746 48.5195 35.7871 48.707C35.5996 48.8946 35.3452 48.9999 35.08 48.9999Z" fill="#F3890F"/>
<path d="M49.33 18.9004H2C1.73478 18.9004 1.48043 18.795 1.29289 18.6075C1.10536 18.42 1 18.1656 1 17.9004C1 17.6352 1.10536 17.3808 1.29289 17.1933C1.48043 17.0057 1.73478 16.9004 2 16.9004H49.33C49.5952 16.9004 49.8496 17.0057 50.0371 17.1933C50.2246 17.3808 50.33 17.6352 50.33 17.9004C50.33 18.1656 50.2246 18.42 50.0371 18.6075C49.8496 18.795 49.5952 18.9004 49.33 18.9004ZM14.49 31.0004H8.86C8.59478 31.0004 8.34043 30.895 8.15289 30.7075C7.96536 30.52 7.86 30.2656 7.86 30.0004V24.4104C7.86 24.1452 7.96536 23.8908 8.15289 23.7033C8.34043 23.5157 8.59478 23.4104 8.86 23.4104H14.49C14.7552 23.4104 15.0096 23.5157 15.1971 23.7033C15.3846 23.8908 15.49 24.1452 15.49 24.4104V30.0004C15.49 30.2656 15.3846 30.52 15.1971 30.7075C15.0096 30.895 14.7552 31.0004 14.49 31.0004ZM9.86 29.0004H13.49V25.4104H9.86V29.0004ZM27.16 31.0004H21.53C21.2648 31.0004 21.0104 30.895 20.8229 30.7075C20.6354 30.52 20.53 30.2656 20.53 30.0004V24.4104C20.53 24.1452 20.6354 23.8908 20.8229 23.7033C21.0104 23.5157 21.2648 23.4104 21.53 23.4104H27.16C27.4252 23.4104 27.6796 23.5157 27.8671 23.7033C28.0546 23.8908 28.16 24.1452 28.16 24.4104V30.0004C28.16 30.2656 28.0546 30.52 27.8671 30.7075C27.6796 30.895 27.4252 31.0004 27.16 31.0004ZM22.53 29.0004H26.16V25.4104H22.53V29.0004ZM39.83 31.0004H34.2C33.9348 31.0004 33.6804 30.895 33.4929 30.7075C33.3054 30.52 33.2 30.2656 33.2 30.0004V24.4104C33.2 24.1452 33.3054 23.8908 33.4929 23.7033C33.6804 23.5157 33.9348 23.4104 34.2 23.4104H39.83C40.0952 23.4104 40.3496 23.5157 40.5371 23.7033C40.7246 23.8908 40.83 24.1452 40.83 24.4104V30.0004C40.83 30.2656 40.7246 30.52 40.5371 30.7075C40.3496 30.895 40.0952 31.0004 39.83 31.0004ZM35.2 29.0004H38.83V25.4104H35.2V29.0004ZM14.49 41.7704H8.86C8.59478 41.7704 8.34043 41.665 8.15289 41.4775C7.96536 41.29 7.86 41.0356 7.86 40.7704V35.1404C7.86 34.8752 7.96536 34.6208 8.15289 34.4333C8.34043 34.2457 8.59478 34.1404 8.86 34.1404H14.49C14.7552 34.1404 15.0096 34.2457 15.1971 34.4333C15.3846 34.6208 15.49 34.8752 15.49 35.1404V40.7704C15.49 41.0356 15.3846 41.29 15.1971 41.4775C15.0096 41.665 14.7552 41.7704 14.49 41.7704ZM9.86 39.7704H13.49V36.1404H9.86V39.7704ZM27.16 41.7704H21.53C21.2648 41.7704 21.0104 41.665 20.8229 41.4775C20.6354 41.29 20.53 41.0356 20.53 40.7704V35.1404C20.53 34.8752 20.6354 34.6208 20.8229 34.4333C21.0104 34.2457 21.2648 34.1404 21.53 34.1404H27.16C27.4252 34.1404 27.6796 34.2457 27.8671 34.4333C28.0546 34.6208 28.16 34.8752 28.16 35.1404V40.7704C28.16 41.0356 28.0546 41.29 27.8671 41.4775C27.6796 41.665 27.4252 41.7704 27.16 41.7704ZM22.53 39.7704H26.16V36.1404H22.53V39.7704ZM48.45 60.4204C45.5719 60.4204 42.7584 59.5668 40.3654 57.9676C37.9725 56.3684 36.1076 54.0954 35.0066 51.4361C33.9056 48.7769 33.6181 45.8508 34.1803 43.0281C34.7425 40.2055 36.1293 37.6129 38.1651 35.5785C40.201 33.544 42.7945 32.159 45.6176 31.5987C48.4407 31.0385 51.3665 31.328 54.025 32.4308C56.6835 33.5336 58.9552 35.4001 60.5527 37.7941C62.1503 40.1882 63.002 43.0022 63 45.8804C62.9947 49.7367 61.4597 53.4335 58.7319 56.1594C56.0042 58.8853 52.3064 60.4177 48.45 60.4204ZM48.45 33.3304C45.9678 33.3304 43.5414 34.0664 41.4776 35.4454C39.4138 36.8245 37.8052 38.7845 36.8553 41.0777C35.9054 43.3709 35.6569 45.8943 36.1411 48.3288C36.6254 50.7632 37.8207 52.9994 39.5758 54.7546C41.331 56.5097 43.5672 57.705 46.0016 58.1892C48.4361 58.6735 50.9595 58.425 53.2527 57.4751C55.5459 56.5252 57.5059 54.9166 58.8849 52.8528C60.264 50.789 61 48.3625 61 45.8804C60.9974 42.5527 59.6743 39.3621 57.3213 37.0091C54.9683 34.6561 51.7777 33.333 48.45 33.3304Z" fill="#F3890F"/>
<path d="M48.4511 37.6401C48.1859 37.6401 47.9315 37.5347 47.744 37.3472C47.5564 37.1596 47.4511 36.9053 47.4511 36.6401V36.0001C47.4511 35.7349 47.5564 35.4805 47.744 35.293C47.9315 35.1054 48.1859 35.0001 48.4511 35.0001C48.7163 35.0001 48.9707 35.1054 49.1582 35.293C49.3457 35.4805 49.4511 35.7349 49.4511 36.0001V36.6501C49.4485 36.9136 49.3419 37.1654 49.1547 37.3507C48.9674 37.5361 48.7146 37.6401 48.4511 37.6401ZM48.4511 56.7601C48.1859 56.7601 47.9315 56.6547 47.744 56.4672C47.5564 56.2796 47.4511 56.0253 47.4511 55.7601V55.1101C47.4511 54.8449 47.5564 54.5905 47.744 54.403C47.9315 54.2154 48.1859 54.1101 48.4511 54.1101C48.7163 54.1101 48.9707 54.2154 49.1582 54.403C49.3457 54.5905 49.4511 54.8449 49.4511 55.1101V55.7601C49.4511 56.0253 49.3457 56.2796 49.1582 56.4672C48.9707 56.6547 48.7163 56.7601 48.4511 56.7601ZM58.3411 46.8801H57.6911C57.4259 46.8801 57.1715 46.7747 56.984 46.5872C56.7965 46.3997 56.6911 46.1453 56.6911 45.8801C56.6911 45.6149 56.7965 45.3605 56.984 45.173C57.1715 44.9854 57.4259 44.8801 57.6911 44.8801H58.3411C58.6063 44.8801 58.8607 44.9854 59.0482 45.173C59.2357 45.3605 59.3411 45.6149 59.3411 45.8801C59.3411 46.1453 59.2357 46.3997 59.0482 46.5872C58.8607 46.7747 58.6063 46.8801 58.3411 46.8801ZM39.2211 46.8801H38.5711C38.3059 46.8801 38.0515 46.7747 37.864 46.5872C37.6765 46.3997 37.5711 46.1453 37.5711 45.8801C37.5711 45.6149 37.6765 45.3605 37.864 45.173C38.0515 44.9854 38.3059 44.8801 38.5711 44.8801H39.2211C39.4863 44.8801 39.7407 44.9854 39.9282 45.173C40.1157 45.3605 40.2211 45.6149 40.2211 45.8801C40.2211 46.1453 40.1157 46.3997 39.9282 46.5872C39.7407 46.7747 39.4863 46.8801 39.2211 46.8801ZM55.0011 40.3501C54.8688 40.3495 54.7379 40.3227 54.616 40.2712C54.4942 40.2197 54.3837 40.1446 54.2911 40.0501C54.1048 39.8627 54.0003 39.6093 54.0003 39.3451C54.0003 39.0809 54.1048 38.8274 54.2911 38.6401L54.7511 38.1801C54.8441 38.0863 54.9547 38.012 55.0765 37.9612C55.1984 37.9104 55.3291 37.8843 55.4611 37.8843C55.5931 37.8843 55.7238 37.9104 55.8457 37.9612C55.9675 38.012 56.0781 38.0863 56.1711 38.1801C56.3573 38.3674 56.4619 38.6209 56.4619 38.8851C56.4619 39.1493 56.3573 39.4027 56.1711 39.5901L55.7111 40.0501C55.6185 40.1446 55.508 40.2197 55.3862 40.2712C55.2643 40.3227 55.1334 40.3495 55.0011 40.3501ZM41.4611 53.8601C41.1988 53.859 40.9474 53.7548 40.7611 53.5701C40.5748 53.3827 40.4703 53.1293 40.4703 52.8651C40.4703 52.6009 40.5748 52.3474 40.7611 52.1601L41.2211 51.7001C41.4124 51.5363 41.6585 51.4506 41.9101 51.4604C42.1618 51.4701 42.4006 51.5744 42.5787 51.7525C42.7568 51.9306 42.8611 52.1694 42.8708 52.421C42.8805 52.6727 42.7949 52.9188 42.6311 53.1101L42.1711 53.5701C42.0777 53.6628 41.9668 53.7361 41.845 53.7859C41.7232 53.8356 41.5927 53.8608 41.4611 53.8601ZM55.4411 53.8601C55.3095 53.8608 55.179 53.8356 55.0572 53.7859C54.9354 53.7361 54.8245 53.6628 54.7311 53.5701L54.2711 53.1101C54.0848 52.9227 53.9803 52.6693 53.9803 52.4051C53.9803 52.1409 54.0848 51.8874 54.2711 51.7001C54.3641 51.6064 54.4747 51.532 54.5965 51.4812C54.7184 51.4304 54.8491 51.4043 54.9811 51.4043C55.1131 51.4043 55.2438 51.4304 55.3657 51.4812C55.4875 51.532 55.5981 51.6064 55.6911 51.7001L56.1511 52.1601C56.3373 52.3474 56.4419 52.6009 56.4419 52.8651C56.4419 53.1293 56.3373 53.3827 56.1511 53.5701C56.0577 53.6628 55.9468 53.7361 55.825 53.7859C55.7032 53.8356 55.5727 53.8608 55.4411 53.8601ZM41.9211 40.3501C41.6573 40.3463 41.4057 40.2385 41.2211 40.0501L40.7511 39.5901C40.5641 39.4018 40.4596 39.1469 40.4605 38.8815C40.4615 38.6162 40.5678 38.3621 40.7561 38.1751C40.9444 37.9881 41.1993 37.8836 41.4646 37.8845C41.73 37.8855 41.9841 37.9918 42.1711 38.1801L42.6311 38.6401C42.8173 38.8274 42.9219 39.0809 42.9219 39.3451C42.9219 39.6093 42.8173 39.8627 42.6311 40.0501C42.5385 40.1446 42.428 40.2197 42.3062 40.2712C42.1843 40.3227 42.0534 40.3495 41.9211 40.3501ZM54.4611 46.8801H48.4611C48.1959 46.8801 47.9415 46.7747 47.754 46.5872C47.5664 46.3997 47.4611 46.1453 47.4611 45.8801V40.7701C47.4611 40.5049 47.5664 40.2505 47.754 40.063C47.9415 39.8754 48.1959 39.7701 48.4611 39.7701C48.7263 39.7701 48.9807 39.8754 49.1682 40.063C49.3557 40.2505 49.4611 40.5049 49.4611 40.7701V44.8801H54.4611C54.7263 44.8801 54.9807 44.9854 55.1682 45.173C55.3557 45.3605 55.4611 45.6149 55.4611 45.8801C55.4611 46.1453 55.3557 46.3997 55.1682 46.5872C54.9807 46.7747 54.7263 46.8801 54.4611 46.8801ZM11.6211 11.0001C11.3559 11.0001 11.1015 10.8947 10.914 10.7072C10.7265 10.5196 10.6211 10.2653 10.6211 10.0001V4.58008C10.6211 4.31486 10.7265 4.06051 10.914 3.87297C11.1015 3.68544 11.3559 3.58008 11.6211 3.58008C11.8863 3.58008 12.1407 3.68544 12.3282 3.87297C12.5157 4.06051 12.6211 4.31486 12.6211 4.58008V10.0001C12.6211 10.2653 12.5157 10.5196 12.3282 10.7072C12.1407 10.8947 11.8863 11.0001 11.6211 11.0001ZM21.0011 11.0001C20.7359 11.0001 20.4815 10.8947 20.294 10.7072C20.1065 10.5196 20.0011 10.2653 20.0011 10.0001V4.58008C20.0011 4.31486 20.1065 4.06051 20.294 3.87297C20.4815 3.68544 20.7359 3.58008 21.0011 3.58008C21.2663 3.58008 21.5207 3.68544 21.7082 3.87297C21.8957 4.06051 22.0011 4.31486 22.0011 4.58008V10.0001C22.0011 10.2653 21.8957 10.5196 21.7082 10.7072C21.5207 10.8947 21.2663 11.0001 21.0011 11.0001ZM30.3511 11.0001C30.0859 11.0001 29.8315 10.8947 29.644 10.7072C29.4564 10.5196 29.3511 10.2653 29.3511 10.0001V4.58008C29.3511 4.31486 29.4564 4.06051 29.644 3.87297C29.8315 3.68544 30.0859 3.58008 30.3511 3.58008C30.6163 3.58008 30.8707 3.68544 31.0582 3.87297C31.2457 4.06051 31.3511 4.31486 31.3511 4.58008V10.0001C31.3511 10.2653 31.2457 10.5196 31.0582 10.7072C30.8707 10.8947 30.6163 11.0001 30.3511 11.0001ZM39.7211 11.0001C39.4559 11.0001 39.2015 10.8947 39.014 10.7072C38.8265 10.5196 38.7211 10.2653 38.7211 10.0001V4.58008C38.7211 4.31486 38.8265 4.06051 39.014 3.87297C39.2015 3.68544 39.4559 3.58008 39.7211 3.58008C39.9863 3.58008 40.2407 3.68544 40.4282 3.87297C40.6157 4.06051 40.7211 4.31486 40.7211 4.58008V10.0001C40.7211 10.2653 40.6157 10.5196 40.4282 10.7072C40.2407 10.8947 39.9863 11.0001 39.7211 11.0001Z" fill="#F3890F"/>
</svg>
